NotoSerifTamilSlanted-SemiCondensedLight.ufo
<glyph name="exclam" format="2">
  <advance width="278.32424242424247"/>
  <unicode hex="0021"/>
  <outline>
    <contour>
      <point x="100.16666666666666" y="186.54545454545456" type="line"/>
      <point x="138.93030303030304" y="186.54545454545456" type="line"/>
      <point x="270.1272727272727" y="714.0" type="line"/>
      <point x="195.21818181818182" y="714.0" type="line"/>
    </contour>
    <contour>
      <point x="86.61818181818181" y="-7.954545454545455" type="curve" smooth="yes"/>
      <point x="113.04848484848485" y="-7.954545454545455"/>
      <point x="138.3242424242424" y="12.73030303030303"/>
      <point x="138.3242424242424" y="59.378787878787875" type="curve" smooth="yes"/>
      <point x="138.3242424242424" y="87.66060606060606"/>
      <point x="121.17878787878789" y="101.82727272727271"/>
      <point x="97.70303030303032" y="101.82727272727271" type="curve" smooth="yes"/>
      <point x="70.17878787878787" y="101.82727272727271"/>
      <point x="44.88787878787879" y="78.03333333333333"/>
      <point x="44.88787878787879" y="35.92727272727273" type="curve" smooth="yes"/>
      <point x="44.88787878787879" y="7.012121212121213"/>
      <point x="61.578787878787885" y="-7.954545454545455"/>
    </contour>
  </outline>
</glyph>
<glyph name="quotedbl" format="2">
  <advance width="328.48484848484844"/>
  <unicode hex="0022"/>
  <outline>
    <contour>
      <point x="113.28787878787878" y="488.890909090909" type="line"/>
      <point x="146.46969696969697" y="488.890909090909" type="line"/>
      <point x="213.48787878787877" y="714.0" type="line"/>
      <point x="144.03333333333333" y="714.0" type="line"/>
    </contour>
    <contour>
      <point x="266.35757575757583" y="488.890909090909" type="line"/>
      <point x="299.5393939393939" y="488.890909090909" type="line"/>
      <point x="366.55757575757576" y="714.0" type="line"/>
      <point x="297.3030303030303" y="714.0" type="line"/>
    </contour>
  </outline>
</glyph>
<glyph name="numbersign" format="2">
  <advance width="516.7666666666668"/>
  <unicode hex="0023"/>
  <outline>
    <contour>
      <point x="56.093939393939394" y="0.0" type="line"/>
      <point x="99.74848484848485" y="0.0" type="line"/>
      <point x="159.75454545454548" y="210.27272727272728" type="line"/>
      <point x="307.24545454545455" y="210.27272727272728" type="line"/>
      <point x="247.4393939393939" y="0.0" type="line"/>
      <point x="290.89393939393943" y="0.0" type="line"/>
      <point x="350.70000000000005" y="210.27272727272728" type="line"/>
      <point x="459.42727272727274" y="210.27272727272728" type="line"/>
      <point x="465.71818181818185" y="253.8181818181818" type="line"/>
      <point x="364.2454545454546" y="253.8181818181818" type="line"/>
      <point x="425.6878787878788" y="469.56363636363636" type="line"/>
      <point x="525.1969696969697" y="469.56363636363636" type="line"/>
      <point x="530.9757575757576" y="512.9090909090909" type="line"/>
      <point x="438.43030303030304" y="512.9090909090909" type="line"/>
      <point x="496.03939393939396" y="714.0" type="line"/>
      <point x="452.3848484848485" y="714.0" type="line"/>
      <point x="394.7757575757576" y="512.9090909090909" type="line"/>
      <point x="247.28484848484848" y="512.9090909090909" type="line"/>
      <point x="304.89393939393943" y="714.0" type="line"/>
      <point x="260.8939393939394" y="714.0" type="line"/>
      <point x="203.83030303030304" y="512.9090909090909" type="line"/>
      <point x="94.48484848484847" y="512.9090909090909" type="line"/>
      <point x="88.9060606060606" y="469.56363636363636" type="line"/>
      <point x="191.08787878787882" y="469.56363636363636" type="line"/>
      <point x="129.10000000000002" y="253.8181818181818" type="line"/>
      <point x="28.881818181818183" y="253.8181818181818" type="line"/>
      <point x="22.59090909090909" y="210.27272727272728" type="line"/>
      <point x="116.30000000000001" y="210.27272727272728" type="line"/>
    </contour>
    <contour>
      <point x="172.9" y="253.8181818181818" type="line"/>
      <point x="234.54242424242423" y="469.56363636363636" type="line"/>
      <point x="382.03333333333336" y="469.56363636363636" type="line"/>
      <point x="320.59090909090907" y="253.8181818181818" type="line"/>
    </contour>
  </outline>
</glyph>
<glyph name="percent" format="2">
  <advance width="812.2454545454544"/>
  <unicode hex="0025"/>
  <outline>
    <contour>
      <point x="156.2969696969697" y="0.0" type="line"/>
      <point x="207.12121212121215" y="0.0" type="line"/>
      <point x="677.7424242424241" y="714.0" type="line"/>
      <point x="629.1" y="714.0" type="line"/>
    </contour>
    <contour>
      <point x="181.29090909090908" y="281.90909090909093" type="curve" smooth="yes"/>
      <point x="310.95151515151514" y="281.90909090909093"/>
      <point x="369.39696969696973" y="459.51818181818186"/>
      <point x="369.39696969696973" y="567.4484848484848" type="curve" smooth="yes"/>
      <point x="369.39696969696973" y="660.3363636363637"/>
      <point x="334.1363636363636" y="722.0909090909091"/>
      <point x="256.5939393939394" y="722.0909090909091" type="curve" smooth="yes"/>
      <point x="128.0060606060606" y="722.0909090909091"/>
      <point x="68.94242424242424" y="548.3000000000001"/>
      <point x="68.94242424242424" y="437.0818181818182" type="curve"/>
      <point x="68.94242424242424" y="333.38181818181823"/>
      <point x="111.6939393939394" y="281.90909090909093"/>
    </contour>
    <contour>
      <point x="184.40606060606063" y="315.1484848484848" type="curve" smooth="yes"/>
      <point x="141.73333333333332" y="315.1484848484848"/>
      <point x="122.47272727272728" y="353.91818181818184"/>
      <point x="122.47272727272728" y="427.9" type="curve" smooth="yes"/>
      <point x="122.47272727272728" y="518.569696969697"/>
      <point x="166.71212121212122" y="689.3969696969697"/>
      <point x="253.87878787878788" y="689.3969696969697" type="curve" smooth="yes"/>
      <point x="294.24848484848485" y="689.3969696969697"/>
      <point x="314.08484848484846" y="649.9484848484848"/>
      <point x="314.08484848484846" y="577.1757575757575" type="curve" smooth="yes"/>
      <point x="314.08484848484846" y="485.9757575757576"/>
      <point x="270.37575757575763" y="315.1484848484848"/>
    </contour>
    <contour>
      <point x="583.3333333333334" y="-7.090909090909091" type="curve" smooth="yes"/>
      <point x="712.7515151515152" y="-7.090909090909091"/>
      <point x="770.6636363636364" y="170.71818181818182"/>
      <point x="770.6636363636364" y="278.44848484848484" type="curve" smooth="yes"/>
      <point x="770.6636363636364" y="371.3363636363636"/>
      <point x="735.4030303030303" y="433.09090909090907"/>
      <point x="657.8606060606061" y="433.09090909090907" type="curve" smooth="yes"/>
      <point x="529.2727272727273" y="433.09090909090907"/>
      <point x="470.40909090909093" y="259.29999999999995"/>
      <point x="470.40909090909093" y="148.08181818181816" type="curve"/>
      <point x="470.40909090909093" y="44.912121212121214"/>
      <point x="513.0848484848485" y="-7.090909090909091"/>
    </contour>
    <contour>
      <point x="586.4484848484848" y="26.148484848484845" type="curve" smooth="yes"/>
      <point x="543.0" y="26.148484848484845"/>
      <point x="523.739393939394" y="64.91818181818182"/>
      <point x="523.739393939394" y="139.29999999999998" type="curve" smooth="yes"/>
      <point x="523.739393939394" y="229.56969696969696"/>
      <point x="566.739393939394" y="400.39696969696973"/>
      <point x="655.1454545454545" y="400.39696969696973" type="curve" smooth="yes"/>
      <point x="695.7151515151515" y="400.39696969696973"/>
      <point x="715.5515151515152" y="360.74848484848485"/>
      <point x="715.5515151515152" y="288.17575757575764" type="curve" smooth="yes"/>
      <point x="715.5515151515152" y="196.97575757575757"/>
      <point x="672.1757575757575" y="26.148484848484845"/>
    </contour>
  </outline>
</glyph>
<glyph name="quotesingle" format="2">
  <advance width="170.74545454545455"/>
  <unicode hex="0027"/>
  <outline>
    <contour>
      <point x="111.54545454545455" y="502.98181818181814" type="line"/>
      <point x="144.72727272727272" y="502.98181818181814" type="line"/>
      <point x="208.16363636363639" y="714.0" type="line"/>
      <point x="138.9090909090909" y="714.0" type="line"/>
    </contour>
  </outline>
</glyph>
<glyph name="parenleft" format="2">
  <advance width="293.7030303030303"/>
  <unicode hex="0028"/>
  <outline>
    <contour>
      <point x="174.9878787878788" y="-122.26969696969698" type="curve"/>
      <point x="183.2030303030303" y="-86.54848484848485" type="line"/>
      <point x="125.90606060606062" y="-39.18484848484849"/>
      <point x="101.53333333333333" y="61.106060606060595"/>
      <point x="101.53333333333333" y="158.22727272727272" type="curve" smooth="yes"/>
      <point x="101.53333333333333" y="312.6272727272727"/>
      <point x="161.5757575757576" y="598.3909090909091"/>
      <point x="354.43030303030304" y="716.0181818181819" type="curve"/>
      <point x="362.24545454545455" y="751.3272727272728" type="line"/>
      <point x="137.8787878787879" y="662.5060606060606"/>
      <point x="38.93333333333333" y="402.0151515151515"/>
      <point x="38.93333333333333" y="179.3090909090909" type="curve" smooth="yes"/>
      <point x="38.93333333333333" y="43.82727272727273"/>
      <point x="80.75151515151514" y="-68.16060606060606"/>
    </contour>
  </outline>
</glyph>
<glyph name="parenright" format="2">
  <advance width="293.7030303030303"/>
  <unicode hex="0029"/>
  <outline>
    <contour>
      <point x="-53.75757575757576" y="-126.83333333333333" type="line"/>
      <point x="170.8090909090909" y="-37.81212121212121"/>
      <point x="269.3545454545454" y="222.67878787878786"/>
      <point x="269.3545454545454" y="445.3848484848485" type="curve" smooth="yes"/>
      <point x="269.3545454545454" y="580.8666666666667"/>
      <point x="227.93636363636364" y="692.6545454545455"/>
      <point x="133.5" y="746.7636363636364" type="curve"/>
      <point x="125.48484848484848" y="711.2424242424242" type="line"/>
      <point x="182.5818181818182" y="663.8787878787879"/>
      <point x="206.95454545454547" y="563.5878787878788"/>
      <point x="206.95454545454547" y="466.46666666666664" type="curve" smooth="yes"/>
      <point x="206.95454545454547" y="312.26666666666665"/>
      <point x="147.11212121212122" y="26.5030303030303"/>
      <point x="-45.742424242424235" y="-91.32424242424243" type="curve"/>
    </contour>
  </outline>
</glyph>
<glyph name="asterisk" format="2">
  <advance width="419.24848484848485"/>
  <unicode hex="002A"/>
  <outline>
    <contour>
      <point x="275.7030303030303" y="385.05151515151516" type="line"/>
      <point x="289.1969696969697" y="547.0030303030303" type="line"/>
      <point x="402.94848484848484" y="432.1909090909091" type="line"/>
      <point x="439.7969696969697" y="482.3484848484849" type="line"/>
      <point x="305.1242424242425" y="569.0484848484848" type="line"/>
      <point x="463.3575757575758" y="590.3545454545455" type="line"/>
      <point x="450.3151515151515" y="653.4848484848485" type="line"/>
      <point x="299.7606060606061" y="595.5939393939394" type="line"/>
      <point x="352.67272727272723" y="749.1515151515152" type="line"/>
      <point x="290.9848484848485" y="762.7272727272727" type="line"/>
      <point x="276.1545454545454" y="600.3181818181819" type="line"/>
      <point x="163.78181818181818" y="719.030303030303" type="line"/>
      <point x="125.52424242424243" y="666.5515151515152" type="line"/>
      <point x="259.76363636363635" y="578.8181818181819" type="line"/>
      <point x="102.16363636363637" y="556.6787878787878" type="line"/>
      <point x="115.7818181818182" y="494.3242424242424" type="line"/>
      <point x="265.2151515151515" y="552.4727272727273" type="line"/>
      <point x="213.23939393939395" y="398.71515151515155" type="line"/>
    </contour>
  </outline>
</glyph>
<glyph name="plus" format="2">
  <advance width="509.8666666666667"/>
  <unicode hex="002B"/>
  <outline>
    <contour>
      <point x="237.57272727272726" y="143.0" type="line"/>
      <point x="282.9606060606061" y="143.0" type="line"/>
      <point x="282.9606060606061" y="335.1848484848485" type="line"/>
      <point x="457.43333333333334" y="335.1848484848485" type="line"/>
      <point x="457.43333333333334" y="379.6939393939394" type="line"/>
      <point x="282.9606060606061" y="379.6939393939394" type="line"/>
      <point x="282.9606060606061" y="572.0" type="line"/>
      <point x="237.57272727272726" y="572.0" type="line"/>
      <point x="237.57272727272726" y="379.6939393939394" type="line"/>
      <point x="63.76666666666667" y="379.6939393939394" type="line"/>
      <point x="63.76666666666667" y="335.1848484848485" type="line"/>
      <point x="237.57272727272726" y="335.1848484848485" type="line"/>
    </contour>
  </outline>
</glyph>
<glyph name="comma" format="2">
  <advance width="205.00303030303027"/>
  <unicode hex="002C"/>
  <outline>
    <contour>
      <point x="-36.23636363636364" y="-142.93939393939394" type="line"/>
      <point x="69.83939393939394" y="-118.22727272727273"/>
      <point x="108.85454545454546" y="-48.669696969696965"/>
      <point x="108.85454545454546" y="31.109090909090913" type="curve" smooth="yes"/>
      <point x="108.85454545454546" y="76.03636363636365"/>
      <point x="84.45454545454545" y="102.4"/>
      <point x="54.25454545454545" y="102.4" type="curve" smooth="yes"/>
      <point x="27.41818181818182" y="102.4"/>
      <point x="8.4" y="84.92727272727272"/>
      <point x="8.4" y="55.92727272727272" type="curve" smooth="yes"/>
      <point x="8.4" y="13.727272727272727"/>
      <point x="55.76363636363636" y="13.781818181818183"/>
      <point x="55.76363636363636" y="-20.70909090909091" type="curve" smooth="yes"/>
      <point x="55.76363636363636" y="-60.57575757575757"/>
      <point x="27.042424242424243" y="-94.24242424242424"/>
      <point x="-34.68484848484849" y="-110.97272727272725" type="curve"/>
    </contour>
  </outline>
</glyph>
<glyph name="hyphen" format="2">
  <advance width="286.59999999999997"/>
  <unicode hex="002D"/>
  <outline>
    <contour>
      <point x="18.49090909090909" y="247.65757575757576" type="line"/>
      <point x="258.75757575757575" y="247.65757575757576" type="line"/>
      <point x="270.1242424242424" y="299.58484848484846" type="line"/>
      <point x="29.857575757575756" y="299.58484848484846" type="line"/>
    </contour>
  </outline>
</glyph>
<glyph name="period" format="2">
  <advance width="205.00303030303027"/>
  <unicode hex="002E"/>
  <outline>
    <contour>
      <point x="57.33030303030302" y="-6.803030303030304" type="curve" smooth="yes"/>
      <point x="83.18484848484849" y="-6.803030303030304"/>
      <point x="109.23636363636363" y="12.73030303030303"/>
      <point x="109.23636363636363" y="61.912121212121214" type="curve" smooth="yes"/>
      <point x="109.23636363636363" y="88.81212121212121"/>
      <point x="91.8909090909091" y="102.97878787878788"/>
      <point x="68.41515151515152" y="102.97878787878788" type="curve" smooth="yes"/>
      <point x="41.17878787878788" y="102.97878787878788"/>
      <point x="15.600000000000001" y="79.76060606060605"/>
      <point x="15.600000000000001" y="35.696969696969695" type="curve" smooth="yes"/>
      <point x="15.600000000000001" y="8.163636363636364"/>
      <point x="32.290909090909096" y="-6.803030303030304"/>
    </contour>
  </outline>
</glyph>
<glyph name="slash" format="2">
  <advance width="266.43333333333334"/>
  <unicode hex="002F"/>
  <outline>
    <contour>
      <point x="-83.93636363636364" y="-121.0" type="line"/>
      <point x="-38.67878787878788" y="-121.0" type="line"/>
      <point x="354.29090909090905" y="760.0" type="line"/>
      <point x="308.0575757575757" y="760.0" type="line"/>
    </contour>
  </outline>
</glyph>
<glyph name="zero" format="2">
  <advance width="503.0818181818181"/>
  <unicode hex="0030"/>
  <outline>
    <contour>
      <point x="203.7878787878788" y="-11.0" type="curve" smooth="yes"/>
      <point x="405.52727272727276" y="-11.0"/>
      <point x="485.52727272727276" y="301.0"/>
      <point x="485.52727272727276" y="499.9060606060606" type="curve" smooth="yes"/>
      <point x="485.52727272727276" y="656.5151515151515"/>
      <point x="416.43636363636364" y="724.0575757575758"/>
      <point x="323.6878787878788" y="724.0575757575758" type="curve" smooth="yes"/>
      <point x="128.72424242424242" y="724.0575757575758"/>
      <point x="41.654545454545456" y="425.4757575757576"/>
      <point x="41.654545454545456" y="219.84545454545454" type="curve" smooth="yes"/>
      <point x="41.654545454545456" y="68.95151515151514"/>
      <point x="104.63939393939395" y="-11.0"/>
    </contour>
    <contour>
      <point x="209.75757575757578" y="30.163636363636364" type="curve" smooth="yes"/>
      <point x="143.75757575757575" y="30.163636363636364"/>
      <point x="105.0909090909091" y="87.45454545454545"/>
      <point x="105.0909090909091" y="206.2030303030303" type="curve" smooth="yes"/>
      <point x="105.0909090909091" y="384.0"/>
      <point x="169.69696969696972" y="683.6060606060606"/>
      <point x="317.5121212121212" y="683.6060606060606" type="curve" smooth="yes"/>
      <point x="382.8454545454546" y="683.6060606060606"/>
      <point x="422.29090909090905" y="630.0575757575758"/>
      <point x="422.29090909090905" y="507.630303030303" type="curve" smooth="yes"/>
      <point x="422.29090909090905" y="333.4151515151515"/>
      <point x="361.7606060606061" y="30.163636363636364"/>
    </contour>
  </outline>
</glyph>
<glyph name="one" format="2">
  <advance width="503.0818181818181"/>
  <unicode hex="0031"/>
  <outline>
    <contour>
      <point x="39.34242424242424" y="0.0" type="line"/>
      <point x="359.3484848484848" y="0.0" type="line"/>
      <point x="366.530303030303" y="31.8" type="line"/>
      <point x="302.73333333333335" y="31.8" type="line" smooth="yes"/>
      <point x="265.5515151515151" y="31.8"/>
      <point x="247.7060606060606" y="36.724242424242426"/>
      <point x="247.7060606060606" y="63.76363636363636" type="curve" smooth="yes"/>
      <point x="247.7060606060606" y="72.02424242424243"/>
      <point x="249.87272727272725" y="86.74848484848486"/>
      <point x="253.26060606060608" y="102.26363636363637" type="curve" smooth="yes"/>
      <point x="383.72121212121215" y="718.0" type="line"/>
      <point x="345.9757575757576" y="718.0" type="line"/>
      <point x="279.0363636363636" y="671.0454545454545" type="line" smooth="yes"/>
      <point x="208.8030303030303" y="621.2575757575758"/>
      <point x="169.3060606060606" y="603.0909090909091"/>
      <point x="126.77272727272727" y="592.1666666666666" type="curve"/>
      <point x="126.57272727272726" y="571.1575757575758"/>
      <point x="134.11515151515152" y="554.3424242424243"/>
      <point x="158.02121212121213" y="554.3424242424243" type="curve" smooth="yes"/>
      <point x="193.8878787878788" y="554.3424242424243"/>
      <point x="235.68787878787882" y="589.7484848484848"/>
      <point x="306.03636363636366" y="655.6151515151515" type="curve"/>
      <point x="308.43939393939394" y="655.6151515151515" type="line"/>
      <point x="298.7666666666667" y="619.2242424242424"/>
      <point x="285.95454545454544" y="565.1545454545454"/>
      <point x="268.6242424242424" y="482.3333333333333" type="curve" smooth="yes"/>
      <point x="187.7878787878788" y="101.84545454545456" type="line" smooth="yes"/>
      <point x="174.37575757575758" y="38.372727272727275"/>
      <point x="152.24242424242422" y="31.8"/>
      <point x="105.51212121212122" y="31.8" type="curve" smooth="yes"/>
      <point x="45.97878787878788" y="31.8" type="line"/>
    </contour>
  </outline>
</glyph>
<glyph name="two" format="2">
  <advance width="503.0818181818181"/>
  <unicode hex="0032"/>
  <outline>
    <contour>
      <point x="-7.8606060606060595" y="0.0" type="line"/>
      <point x="374.6575757575757" y="0.0" type="line"/>
      <point x="408.93636363636364" y="146.86363636363637" type="line"/>
      <point x="377.7363636363636" y="146.86363636363637" type="line"/>
      <point x="369.8757575757576" y="122.51818181818182" type="line" smooth="yes"/>
      <point x="354.10606060606057" y="76.27575757575757"/>
      <point x="341.1909090909091" y="54.199999999999996"/>
      <point x="284.53030303030306" y="54.199999999999996" type="curve" smooth="yes"/>
      <point x="56.52121212121212" y="54.199999999999996" type="line"/>
      <point x="272.8181818181818" y="265.4878787878788" type="line" smooth="yes"/>
      <point x="405.19393939393944" y="392.2363636363636"/>
      <point x="464.669696969697" y="475.45757575757574"/>
      <point x="464.669696969697" y="577.4303030303031" type="curve" smooth="yes"/>
      <point x="464.669696969697" y="666.7484848484848"/>
      <point x="406.43636363636364" y="724.0"/>
      <point x="299.25757575757575" y="724.0" type="curve" smooth="yes"/>
      <point x="178.36969696969695" y="724.0"/>
      <point x="111.11818181818181" y="651.4909090909091"/>
      <point x="111.11818181818181" y="587.6454545454545" type="curve" smooth="yes"/>
      <point x="111.11818181818181" y="555.2939393939395"/>
      <point x="131.55151515151516" y="541.8606060606061"/>
      <point x="160.4090909090909" y="541.8606060606061" type="curve"/>
      <point x="167.1" y="620.6121212121212"/>
      <point x="212.62424242424242" y="685.7636363636364"/>
      <point x="295.7969696969697" y="685.7636363636364" type="curve" smooth="yes"/>
      <point x="360.3939393939394" y="685.7636363636364"/>
      <point x="398.1060606060606" y="641.7272727272727"/>
      <point x="398.1060606060606" y="574.769696969697" type="curve" smooth="yes"/>
      <point x="398.1060606060606" y="482.969696969697"/>
      <point x="360.62121212121207" y="407.04242424242426"/>
      <point x="234.08484848484846" y="282.369696969697" type="curve" smooth="yes"/>
      <point x="7.084848484848486" y="59.157575757575756" type="line"/>
    </contour>
  </outline>
</glyph>
<glyph name="three" format="2">
  <advance width="503.0818181818181"/>
  <unicode hex="0033"/>
  <outline>
    <contour>
      <point x="173.11515151515152" y="-10.0" type="curve" smooth="yes"/>
      <point x="295.87575757575763" y="-10.0"/>
      <point x="414.1333333333334" y="57.766666666666666"/>
      <point x="414.1333333333334" y="226.93333333333334" type="curve" smooth="yes"/>
      <point x="414.1333333333334" y="310.9757575757576"/>
      <point x="358.5848484848485" y="365.830303030303"/>
      <point x="286.3030303030303" y="375.1454545454545" type="curve"/>
      <point x="407.4484848484849" y="396.5121212121212"/>
      <point x="466.9666666666667" y="483.16363636363633"/>
      <point x="466.9666666666667" y="579.8212121212122" type="curve" smooth="yes"/>
      <point x="466.9666666666667" y="669.0212121212122"/>
      <point x="400.9606060606061" y="724.0"/>
      <point x="306.3" y="724.0" type="curve" smooth="yes"/>
      <point x="196.85757575757575" y="724.0"/>
      <point x="116.22727272727273" y="661.2575757575759"/>
      <point x="116.22727272727273" y="579.7272727272727" type="curve" smooth="yes"/>
      <point x="116.22727272727273" y="544.5121212121212"/>
      <point x="138.62424242424242" y="531.730303030303"/>
      <point x="166.27575757575758" y="531.730303030303" type="curve"/>
      <point x="175.54848484848486" y="613.2939393939395"/>
      <point x="208.70000000000002" y="685.7636363636364"/>
      <point x="302.69696969696975" y="685.7636363636364" type="curve" smooth="yes"/>
      <point x="365.4818181818182" y="685.7636363636364"/>
      <point x="400.2575757575757" y="641.9484848484848"/>
      <point x="400.2575757575757" y="580.0242424242425" type="curve" smooth="yes"/>
      <point x="400.2575757575757" y="463.1848484848485"/>
      <point x="318.03333333333336" y="392.27272727272725"/>
      <point x="212.67878787878786" y="392.27272727272725" type="curve" smooth="yes"/>
      <point x="182.87878787878785" y="392.27272727272725" type="line"/>
      <point x="173.9878787878788" y="353.29090909090905" type="line"/>
      <point x="212.6121212121212" y="353.29090909090905" type="line" smooth="yes"/>
      <point x="296.3272727272727" y="353.29090909090905"/>
      <point x="346.3333333333333" y="299.0818181818182"/>
      <point x="346.3333333333333" y="221.64545454545456" type="curve" smooth="yes"/>
      <point x="346.3333333333333" y="93.94242424242424"/>
      <point x="272.1363636363636" y="30.96363636363636"/>
      <point x="178.24242424242425" y="30.96363636363636" type="curve" smooth="yes"/>
      <point x="88.51515151515152" y="30.96363636363636"/>
      <point x="54.27272727272727" y="86.81515151515153"/>
      <point x="54.872727272727275" y="152.44545454545457" type="curve"/>
      <point x="25.6030303030303" y="152.44545454545457"/>
      <point x="2.887878787878787" y="133.24242424242425"/>
      <point x="2.887878787878787" y="99.9090909090909" type="curve" smooth="yes"/>
      <point x="2.887878787878787" y="44.36969696969697"/>
      <point x="48.93030303030302" y="-10.0"/>
    </contour>
  </outline>
</glyph>
<glyph name="four" format="2">
  <advance width="503.0818181818181"/>
  <unicode hex="0034"/>
  <outline>
    <contour>
      <point x="117.92424242424244" y="0.0" type="line"/>
      <point x="406.9818181818182" y="0.0" type="line"/>
      <point x="414.3636363636364" y="31.8" type="line"/>
      <point x="377.5909090909091" y="31.8" type="line" smooth="yes"/>
      <point x="338.88181818181823" y="31.8"/>
      <point x="321.19090909090914" y="37.10303030303031"/>
      <point x="321.19090909090914" y="65.98787878787878" type="curve" smooth="yes"/>
      <point x="321.19090909090914" y="73.52121212121213"/>
      <point x="323.35757575757583" y="87.72121212121212"/>
      <point x="325.81212121212127" y="98.78181818181818" type="curve" smooth="yes"/>
      <point x="455.91818181818184" y="714.0" type="line"/>
      <point x="390.3484848484849" y="714.0" type="line"/>
      <point x="8.175757575757576" y="233.9060606060606" type="line"/>
      <point x="1.4484848484848492" y="204.9818181818182" type="line"/>
      <point x="465.49696969696976" y="204.9818181818182" type="line"/>
      <point x="474.98181818181814" y="245.69090909090912" type="line"/>
      <point x="44.939393939393945" y="245.69090909090912" type="line"/>
      <point x="53.12121212121212" y="229.5848484848485" type="line"/>
      <point x="306.89696969696973" y="548.8606060606061" type="line" smooth="yes"/>
      <point x="330.07272727272726" y="577.730303030303"/>
      <point x="368.20909090909095" y="627.9818181818181"/>
      <point x="384.93939393939394" y="655.7181818181818" type="curve"/>
      <point x="368.38181818181823" y="598.8848484848486"/>
      <point x="353.59696969696967" y="534.8878787878789"/>
      <point x="340.4" y="472.1878787878788" type="curve" smooth="yes"/>
      <point x="262.8666666666667" y="101.16363636363637" type="line" smooth="yes"/>
      <point x="250.15454545454543" y="39.60303030303031"/>
      <point x="227.63030303030303" y="31.8"/>
      <point x="181.82727272727274" y="31.8" type="curve" smooth="yes"/>
      <point x="124.56060606060606" y="31.8" type="line"/>
    </contour>
  </outline>
</glyph>
<glyph name="five" format="2">
  <advance width="503.0818181818181"/>
  <unicode hex="0035"/>
  <outline>
    <contour>
      <point x="174.18484848484846" y="-10.0" type="curve" smooth="yes"/>
      <point x="328.41515151515154" y="-10.0"/>
      <point x="421.10606060606057" y="100.65757575757576"/>
      <point x="421.10606060606057" y="244.27272727272728" type="curve" smooth="yes"/>
      <point x="421.10606060606057" y="359.6303030303031"/>
      <point x="349.8" y="422.9969696969697"/>
      <point x="240.65454545454546" y="422.9969696969697" type="curve" smooth="yes"/>
      <point x="201.6818181818182" y="422.9969696969697"/>
      <point x="172.8181818181818" y="414.1969696969697"/>
      <point x="153.72727272727272" y="407.1969696969697" type="curve"/>
      <point x="227.52727272727273" y="659.6" type="line"/>
      <point x="397.4727272727273" y="659.6" type="line" smooth="yes"/>
      <point x="431.06969696969696" y="659.6"/>
      <point x="437.9878787878788" y="651.9818181818182"/>
      <point x="437.9878787878788" y="637.0757575757576" type="curve" smooth="yes"/>
      <point x="437.9878787878788" y="629.809090909091"/>
      <point x="435.6212121212121" y="608.3515151515153"/>
      <point x="432.8909090909091" y="582.769696969697" type="curve"/>
      <point x="464.09090909090907" y="582.769696969697" type="line"/>
      <point x="490.5818181818181" y="714.0" type="line"/>
      <point x="204.78484848484848" y="714.0" type="line"/>
      <point x="102.52424242424242" y="368.7181818181818" type="line"/>
      <point x="125.21515151515152" y="360.03333333333336" type="line"/>
      <point x="153.16666666666669" y="371.53333333333336"/>
      <point x="178.56060606060606" y="382.03333333333336"/>
      <point x="227.34545454545454" y="382.03333333333336" type="curve" smooth="yes"/>
      <point x="302.89696969696973" y="382.03333333333336"/>
      <point x="353.8515151515152" y="331.8878787878788"/>
      <point x="353.8515151515152" y="240.25454545454548" type="curve" smooth="yes"/>
      <point x="353.8515151515152" y="105.43636363636364"/>
      <point x="279.52727272727276" y="30.96363636363636"/>
      <point x="179.8060606060606" y="30.96363636363636" type="curve" smooth="yes"/>
      <point x="96.63636363636364" y="30.96363636363636"/>
      <point x="68.05151515151515" y="89.08181818181819"/>
      <point x="67.78484848484848" y="149.88181818181818" type="curve"/>
      <point x="32.22727272727273" y="149.88181818181818"/>
      <point x="16.97878787878788" y="130.43333333333334"/>
      <point x="16.97878787878788" y="101.5909090909091" type="curve" smooth="yes"/>
      <point x="16.97878787878788" y="49.05454545454545"/>
      <point x="59.85151515151514" y="-10.0"/>
    </contour>
  </outline>
</glyph>
<glyph name="six" format="2">
  <advance width="503.0818181818181"/>
  <unicode hex="0036"/>
  <outline>
    <contour>
      <point x="226.20909090909092" y="-10.0" type="curve" smooth="yes"/>
      <point x="370.45757575757574" y="-10.0"/>
      <point x="443.1121212121212" y="121.25757575757576"/>
      <point x="443.1121212121212" y="262.1242424242424" type="curve" smooth="yes"/>
      <point x="443.1121212121212" y="354.1818181818182"/>
      <point x="394.06060606060606" y="431.07272727272726"/>
      <point x="291.06363636363636" y="431.07272727272726" type="curve" smooth="yes"/>
      <point x="228.17878787878792" y="431.07272727272726"/>
      <point x="176.69696969696972" y="401.3"/>
      <point x="145.12121212121212" y="374.95151515151514" type="curve"/>
      <point x="186.0060606060606" y="566.7424242424242"/>
      <point x="273.87575757575763" y="686.6545454545455"/>
      <point x="374.1545454545454" y="686.6545454545455" type="curve" smooth="yes"/>
      <point x="435.8393939393939" y="686.6545454545455"/>
      <point x="449.08787878787876" y="634.3424242424243"/>
      <point x="448.4878787878788" y="574.4333333333334" type="curve"/>
      <point x="486.4121212121212" y="574.4333333333334"/>
      <point x="506.84848484848476" y="596.5121212121212"/>
      <point x="506.84848484848476" y="628.0030303030303" type="curve" smooth="yes"/>
      <point x="506.84848484848476" y="676.6454545454545"/>
      <point x="463.5060606060606" y="724.0"/>
      <point x="378.93939393939394" y="724.0" type="curve" smooth="yes"/>
      <point x="195.26363636363638" y="724.0"/>
      <point x="63.21212121212121" y="484.41515151515154"/>
      <point x="63.21212121212121" y="219.3969696969697" type="curve" smooth="yes"/>
      <point x="63.21212121212121" y="60.45757575757576"/>
      <point x="133.23030303030305" y="-10.0"/>
    </contour>
    <contour>
      <point x="230.33636363636361" y="30.563636363636366" type="curve" smooth="yes"/>
      <point x="165.27272727272728" y="30.563636363636366"/>
      <point x="124.37575757575758" y="88.04848484848485"/>
      <point x="124.37575757575758" y="201.94848484848487" type="curve" smooth="yes"/>
      <point x="124.37575757575758" y="238.7121212121212"/>
      <point x="127.52424242424243" y="278.01818181818186"/>
      <point x="136.80303030303028" y="328.6818181818182" type="curve"/>
      <point x="174.5363636363636" y="364.06060606060606"/>
      <point x="226.5181818181818" y="392.29090909090905"/>
      <point x="278.75454545454545" y="392.29090909090905" type="curve" smooth="yes"/>
      <point x="341.2" y="392.29090909090905"/>
      <point x="378.58484848484846" y="341.8363636363636"/>
      <point x="378.58484848484846" y="259.10909090909087" type="curve" smooth="yes"/>
      <point x="378.58484848484846" y="135.15757575757576"/>
      <point x="319.8939393939394" y="30.563636363636366"/>
    </contour>
  </outline>
</glyph>
<glyph name="seven" format="2">
  <advance width="503.0818181818181"/>
  <unicode hex="0037"/>
  <outline>
    <contour>
      <point x="111.4969696969697" y="0.0" type="line"/>
      <point x="163.55454545454546" y="0.0" type="line"/>
      <point x="524.7151515151514" y="691.1484848484848" type="line"/>
      <point x="529.5606060606061" y="714.0" type="line"/>
      <point x="137.2030303030303" y="714.0" type="line"/>
      <point x="96.85454545454546" y="552.9636363636364" type="line"/>
      <point x="128.05454545454543" y="552.9636363636364" type="line"/>
      <point x="144.4151515151515" y="610.1909090909091" type="line" smooth="yes"/>
      <point x="155.3090909090909" y="648.0848484848485"/>
      <point x="169.35151515151514" y="659.8000000000001"/>
      <point x="206.25454545454548" y="659.8000000000001" type="curve" smooth="yes"/>
      <point x="462.2787878787879" y="659.8000000000001" type="line"/>
    </contour>
  </outline>
</glyph>
<glyph name="eight" format="2">
  <advance width="503.0818181818181"/>
  <unicode hex="0038"/>
  <outline>
    <contour>
      <point x="215.45757575757577" y="-10.0" type="curve" smooth="yes"/>
      <point x="337.3393939393939" y="-10.0"/>
      <point x="439.4818181818182" y="56.78484848484849"/>
      <point x="439.4818181818182" y="198.16363636363639" type="curve" smooth="yes"/>
      <point x="439.4818181818182" y="279.55454545454546"/>
      <point x="394.3878787878788" y="333.5969696969697"/>
      <point x="313.5969696969697" y="378.76969696969695" type="curve"/>
      <point x="420.6090909090909" y="422.0969696969697"/>
      <point x="490.3666666666667" y="478.1"/>
      <point x="490.3666666666667" y="580.5333333333334" type="curve" smooth="yes"/>
      <point x="490.3666666666667" y="661.7363636363636"/>
      <point x="431.28484848484845" y="724.0"/>
      <point x="323.58181818181816" y="724.0" type="curve" smooth="yes"/>
      <point x="179.1787878787879" y="724.0"/>
      <point x="113.16969696969697" y="636.1454545454544"/>
      <point x="113.16969696969697" y="535.8363636363637" type="curve" smooth="yes"/>
      <point x="113.16969696969697" y="470.21212121212125"/>
      <point x="146.36969696969697" y="416.25454545454545"/>
      <point x="211.54545454545453" y="372.0151515151515" type="curve"/>
      <point x="100.11818181818182" y="328.4818181818182"/>
      <point x="16.775757575757577" y="268.55454545454546"/>
      <point x="16.775757575757577" y="155.0878787878788" type="curve" smooth="yes"/>
      <point x="16.775757575757577" y="59.63636363636363"/>
      <point x="87.66363636363636" y="-10.0"/>
    </contour>
    <contour>
      <point x="216.6939393939394" y="27.890909090909094" type="curve" smooth="yes"/>
      <point x="128.12121212121212" y="27.890909090909094"/>
      <point x="79.46666666666667" y="78.88181818181819"/>
      <point x="79.46666666666667" y="154.88484848484848" type="curve" smooth="yes"/>
      <point x="79.46666666666667" y="253.1727272727273"/>
      <point x="150.4060606060606" y="315.77272727272725"/>
      <point x="246.1878787878788" y="351.41515151515154" type="curve"/>
      <point x="336.24545454545455" y="304.330303030303"/>
      <point x="376.93636363636364" y="261.66666666666663"/>
      <point x="376.93636363636364" y="184.16363636363639" type="curve" smooth="yes"/>
      <point x="376.93636363636364" y="81.56969696969696"/>
      <point x="306.5212121212121" y="27.890909090909094"/>
    </contour>
    <contour>
      <point x="278.0636363636364" y="398.6787878787879" type="curve"/>
      <point x="205.17272727272726" y="440.4030303030303"/>
      <point x="176.46060606060607" y="482.42424242424244"/>
      <point x="176.46060606060607" y="542.2363636363635" type="curve" smooth="yes"/>
      <point x="176.46060606060607" y="624.1121212121211"/>
      <point x="232.4878787878788" y="685.5636363636364"/>
      <point x="319.53030303030306" y="685.5636363636364" type="curve" smooth="yes"/>
      <point x="395.89393939393943" y="685.5636363636364"/>
      <point x="431.0939393939394" y="637.3757575757576"/>
      <point x="431.0939393939394" y="576.9151515151515" type="curve" smooth="yes"/>
      <point x="431.0939393939394" y="497.9242424242424"/>
      <point x="387.76666666666665" y="443.73333333333335"/>
    </contour>
  </outline>
</glyph>
<glyph name="nine" format="2">
  <advance width="503.0818181818181"/>
  <unicode hex="0039"/>
  <outline>
    <contour>
      <point x="170.5666666666667" y="-10.0" type="curve" smooth="yes"/>
      <point x="376.2848484848485" y="-10.0"/>
      <point x="473.55151515151516" y="311.8333333333333"/>
      <point x="473.55151515151516" y="525.7151515151515" type="curve" smooth="yes"/>
      <point x="473.55151515151516" y="655.9636363636363"/>
      <point x="407.26363636363635" y="724.0"/>
      <point x="310.6090909090909" y="724.0" type="curve" smooth="yes"/>
      <point x="180.95151515151517" y="724.0"/>
      <point x="79.30303030303031" y="610.3909090909091"/>
      <point x="79.30303030303031" y="445.390909090909" type="curve" smooth="yes"/>
      <point x="79.30303030303031" y="351.09090909090907"/>
      <point x="133.54545454545453" y="280.1515151515151"/>
      <point x="233.75454545454545" y="280.1515151515151" type="curve" smooth="yes"/>
      <point x="299.28787878787875" y="280.1515151515151"/>
      <point x="355.3393939393939" y="316.40909090909093"/>
      <point x="387.74545454545455" y="352.04545454545456" type="curve"/>
      <point x="346.1454545454546" y="157.12121212121212"/>
      <point x="272.3151515151515" y="27.890909090909094"/>
      <point x="175.69696969696972" y="27.890909090909094" type="curve" smooth="yes"/>
      <point x="108.28787878787878" y="27.890909090909094"/>
      <point x="87.54242424242425" y="75.88484848484848"/>
      <point x="87.5969696969697" y="131.60606060606062" type="curve"/>
      <point x="58.57878787878788" y="131.60606060606062"/>
      <point x="42.90909090909091" y="111.31515151515153"/>
      <point x="42.90909090909091" y="84.04545454545455" type="curve" smooth="yes"/>
      <point x="42.90909090909091" y="39.82424242424243"/>
      <point x="71.9909090909091" y="-10.0"/>
    </contour>
    <contour>
      <point x="247.79090909090908" y="320.9151515151515" type="curve" smooth="yes"/>
      <point x="182.49393939393937" y="320.9151515151515"/>
      <point x="144.37575757575758" y="370.6515151515152"/>
      <point x="144.37575757575758" y="443.9212121212121" type="curve" smooth="yes"/>
      <point x="144.37575757575758" y="571.4060606060606"/>
      <point x="211.6939393939394" y="683.4363636363637"/>
      <point x="308.2060606060606" y="683.4363636363637" type="curve" smooth="yes"/>
      <point x="366.8575757575757" y="683.4363636363637"/>
      <point x="412.0969696969697" y="636.2939393939395"/>
      <point x="412.0969696969697" y="528.0212121212122" type="curve" smooth="yes"/>
      <point x="412.0969696969697" y="498.6454545454546"/>
      <point x="407.29090909090905" y="449.3848484848485"/>
      <point x="399.28787878787875" y="408.8" type="curve"/>
      <point x="367.6848484848485" y="367.28181818181815"/>
      <point x="312.8515151515152" y="320.9151515151515"/>
    </contour>
  </outline>
</glyph>
<glyph name="colon" format="2">
  <advance width="230.26969696969695"/>
  <unicode hex="003A"/>
  <outline>
    <contour>
      <point x="156.78181818181818" y="431.03939393939396" type="curve" smooth="yes"/>
      <point x="182.63636363636363" y="431.03939393939396"/>
      <point x="208.48787878787877" y="450.57272727272726"/>
      <point x="208.48787878787877" y="498.3727272727272" type="curve" smooth="yes"/>
      <point x="208.48787878787877" y="526.6545454545455"/>
      <point x="191.34242424242424" y="540.8212121212122"/>
      <point x="167.86666666666667" y="540.8212121212122" type="curve" smooth="yes"/>
      <point x="140.63030303030305" y="540.8212121212122"/>
      <point x="115.25151515151515" y="517.4030303030303"/>
      <point x="115.25151515151515" y="474.72121212121215" type="curve" smooth="yes"/>
      <point x="115.25151515151515" y="446.0060606060606"/>
      <point x="131.74242424242422" y="431.03939393939396"/>
    </contour>
    <contour>
      <point x="62.88787878787879" y="-6.803030303030304" type="curve" smooth="yes"/>
      <point x="88.74242424242424" y="-6.803030303030304"/>
      <point x="114.7939393939394" y="12.73030303030303"/>
      <point x="114.7939393939394" y="60.530303030303024" type="curve" smooth="yes"/>
      <point x="114.7939393939394" y="88.81212121212121"/>
      <point x="97.44848484848485" y="102.97878787878788"/>
      <point x="74.17272727272729" y="102.97878787878788" type="curve" smooth="yes"/>
      <point x="46.73636363636364" y="102.97878787878788"/>
      <point x="21.357575757575756" y="79.76060606060605"/>
      <point x="21.357575757575756" y="37.07878787878788" type="curve" smooth="yes"/>
      <point x="21.357575757575756" y="8.163636363636364"/>
      <point x="38.04848484848485" y="-6.803030303030304"/>
    </contour>
  </outline>
</glyph>
<glyph name="semicolon" format="2">
  <advance width="230.06969696969696"/>
  <unicode hex="003B"/>
  <outline>
    <contour>
      <point x="-26.56060606060606" y="-142.93939393939394" type="line"/>
      <point x="79.31515151515151" y="-118.22727272727273"/>
      <point x="118.53030303030303" y="-48.669696969696965"/>
      <point x="118.53030303030303" y="31.109090909090913" type="curve" smooth="yes"/>
      <point x="118.53030303030303" y="76.03636363636365"/>
      <point x="94.13030303030304" y="102.4"/>
      <point x="63.93030303030303" y="102.4" type="curve" smooth="yes"/>
      <point x="37.29393939393939" y="102.4"/>
      <point x="17.875757575757575" y="85.12727272727273"/>
      <point x="17.875757575757575" y="55.92727272727272" type="curve" smooth="yes"/>
      <point x="17.875757575757575" y="13.727272727272727"/>
      <point x="65.43939393939394" y="13.781818181818183"/>
      <point x="65.43939393939394" y="-20.70909090909091" type="curve" smooth="yes"/>
      <point x="65.43939393939394" y="-60.57575757575757"/>
      <point x="36.71818181818182" y="-94.24242424242424"/>
      <point x="-25.00909090909091" y="-110.97272727272725" type="curve"/>
    </contour>
    <contour>
      <point x="156.78181818181818" y="431.03939393939396" type="curve" smooth="yes"/>
      <point x="182.4363636363636" y="431.03939393939396"/>
      <point x="208.48787878787877" y="450.57272727272726"/>
      <point x="208.48787878787877" y="498.3727272727272" type="curve" smooth="yes"/>
      <point x="208.48787878787877" y="526.6545454545455"/>
      <point x="191.14242424242425" y="540.8212121212122"/>
      <point x="167.86666666666667" y="540.8212121212122" type="curve" smooth="yes"/>
      <point x="140.63030303030305" y="540.8212121212122"/>
      <point x="115.25151515151515" y="517.4030303030303"/>
      <point x="115.25151515151515" y="474.72121212121215" type="curve" smooth="yes"/>
      <point x="115.25151515151515" y="446.0060606060606"/>
      <point x="131.74242424242422" y="431.03939393939396"/>
    </contour>
  </outline>
</glyph>
<glyph name="equal" format="2">
  <advance width="509.8666666666667"/>
  <unicode hex="003D"/>
  <outline>
    <contour>
      <point x="64.50909090909092" y="435.43030303030304" type="line"/>
      <point x="456.1484848484849" y="435.43030303030304" type="line"/>
      <point x="456.1484848484849" y="480.1393939393939" type="line"/>
      <point x="64.50909090909092" y="480.1393939393939" type="line"/>
    </contour>
    <contour>
      <point x="64.50909090909092" y="234.02727272727273" type="line"/>
      <point x="456.1484848484849" y="234.02727272727273" type="line"/>
      <point x="456.1484848484849" y="278.73636363636365" type="line"/>
      <point x="64.50909090909092" y="278.73636363636365" type="line"/>
    </contour>
  </outline>
</glyph>
<glyph name="greater" format="2">
  <advance width="509.8666666666667"/>
  <unicode hex="003E"/>
  <outline>
    <contour>
      <point x="63.76666666666667" y="113.66969696969697" type="line"/>
      <point x="457.43333333333334" y="341.8181818181818" type="line"/>
      <point x="457.43333333333334" y="373.1818181818182" type="line"/>
      <point x="63.76666666666667" y="602.3303030303031" type="line"/>
      <point x="63.76666666666667" y="551.260606060606" type="line"/>
      <point x="395.1515151515152" y="357.0" type="line"/>
      <point x="63.76666666666667" y="164.93939393939394" type="line"/>
    </contour>
  </outline>
</glyph>
<glyph name="question" format="2">
  <advance width="438.69696969696975"/>
  <unicode hex="003F"/>
  <outline>
    <contour>
      <point x="159.51212121212123" y="186.25757575757578" type="line"/>
      <point x="198.62121212121212" y="186.25757575757578" type="line"/>
      <point x="228.97272727272727" y="318.60606060606057" type="line"/>
      <point x="362.0545454545454" y="374.24242424242425"/>
      <point x="457.6151515151515" y="447.1121212121212"/>
      <point x="457.6151515151515" y="571.5484848484848" type="curve" smooth="yes"/>
      <point x="457.6151515151515" y="669.730303030303"/>
      <point x="394.9939393939394" y="724.0"/>
      <point x="297.29090909090905" y="724.0" type="curve" smooth="yes"/>
      <point x="183.1060606060606" y="724.0"/>
      <point x="119.75151515151514" y="656.7333333333333"/>
      <point x="119.75151515151514" y="587.1909090909091" type="curve" smooth="yes"/>
      <point x="119.75151515151514" y="559.2909090909092"/>
      <point x="136.21515151515152" y="541.7787878787879"/>
      <point x="166.82727272727274" y="541.7787878787879" type="curve"/>
      <point x="176.04242424242423" y="618.9303030303031"/>
      <point x="206.37878787878788" y="685.5636363636364"/>
      <point x="293.28484848484845" y="685.5636363636364" type="curve" smooth="yes"/>
      <point x="351.1575757575757" y="685.5636363636364"/>
      <point x="392.6333333333334" y="643.239393939394"/>
      <point x="392.6333333333334" y="573.3787878787878" type="curve" smooth="yes"/>
      <point x="392.6333333333334" y="462.9242424242424"/>
      <point x="313.2757575757576" y="394.05151515151516"/>
      <point x="187.34242424242424" y="343.95454545454544" type="curve"/>
    </contour>
    <contour>
      <point x="152.34545454545457" y="-6.803030303030304" type="curve" smooth="yes"/>
      <point x="178.4" y="-6.803030303030304"/>
      <point x="204.25151515151515" y="12.73030303030303"/>
      <point x="204.25151515151515" y="60.530303030303024" type="curve" smooth="yes"/>
      <point x="204.25151515151515" y="88.81212121212121"/>
      <point x="187.10606060606062" y="102.97878787878788"/>
      <point x="163.63030303030303" y="102.97878787878788" type="curve" smooth="yes"/>
      <point x="136.39393939393938" y="102.97878787878788"/>
      <point x="111.01515151515152" y="79.76060606060605"/>
      <point x="111.01515151515152" y="37.07878787878788" type="curve" smooth="yes"/>
      <point x="111.01515151515152" y="8.163636363636364"/>
      <point x="127.50606060606061" y="-6.803030303030304"/>
    </contour>
  </outline>
</glyph>
<glyph name="bracketleft" format="2">
  <advance width="306.3151515151515"/>
  <unicode hex="005B"/>
  <outline>
    <contour>
      <point x="-5.645454545454545" y="-128.0" type="line"/>
      <point x="175.51212121212123" y="-128.0" type="line"/>
      <point x="182.52727272727273" y="-96.19999999999999" type="line"/>
      <point x="132.15757575757576" y="-96.19999999999999" type="line" smooth="yes"/>
      <point x="92.50606060606061" y="-96.19999999999999"/>
      <point x="74.42424242424242" y="-90.94242424242424"/>
      <point x="74.42424242424242" y="-64.34545454545454" type="curve" smooth="yes"/>
      <point x="74.42424242424242" y="-56.02727272727273"/>
      <point x="76.67878787878789" y="-40.38484848484848"/>
      <point x="79.92121212121212" y="-26.218181818181822" type="curve"/>
      <point x="224.88787878787878" y="655.260606060606" type="line"/>
      <point x="238.38787878787878" y="720.5939393939394"/>
      <point x="260.91212121212124" y="728.2"/>
      <point x="308.40000000000003" y="728.2" type="curve" smooth="yes"/>
      <point x="356.8424242424243" y="728.2" type="line"/>
      <point x="364.0575757575758" y="760.0" type="line"/>
      <point x="182.9" y="760.0" type="line"/>
    </contour>
  </outline>
</glyph>
<glyph name="backslash" format="2">
  <advance width="266.43333333333334"/>
  <unicode hex="005C"/>
  <outline>
    <contour>
      <point x="155.17272727272726" y="-121.0" type="line"/>
      <point x="197.79393939393938" y="-121.0" type="line"/>
      <point x="153.93939393939394" y="760.0" type="line"/>
      <point x="111.66363636363636" y="760.0" type="line"/>
    </contour>
  </outline>
</glyph>
<glyph name="bracketright" format="2">
  <advance width="306.3151515151515"/>
  <unicode hex="005D"/>
  <outline>
    <contour>
      <point x="-45.903030303030306" y="-128.0" type="line"/>
      <point x="134.9090909090909" y="-128.0" type="line"/>
      <point x="323.25454545454545" y="760.0" type="line"/>
      <point x="142.2969696969697" y="760.0" type="line"/>
      <point x="135.08181818181816" y="728.2" type="line"/>
      <point x="185.45151515151517" y="728.2" type="line" smooth="yes"/>
      <point x="224.9030303030303" y="728.2"/>
      <point x="243.38484848484848" y="722.9424242424242"/>
      <point x="243.38484848484848" y="696.3454545454546" type="curve" smooth="yes"/>
      <point x="243.38484848484848" y="688.3272727272728"/>
      <point x="240.76363636363638" y="672.5848484848485"/>
      <point x="237.6878787878788" y="658.2181818181818" type="curve" smooth="yes"/>
      <point x="92.72121212121212" y="-23.26060606060606" type="line"/>
      <point x="79.22121212121212" y="-88.59393939393938"/>
      <point x="56.696969696969695" y="-96.19999999999999"/>
      <point x="9.754545454545454" y="-96.19999999999999" type="curve" smooth="yes"/>
      <point x="-38.68787878787879" y="-96.19999999999999" type="line"/>
    </contour>
  </outline>
</glyph>
<glyph name="asciicircum" format="2">
  <advance width="509.8666666666667"/>
  <unicode hex="005E"/>
  <outline>
    <contour>
      <point x="52.560606060606055" y="268.7606060606061" type="line"/>
      <point x="100.96363636363635" y="268.7606060606061" type="line"/>
      <point x="259.3" y="645.9757575757576" type="line"/>
      <point x="419.43636363636364" y="268.7606060606061" type="line"/>
      <point x="467.8393939393939" y="268.7606060606061" type="line"/>
      <point x="273.97272727272724" y="714.0" type="line"/>
      <point x="244.6848484848485" y="714.0" type="line"/>
    </contour>
  </outline>
</glyph>
<glyph name="underscore" format="2">
  <advance width="424.43333333333334"/>
  <unicode hex="005F"/>
  <outline>
    <contour>
      <point x="-84.53939393939393" y="-129.71212121212122" type="line"/>
      <point x="348.94848484848484" y="-129.71212121212122" type="line"/>
      <point x="358.3121212121212" y="-86.16666666666667" type="line"/>
      <point x="-75.17575757575757" y="-86.16666666666667" type="line"/>
    </contour>
  </outline>
</glyph>
<glyph name="braceleft" format="2">
  <advance width="389.08484848484846"/>
  <unicode hex="007B"/>
  <outline>
    <contour>
      <point x="207.23030303030305" y="-129.8181818181818" type="curve" smooth="yes"/>
      <point x="255.79696969696974" y="-129.8181818181818" type="line"/>
      <point x="263.1454545454546" y="-95.53333333333333" type="line"/>
      <point x="231.96060606060604" y="-95.53333333333333" type="line" smooth="yes"/>
      <point x="191.13333333333333" y="-95.53333333333333"/>
      <point x="172.72424242424245" y="-75.99393939393939"/>
      <point x="172.72424242424245" y="-34.0030303030303" type="curve" smooth="yes"/>
      <point x="172.72424242424245" y="-18.075757575757574"/>
      <point x="175.34545454545457" y="-0.8272727272727269"/>
      <point x="179.16666666666666" y="17.76969696969697" type="curve" smooth="yes"/>
      <point x="214.36060606060607" y="180.06060606060606" type="line" smooth="yes"/>
      <point x="217.5909090909091" y="195.94848484848487"/>
      <point x="220.24545454545455" y="212.0272727272727"/>
      <point x="220.24545454545455" y="227.54848484848483" type="curve" smooth="yes"/>
      <point x="220.24545454545455" y="271.8878787878788"/>
      <point x="196.73636363636362" y="303.8515151515152"/>
      <point x="146.64242424242423" y="312.9242424242424" type="curve"/>
      <point x="146.64242424242423" y="316.10303030303027" type="line"/>
      <point x="216.6" y="327.1757575757576"/>
      <point x="253.71212121212125" y="368.2393939393939"/>
      <point x="268.45454545454544" y="437.5757575757576" type="curve" smooth="yes"/>
      <point x="306.05454545454546" y="613.5848484848485" type="line" smooth="yes"/>
      <point x="323.8030303030303" y="696.339393939394"/>
      <point x="348.48484848484844" y="725.3818181818182"/>
      <point x="407.8363636363636" y="725.3818181818182" type="curve" smooth="yes"/>
      <point x="433.2636363636364" y="725.3818181818182" type="line"/>
      <point x="440.81212121212127" y="760.0" type="line"/>
      <point x="395.8393939393939" y="760.0" type="line" smooth="yes"/>
      <point x="297.2030303030303" y="760.0"/>
      <point x="264.73333333333335" y="717.4484848484848"/>
      <point x="243.36060606060607" y="618.6515151515152" type="curve" smooth="yes"/>
      <point x="204.96060606060604" y="440.40909090909093" type="line" smooth="yes"/>
      <point x="187.3060606060606" y="359.57272727272726"/>
      <point x="140.16363636363636" y="336.20909090909095"/>
      <point x="71.94545454545455" y="332.8" type="curve"/>
      <point x="64.76363636363637" y="299.0939393939394" type="line"/>
      <point x="124.28484848484847" y="296.3515151515152"/>
      <point x="155.66060606060606" y="277.1545454545454"/>
      <point x="155.66060606060606" y="226.84848484848487" type="curve" smooth="yes"/>
      <point x="155.66060606060606" y="212.90303030303028"/>
      <point x="153.34242424242424" y="197.34848484848484"/>
      <point x="149.76666666666665" y="181.76969696969695" type="curve" smooth="yes"/>
      <point x="115.20606060606062" y="19.242424242424242" type="line" smooth="yes"/>
      <point x="111.01818181818182" y="-0.9636363636363638"/>
      <point x="108.33030303030303" y="-18.024242424242424"/>
      <point x="108.33030303030303" y="-36.130303030303025" type="curve" smooth="yes"/>
      <point x="108.33030303030303" y="-95.81212121212121"/>
      <point x="142.23030303030305" y="-129.8181818181818"/>
    </contour>
  </outline>
</glyph>
<glyph name="bar" format="2">
  <advance width="512.9333333333334"/>
  <unicode hex="007C"/>
  <outline>
    <contour>
      <point x="237.1181818181818" y="-240.0" type="line"/>
      <point x="280.77272727272725" y="-240.0" type="line"/>
      <point x="280.77272727272725" y="760.0" type="line"/>
      <point x="237.1181818181818" y="760.0" type="line"/>
    </contour>
  </outline>
</glyph>
<glyph name="braceright" format="2">
  <advance width="388.8848484848485"/>
  <unicode hex="007D"/>
  <outline>
    <contour>
      <point x="-33.77878787878788" y="-130.01818181818183" type="line"/>
      <point x="11.193939393939393" y="-130.01818181818183" type="line" smooth="yes"/>
      <point x="111.39696969696969" y="-130.01818181818183"/>
      <point x="142.9" y="-87.10000000000001"/>
      <point x="163.87272727272727" y="11.33030303030303" type="curve" smooth="yes"/>
      <point x="201.87272727272727" y="190.1181818181818" type="line" smooth="yes"/>
      <point x="218.9818181818182" y="270.95454545454544"/>
      <point x="266.869696969697" y="295.06363636363636"/>
      <point x="334.8878787878788" y="298.47272727272724" type="curve"/>
      <point x="342.26969696969695" y="332.1787878787879" type="line"/>
      <point x="282.74848484848485" y="334.9212121212121"/>
      <point x="251.17272727272726" y="353.3727272727272"/>
      <point x="251.17272727272726" y="403.87878787878793" type="curve" smooth="yes"/>
      <point x="251.17272727272726" y="418.2242424242424"/>
      <point x="253.69090909090906" y="433.1787878787879"/>
      <point x="257.2666666666667" y="448.75757575757575" type="curve" smooth="yes"/>
      <point x="292.6272727272728" y="615.1393939393939" type="line" smooth="yes"/>
      <point x="296.6151515151515" y="634.3454545454546"/>
      <point x="298.7030303030303" y="650.2060606060606"/>
      <point x="298.7030303030303" y="666.7121212121212" type="curve" smooth="yes"/>
      <point x="298.7030303030303" y="723.3939393939395"/>
      <point x="266.60303030303027" y="760.0"/>
      <point x="201.0030303030303" y="760.0" type="curve" smooth="yes"/>
      <point x="151.23636363636362" y="760.0" type="line"/>
      <point x="143.8878787878788" y="725.7151515151514" type="line"/>
      <point x="175.07272727272726" y="725.7151515151514" type="line" smooth="yes"/>
      <point x="215.89999999999998" y="725.7151515151514"/>
      <point x="234.3090909090909" y="706.5757575757576"/>
      <point x="234.3090909090909" y="665.5848484848485" type="curve" smooth="yes"/>
      <point x="234.3090909090909" y="647.6575757575758"/>
      <point x="231.6878787878788" y="630.8090909090909"/>
      <point x="227.86666666666667" y="612.2121212121211" type="curve" smooth="yes"/>
      <point x="192.6727272727273" y="450.06666666666666" type="line" smooth="yes"/>
      <point x="189.44242424242424" y="434.1787878787879"/>
      <point x="186.78787878787875" y="418.5"/>
      <point x="186.78787878787875" y="403.1787878787879" type="curve" smooth="yes"/>
      <point x="186.78787878787875" y="358.8393939393939"/>
      <point x="210.09696969696972" y="327.6212121212121"/>
      <point x="260.1909090909091" y="318.3484848484849" type="curve"/>
      <point x="260.1909090909091" y="314.96969696969694" type="line"/>
      <point x="190.43333333333334" y="303.89696969696973"/>
      <point x="153.1212121212121" y="262.28787878787875"/>
      <point x="138.37878787878785" y="193.15151515151516" type="curve" smooth="yes"/>
      <point x="100.37878787878789" y="14.996969696969696" type="line" smooth="yes"/>
      <point x="82.63030303030303" y="-66.7909090909091"/>
      <point x="59.115151515151524" y="-95.4"/>
      <point x="-0.46969696969696995" y="-95.4" type="curve" smooth="yes"/>
      <point x="-26.43030303030303" y="-95.4" type="line"/>
    </contour>
  </outline>
</glyph>
<glyph name="asciitilde" format="2">
  <advance width="509.8666666666667"/>
  <unicode hex="007E"/>
  <outline>
    <contour>
      <point x="56.578787878787885" y="272.8363636363636" type="curve"/>
      <point x="101.06363636363635" y="272.8363636363636" type="line"/>
      <point x="111.24242424242424" y="353.5727272727272"/>
      <point x="125.12424242424242" y="396.4212121212121"/>
      <point x="165.6030303030303" y="396.4212121212121" type="curve" smooth="yes"/>
      <point x="197.54242424242426" y="396.4212121212121"/>
      <point x="219.4363636363636" y="370.3727272727273"/>
      <point x="249.55151515151516" y="336.7818181818182" type="curve" smooth="yes"/>
      <point x="286.73333333333335" y="295.0363636363636"/>
      <point x="317.54545454545456" y="273.0030303030303"/>
      <point x="357.08484848484846" y="273.0030303030303" type="curve" smooth="yes"/>
      <point x="438.24242424242425" y="273.0030303030303"/>
      <point x="456.1242424242424" y="372.9606060606061"/>
      <point x="464.58787878787876" y="440.1969696969697" type="curve"/>
      <point x="419.46969696969694" y="440.1969696969697" type="line"/>
      <point x="408.8878787878788" y="366.6"/>
      <point x="396.7939393939394" y="316.94545454545454"/>
      <point x="356.6303030303031" y="316.94545454545454" type="curve" smooth="yes"/>
      <point x="329.75757575757575" y="316.94545454545454"/>
      <point x="306.5181818181818" y="339.4636363636364"/>
      <point x="275.8787878787879" y="373.0" type="curve" smooth="yes"/>
      <point x="237.15454545454548" y="413.93030303030304"/>
      <point x="208.3878787878788" y="440.3636363636364"/>
      <point x="164.80303030303028" y="440.3636363636364" type="curve" smooth="yes"/>
      <point x="81.83636363636364" y="440.3636363636364"/>
      <point x="65.84848484848484" y="345.82727272727277"/>
    </contour>
  </outline>
</glyph>
<glyph name="twosuperior" format="2">
  <advance width="364.0757575757576"/>
  <unicode hex="00B2"/>
  <outline>
    <contour>
      <point x="61.266666666666666" y="386.28787878787875" type="line"/>
      <point x="331.56363636363636" y="386.28787878787875" type="line"/>
      <point x="356.72727272727275" y="492.3696969696969" type="line"/>
      <point x="329.71515151515155" y="492.3696969696969" type="line"/>
      <point x="323.5212121212121" y="474.24848484848485" type="line" smooth="yes"/>
      <point x="312.9939393939394" y="440.44545454545454"/>
      <point x="303.6969696969697" y="427.9757575757576"/>
      <point x="266.7" y="427.9757575757576" type="curve" smooth="yes"/>
      <point x="132.9363636363636" y="427.9757575757576" type="line"/>
      <point x="239.8060606060606" y="520.4393939393939" type="line" smooth="yes"/>
      <point x="349.0757575757576" y="615.1878787878788"/>
      <point x="382.0" y="662.0242424242425"/>
      <point x="382.0" y="726.8606060606061" type="curve" smooth="yes"/>
      <point x="382.0" y="785.1575757575758"/>
      <point x="339.4757575757576" y="823.6212121212121"/>
      <point x="267.69393939393944" y="823.6212121212121" type="curve" smooth="yes"/>
      <point x="180.9030303030303" y="823.6212121212121"/>
      <point x="132.72121212121215" y="768.3818181818182"/>
      <point x="132.72121212121215" y="724.2606060606062" type="curve" smooth="yes"/>
      <point x="132.72121212121215" y="700.2636363636365"/>
      <point x="147.74848484848485" y="685.9515151515152"/>
      <point x="176.0818181818182" y="685.9515151515152" type="curve"/>
      <point x="179.9" y="740.8090909090909"/>
      <point x="209.27575757575758" y="790.6060606060606"/>
      <point x="263.50909090909096" y="790.6060606060606" type="curve" smooth="yes"/>
      <point x="304.25757575757575" y="790.6060606060606"/>
      <point x="325.2393939393939" y="764.3151515151515"/>
      <point x="325.2393939393939" y="724.5909090909091" type="curve" smooth="yes"/>
      <point x="325.2393939393939" y="662.1333333333333"/>
      <point x="297.6363636363636" y="616.9181818181818"/>
      <point x="201.43030303030307" y="530.8151515151515" type="curve" smooth="yes"/>
      <point x="66.61212121212121" y="410.7121212121212" type="line"/>
    </contour>
  </outline>
</glyph>
<glyph name="threesuperior" format="2">
  <advance width="364.0757575757576"/>
  <unicode hex="00B3"/>
  <outline>
    <contour>
      <point x="197.31212121212118" y="379.6666666666667" type="curve" smooth="yes"/>
      <point x="297.37575757575763" y="379.6666666666667"/>
      <point x="368.93030303030304" y="433.8242424242424"/>
      <point x="368.93030303030304" y="517.8181818181819" type="curve" smooth="yes"/>
      <point x="368.93030303030304" y="568.8030303030303"/>
      <point x="336.2969696969697" y="601.8363636363637"/>
      <point x="285.369696969697" y="610.5636363636364" type="curve"/>
      <point x="285.54848484848486" y="613.9212121212122" type="line"/>
      <point x="350.7878787878788" y="627.8363636363637"/>
      <point x="397.7" y="667.6727272727272"/>
      <point x="397.7" y="731.8909090909092" type="curve" smooth="yes"/>
      <point x="397.7" y="783.5666666666667"/>
      <point x="356.91212121212124" y="823.3333333333334"/>
      <point x="278.9848484848485" y="823.3333333333334" type="curve" smooth="yes"/>
      <point x="191.2030303030303" y="823.3333333333334"/>
      <point x="139.44242424242424" y="777.2212121212121"/>
      <point x="139.44242424242424" y="731.3727272727273" type="curve" smooth="yes"/>
      <point x="139.44242424242424" y="704.8606060606061"/>
      <point x="156.87878787878788" y="697.9090909090909"/>
      <point x="182.36666666666667" y="697.9090909090909" type="curve"/>
      <point x="190.64242424242425" y="752.5909090909091"/>
      <point x="220.75454545454548" y="790.1181818181818"/>
      <point x="275.9272727272728" y="790.1181818181818" type="curve" smooth="yes"/>
      <point x="314.90606060606063" y="790.1181818181818"/>
      <point x="338.66969696969693" y="768.3212121212122"/>
      <point x="338.66969696969693" y="731.4090909090909" type="curve" smooth="yes"/>
      <point x="338.66969696969693" y="670.3060606060606"/>
      <point x="289.9757575757576" y="627.3484848484848"/>
      <point x="220.03030303030306" y="627.3484848484848" type="curve" smooth="yes"/>
      <point x="187.66969696969696" y="627.3484848484848" type="line"/>
      <point x="181.03333333333333" y="593.9878787878788" type="line"/>
      <point x="211.63333333333333" y="593.9878787878788" type="line" smooth="yes"/>
      <point x="280.7848484848485" y="593.9878787878788"/>
      <point x="310.3878787878788" y="561.5060606060606"/>
      <point x="310.3878787878788" y="515.7484848484848" type="curve" smooth="yes"/>
      <point x="310.3878787878788" y="451.6545454545454"/>
      <point x="265.44545454545454" y="415.40909090909093"/>
      <point x="202.44848484848484" y="415.40909090909093" type="curve" smooth="yes"/>
      <point x="142.54848484848486" y="415.40909090909093"/>
      <point x="116.93030303030302" y="454.3454545454546"/>
      <point x="121.98181818181818" y="508.3030303030303" type="curve"/>
      <point x="96.32727272727274" y="508.3030303030303"/>
      <point x="78.71212121212122" y="489.2212121212121"/>
      <point x="78.71212121212122" y="460.4969696969697" type="curve" smooth="yes"/>
      <point x="78.71212121212122" y="411.4757575757576"/>
      <point x="121.5" y="379.6666666666667"/>
    </contour>
  </outline>
</glyph>
<glyph name="multiply" format="2">
  <advance width="509.8666666666667"/>
  <unicode hex="00D7"/>
  <outline>
    <contour>
      <point x="99.31818181818181" y="148.1848484848485" type="line"/>
      <point x="262.06666666666666" y="325.6454545454545" type="line"/>
      <point x="424.6151515151515" y="148.1848484848485" type="line"/>
      <point x="457.3151515151515" y="178.16363636363639" type="line"/>
      <point x="292.3333333333333" y="358.54545454545456" type="line"/>
      <point x="457.3151515151515" y="539.3484848484849" type="line"/>
      <point x="425.06969696969696" y="569.7939393939394" type="line"/>
      <point x="262.06666666666666" y="391.81212121212127" type="line"/>
      <point x="99.15151515151514" y="569.3606060606061" type="line"/>
      <point x="66.9060606060606" y="539.2606060606062" type="line"/>
      <point x="232.0878787878788" y="358.8909090909091" type="line"/>
      <point x="67.1939393939394" y="178.5969696969697" type="line"/>
    </contour>
  </outline>
</glyph>
<glyph name="divide" format="2">
  <advance width="509.8666666666667"/>
  <unicode hex="00F7"/>
  <outline>
    <contour>
      <point x="63.76666666666667" y="335.1848484848485" type="line"/>
      <point x="457.43333333333334" y="335.1848484848485" type="line"/>
      <point x="457.43333333333334" y="379.6939393939394" type="line"/>
      <point x="63.76666666666667" y="379.6939393939394" type="line"/>
    </contour>
    <contour>
      <point x="261.3" y="125.29090909090908" type="curve" smooth="yes"/>
      <point x="284.73939393939395" y="125.29090909090908"/>
      <point x="304.1545454545454" y="137.42727272727274"/>
      <point x="304.1545454545454" y="173.1818181818182" type="curve" smooth="yes"/>
      <point x="304.1545454545454" y="210.39090909090908"/>
      <point x="284.73939393939395" y="221.6939393939394"/>
      <point x="261.3" y="221.6939393939394" type="curve" smooth="yes"/>
      <point x="236.46060606060607" y="221.6939393939394"/>
      <point x="218.4121212121212" y="210.39090909090908"/>
      <point x="218.4121212121212" y="173.1818181818182" type="curve" smooth="yes"/>
      <point x="218.4121212121212" y="137.42727272727274"/>
      <point x="236.46060606060607" y="125.29090909090908"/>
    </contour>
    <contour>
      <point x="261.3" y="493.97272727272724" type="curve" smooth="yes"/>
      <point x="284.73939393939395" y="493.97272727272724"/>
      <point x="304.1545454545454" y="506.1090909090909"/>
      <point x="304.1545454545454" y="542.1515151515152" type="curve" smooth="yes"/>
      <point x="304.1545454545454" y="579.0727272727272"/>
      <point x="284.73939393939395" y="590.3757575757576"/>
      <point x="261.3" y="590.3757575757576" type="curve" smooth="yes"/>
      <point x="236.46060606060607" y="590.3757575757576"/>
      <point x="218.4121212121212" y="579.0727272727272"/>
      <point x="218.4121212121212" y="542.1515151515152" type="curve" smooth="yes"/>
      <point x="218.4121212121212" y="506.1090909090909"/>
      <point x="236.46060606060607" y="493.97272727272724"/>
    </contour>
  </outline>
</glyph>
<glyph name="udatta-deva" format="2">
  <unicode hex="0951"/>
  <anchor x="57.63636363636363" y="548.5454545454545" name="_vedic"/>
  <outline>
    <contour>
      <point x="114.88787878787878" y="909.8939393939395" type="line"/>
      <point x="154.8151515151515" y="909.8939393939395" type="line"/>
      <point x="194.9060606060606" y="1099.8939393939393" type="line"/>
      <point x="154.97878787878787" y="1099.8939393939393" type="line"/>
    </contour>
  </outline>
</glyph>
<glyph name="anudatta-deva" format="2">
  <unicode hex="0952"/>
  <anchor x="-59.0" y="0.0" name="_bottom"/>
  <outline>
    <contour>
      <point x="-357.5393939393939" y="-503.8818181818181" type="line"/>
      <point x="25.554545454545455" y="-503.8818181818181" type="line"/>
      <point x="35.630303030303025" y="-456.42727272727274" type="line"/>
      <point x="-347.630303030303" y="-456.42727272727274" type="line"/>
    </contour>
  </outline>
</glyph>
<glyph name="danda-deva" format="2">
  <advance width="272.55151515151516"/>
  <unicode hex="0964"/>
  <outline>
    <contour>
      <point x="46.83030303030303" y="0.0" type="line"/>
      <point x="109.28484848484848" y="0.0" type="line"/>
      <point x="226.0878787878788" y="548.5454545454545" type="line"/>
      <point x="163.26666666666665" y="548.5454545454545" type="line"/>
    </contour>
  </outline>
</glyph>
<glyph name="dbldanda-deva" format="2">
  <advance width="488.25757575757575"/>
  <unicode hex="0965"/>
  <outline>
    <contour>
      <point x="262.24848484848485" y="0.0" type="line"/>
      <point x="324.99090909090916" y="0.0" type="line"/>
      <point x="441.6272727272728" y="548.5454545454545" type="line"/>
      <point x="378.6848484848485" y="548.5454545454545" type="line"/>
    </contour>
    <contour>
      <point x="46.83030303030303" y="0.0" type="line"/>
      <point x="109.28484848484848" y="0.0" type="line"/>
      <point x="226.0878787878788" y="548.5454545454545" type="line"/>
      <point x="163.26666666666665" y="548.5454545454545" type="line"/>
    </contour>
  </outline>
</glyph>
<glyph name="anusvara-tamil" format="2">
  <unicode hex="0B82"/>
  <note>
uni0B82
</note>
  <anchor x="57.63636363636363" y="548.5454545454545" name="_top"/>
  <outline>
    <contour>
      <point x="100.03333333333333" y="640.7272727272727" type="curve" smooth="yes"/>
      <point x="161.0030303030303" y="640.7272727272727"/>
      <point x="204.4818181818182" y="683.7333333333333"/>
      <point x="204.4818181818182" y="743.9939393939394" type="curve" smooth="yes"/>
      <point x="204.4818181818182" y="804.1121212121212"/>
      <point x="161.0030303030303" y="847.4848484848485"/>
      <point x="100.03333333333333" y="847.4848484848485" type="curve" smooth="yes"/>
      <point x="39.06363636363636" y="847.4848484848485"/>
      <point x="-4.415151515151515" y="804.1121212121212"/>
      <point x="-4.415151515151515" y="743.9939393939394" type="curve" smooth="yes"/>
      <point x="-4.415151515151515" y="683.7333333333333"/>
      <point x="39.06363636363636" y="640.7272727272727"/>
    </contour>
    <contour>
      <point x="100.03333333333333" y="681.2575757575758" type="curve" smooth="yes"/>
      <point x="64.04848484848485" y="681.2575757575758"/>
      <point x="39.527272727272724" y="707.4636363636363"/>
      <point x="39.527272727272724" y="743.9939393939394" type="curve" smooth="yes"/>
      <point x="39.527272727272724" y="780.5818181818181"/>
      <point x="64.04848484848485" y="806.9545454545455"/>
      <point x="100.03333333333333" y="806.9545454545455" type="curve" smooth="yes"/>
      <point x="136.01818181818183" y="806.9545454545455"/>
      <point x="160.53939393939396" y="780.5818181818181"/>
      <point x="160.53939393939396" y="743.9939393939394" type="curve" smooth="yes"/>
      <point x="160.53939393939396" y="707.4636363636363"/>
      <point x="136.01818181818183" y="681.2575757575758"/>
    </contour>
  </outline>
</glyph>
<glyph name="visarga-tamil" format="2">
  <advance width="787.660606060606"/>
  <unicode hex="0B83"/>
  <note>
uni0B83
</note>
  <outline>
    <contour>
      <point x="150.64848484848486" y="0.0" type="curve" smooth="yes"/>
      <point x="253.22121212121212" y="0.0"/>
      <point x="330.24242424242425" y="100.78181818181818"/>
      <point x="330.4424242424243" y="224.73636363636362" type="curve" smooth="yes"/>
      <point x="330.6424242424243" y="315.5151515151515"/>
      <point x="280.24242424242425" y="365.8181818181818"/>
      <point x="205.6727272727273" y="365.8181818181818" type="curve" smooth="yes"/>
      <point x="99.10909090909091" y="365.8181818181818"/>
      <point x="32.415151515151514" y="248.74242424242428"/>
      <point x="32.415151515151514" y="139.9636363636364" type="curve" smooth="yes"/>
      <point x="32.415151515151514" y="58.45757575757576"/>
      <point x="74.12121212121212" y="0.0"/>
    </contour>
    <contour>
      <point x="148.33939393939394" y="39.54545454545455" type="curve" smooth="yes"/>
      <point x="96.13030303030304" y="39.54545454545455"/>
      <point x="70.00303030303031" y="80.7030303030303"/>
      <point x="70.00303030303031" y="142.43030303030307" type="curve" smooth="yes"/>
      <point x="70.00303030303031" y="225.86666666666667"/>
      <point x="117.5030303030303" y="327.07272727272726"/>
      <point x="197.63030303030303" y="327.07272727272726" type="curve" smooth="yes"/>
      <point x="249.45151515151514" y="327.07272727272726"/>
      <point x="279.57272727272726" y="290.8909090909091"/>
      <point x="279.57272727272726" y="228.36666666666667" type="curve" smooth="yes"/>
      <point x="279.57272727272726" y="131.81515151515154"/>
      <point x="228.86969696969697" y="39.54545454545455"/>
    </contour>
    <contour>
      <point x="534.7848484848485" y="0.0" type="curve" smooth="yes"/>
      <point x="637.3575757575758" y="0.0"/>
      <point x="714.3787878787879" y="100.78181818181818"/>
      <point x="714.5787878787879" y="224.73636363636362" type="curve" smooth="yes"/>
      <point x="714.7787878787879" y="315.5151515151515"/>
      <point x="664.3787878787879" y="365.8181818181818"/>
      <point x="589.8090909090909" y="365.8181818181818" type="curve" smooth="yes"/>
      <point x="483.24545454545455" y="365.8181818181818"/>
      <point x="416.55151515151516" y="248.74242424242428"/>
      <point x="416.55151515151516" y="139.9636363636364" type="curve" smooth="yes"/>
      <point x="416.55151515151516" y="58.45757575757576"/>
      <point x="458.25757575757575" y="0.0"/>
    </contour>
    <contour>
      <point x="532.4757575757576" y="39.54545454545455" type="curve" smooth="yes"/>
      <point x="480.26666666666665" y="39.54545454545455"/>
      <point x="454.1393939393939" y="80.7030303030303"/>
      <point x="454.1393939393939" y="142.43030303030307" type="curve" smooth="yes"/>
      <point x="454.1393939393939" y="225.86666666666667"/>
      <point x="501.6393939393939" y="327.07272727272726"/>
      <point x="581.7666666666668" y="327.07272727272726" type="curve" smooth="yes"/>
      <point x="633.5878787878788" y="327.07272727272726"/>
      <point x="663.7090909090908" y="290.8909090909091"/>
      <point x="663.7090909090908" y="228.36666666666667" type="curve" smooth="yes"/>
      <point x="663.7090909090908" y="131.81515151515154"/>
      <point x="613.0060606060606" y="39.54545454545455"/>
    </contour>
    <contour>
      <point x="424.3" y="408.3636363636364" type="curve" smooth="yes"/>
      <point x="526.8727272727273" y="408.3636363636364"/>
      <point x="603.8939393939395" y="509.1454545454546"/>
      <point x="604.0939393939394" y="633.1" type="curve" smooth="yes"/>
      <point x="604.2939393939395" y="723.8787878787879"/>
      <point x="553.8939393939395" y="774.1818181818181"/>
      <point x="479.3242424242424" y="774.1818181818181" type="curve" smooth="yes"/>
      <point x="372.7606060606061" y="774.1818181818181"/>
      <point x="306.06666666666666" y="657.1060606060606"/>
      <point x="306.06666666666666" y="548.3272727272728" type="curve" smooth="yes"/>
      <point x="306.06666666666666" y="466.8212121212121"/>
      <point x="347.77272727272725" y="408.3636363636364"/>
    </contour>
    <contour>
      <point x="421.9909090909091" y="447.90909090909093" type="curve" smooth="yes"/>
      <point x="369.7818181818182" y="447.90909090909093"/>
      <point x="343.6545454545455" y="489.06666666666666"/>
      <point x="343.6545454545455" y="550.7939393939395" type="curve" smooth="yes"/>
      <point x="343.6545454545455" y="634.230303030303"/>
      <point x="391.1545454545454" y="735.4363636363636"/>
      <point x="471.2818181818182" y="735.4363636363636" type="curve" smooth="yes"/>
      <point x="523.1030303030303" y="735.4363636363636"/>
      <point x="553.2242424242424" y="699.2545454545455"/>
      <point x="553.2242424242424" y="636.730303030303" type="curve" smooth="yes"/>
      <point x="553.2242424242424" y="540.1787878787878"/>
      <point x="502.52121212121216" y="447.90909090909093"/>
    </contour>
  </outline>
</glyph>
<glyph name="a-tamil" format="2">
  <advance width="1156.5848484848484"/>
  <unicode hex="0B85"/>
  <note>
uni0B85
</note>
  <anchor x="500.3393939393939" y="0.0" name="bottom"/>
  <anchor x="320.92121212121214" y="-106.3939393939394" name="nukta"/>
  <anchor x="619.8151515151515" y="548.5454545454545" name="top"/>
  <anchor x="620.3818181818182" y="548.5454545454545" name="vedic"/>
  <outline>
    <contour>
      <point x="897.530303030303" y="-175.13636363636363" type="line"/>
      <point x="960.2727272727273" y="-175.13636363636363" type="line"/>
      <point x="1114.2939393939394" y="549.1212121212121" type="line"/>
      <point x="1051.3848484848484" y="549.1212121212121" type="line"/>
      <point x="970.3515151515152" y="166.95454545454547" type="line"/>
      <point x="80.44848484848485" y="166.95454545454547" type="line" smooth="yes"/>
      <point x="27.509090909090904" y="166.95454545454547"/>
      <point x="-0.33333333333333326" y="136.06666666666666"/>
      <point x="-0.33333333333333326" y="88.20606060606059" type="curve" smooth="yes"/>
      <point x="-0.33333333333333326" y="3.3939393939393927"/>
      <point x="130.8272727272727" y="-105.81818181818181"/>
      <point x="335.8909090909091" y="-105.81818181818181" type="curve" smooth="yes"/>
      <point x="616.7575757575758" y="-105.81818181818181"/>
      <point x="836.439393939394" y="38.42424242424242"/>
      <point x="836.439393939394" y="308.4727272727273" type="curve" smooth="yes"/>
      <point x="836.439393939394" y="470.82727272727277"/>
      <point x="729.1848484848485" y="555.9393939393939"/>
      <point x="586.7121212121211" y="555.9393939393939" type="curve" smooth="yes"/>
      <point x="461.2484848484848" y="555.9393939393939"/>
      <point x="363.91515151515154" y="478.33333333333337"/>
      <point x="363.91515151515154" y="368.6848484848485" type="curve" smooth="yes"/>
      <point x="363.91515151515154" y="307.3272727272727"/>
      <point x="405.7151515151515" y="256.21212121212125"/>
      <point x="479.3757575757576" y="256.21212121212125" type="curve" smooth="yes"/>
      <point x="564.3939393939394" y="256.21212121212125"/>
      <point x="620.9363636363637" y="311.53333333333336"/>
      <point x="620.9363636363637" y="401.1818181818182" type="curve" smooth="yes"/>
      <point x="620.9363636363637" y="456.60606060606057"/>
      <point x="587.5060606060606" y="508.06969696969696"/>
      <point x="543.0030303030303" y="526.4484848484848" type="curve"/>
      <point x="502.7454545454545" y="523.5060606060606" type="line"/>
      <point x="544.6454545454545" y="498.8393939393939"/>
      <point x="563.7545454545456" y="453.07575757575756"/>
      <point x="563.7545454545456" y="408.6515151515151" type="curve" smooth="yes"/>
      <point x="563.7545454545456" y="343.8030303030303"/>
      <point x="530.6757575757575" y="297.03030303030306"/>
      <point x="472.44545454545454" y="297.03030303030306" type="curve" smooth="yes"/>
      <point x="431.4212121212121" y="297.03030303030306"/>
      <point x="405.53333333333336" y="328.0939393939394"/>
      <point x="405.53333333333336" y="370.9" type="curve" smooth="yes"/>
      <point x="405.53333333333336" y="454.72727272727275"/>
      <point x="479.9939393939394" y="515.5757575757575"/>
      <point x="578.7272727272727" y="515.5757575757575" type="curve" smooth="yes"/>
      <point x="690.6060606060606" y="515.5757575757575"/>
      <point x="772.0636363636363" y="439.5212121212121"/>
      <point x="772.0636363636363" y="304.93939393939394" type="curve" smooth="yes"/>
      <point x="772.0636363636363" y="69.23333333333333"/>
      <point x="579.9363636363636" y="-64.54545454545455"/>
      <point x="338.89393939393943" y="-64.54545454545455" type="curve" smooth="yes"/>
      <point x="163.91515151515154" y="-64.54545454545455"/>
      <point x="42.74242424242424" y="24.027272727272724"/>
      <point x="42.74242424242424" y="90.19393939393939" type="curve" smooth="yes"/>
      <point x="42.74242424242424" y="113.63333333333334"/>
      <point x="55.2969696969697" y="127.04545454545455"/>
      <point x="80.45757575757575" y="127.04545454545455" type="curve" smooth="yes"/>
      <point x="962.0787878787879" y="127.04545454545455" type="line"/>
    </contour>
  </outline>
</glyph>
<glyph name="aa-tamil" format="2">
  <advance width="1276.087878787879"/>
  <unicode hex="0B86"/>
  <note>
uni0B86
</note>
  <anchor x="564.4818181818182" y="0.0" name="bottom"/>
  <anchor x="318.2757575757576" y="-106.3939393939394" name="nukta"/>
  <anchor x="688.4151515151515" y="548.5454545454545" name="top"/>
  <anchor x="688.5575757575758" y="548.5454545454545" name="vedic"/>
  <outline>
    <contour>
      <point x="755.7454545454544" y="-417.669696969697" type="curve" smooth="yes"/>
      <point x="953.7787878787879" y="-417.669696969697"/>
      <point x="1172.2484848484848" y="-275.6848484848485"/>
      <point x="1172.2484848484848" y="-81.22424242424243" type="curve" smooth="yes"/>
      <point x="1172.2484848484848" y="-8.515151515151514"/>
      <point x="1132.0242424242424" y="25.0"/>
      <point x="1080.2363636363636" y="25.0" type="curve" smooth="yes"/>
      <point x="1025.190909090909" y="25.0"/>
      <point x="976.8515151515151" y="-23.184848484848487"/>
      <point x="954.3515151515151" y="-103.74545454545454" type="curve"/>
      <point x="971.1363636363637" y="-114.03636363636365" type="line"/>
      <point x="984.3878787878789" y="-57.3"/>
      <point x="1018.3060606060607" y="-30.454545454545453"/>
      <point x="1053.939393939394" y="-30.454545454545453" type="curve" smooth="yes"/>
      <point x="1085.5636363636363" y="-30.454545454545453"/>
      <point x="1107.8151515151517" y="-49.67575757575758"/>
      <point x="1107.8151515151517" y="-93.62727272727273" type="curve" smooth="yes"/>
      <point x="1107.8151515151517" y="-251.44242424242427"/>
      <point x="917.3939393939395" y="-375.7757575757576"/>
      <point x="755.239393939394" y="-375.7757575757576" type="curve" smooth="yes"/>
      <point x="666.8000000000001" y="-375.7757575757576"/>
      <point x="616.7515151515152" y="-343.1333333333333"/>
      <point x="616.7515151515152" y="-284.6818181818182" type="curve" smooth="yes"/>
      <point x="616.7515151515152" y="-232.77272727272728"/>
      <point x="659.0060606060606" y="-200.7"/>
      <point x="724.9151515151515" y="-182.68484848484846" type="curve"/>
      <point x="716.8484848484848" y="-143.02424242424243" type="line"/>
      <point x="630.190909090909" y="-166.98484848484847"/>
      <point x="573.8242424242425" y="-212.0151515151515"/>
      <point x="573.8242424242425" y="-288.8090909090909" type="curve" smooth="yes"/>
      <point x="573.8242424242425" y="-365.8090909090909"/>
      <point x="639.9666666666666" y="-417.669696969697"/>
    </contour>
    <component base="a-tamil"/>
  </outline>
</glyph>
<glyph name="i-tamil" format="2">
  <advance width="888.1484848484848"/>
  <unicode hex="0B87"/>
  <note>
uni0B87
</note>
  <anchor x="367.5393939393939" y="0.0" name="bottom"/>
  <anchor x="318.8393939393939" y="-255.42121212121216" name="nukta"/>
  <anchor x="510.1666666666667" y="805.8818181818182" name="top"/>
  <anchor x="470.35757575757583" y="548.5454545454545" name="vedic"/>
  <outline>
    <contour>
      <point x="107.41818181818181" y="-288.3636363636364" type="curve" smooth="yes"/>
      <point x="387.23636363636365" y="-288.3636363636364"/>
      <point x="672.9787878787878" y="46.27272727272727"/>
      <point x="672.9787878787878" y="340.5030303030303" type="curve" smooth="yes"/>
      <point x="672.9787878787878" y="479.7030303030303"/>
      <point x="592.0212121212122" y="555.3636363636364"/>
      <point x="465.3484848484848" y="555.3636363636364" type="curve" smooth="yes"/>
      <point x="349.37575757575763" y="555.3636363636364"/>
      <point x="257.23636363636365" y="471.6757575757576"/>
      <point x="257.23636363636365" y="365.40909090909093" type="curve" smooth="yes"/>
      <point x="257.23636363636365" y="301.28787878787875"/>
      <point x="301.3484848484849" y="256.1818181818182"/>
      <point x="367.1424242424243" y="256.1818181818182" type="curve" smooth="yes"/>
      <point x="449.23333333333335" y="256.1818181818182"/>
      <point x="507.9545454545455" y="312.9606060606061"/>
      <point x="507.9545454545455" y="399.4636363636364" type="curve" smooth="yes"/>
      <point x="507.9545454545455" y="453.3848484848485"/>
      <point x="481.98787878787886" y="504.8454545454546"/>
      <point x="433.48181818181814" y="525.1818181818181" type="curve"/>
      <point x="393.6151515151515" y="520.8727272727273" type="line"/>
      <point x="433.51212121212126" y="495.869696969697"/>
      <point x="452.17272727272723" y="456.3272727272727"/>
      <point x="452.17272727272723" y="409.27878787878785" type="curve" smooth="yes"/>
      <point x="452.17272727272723" y="348.45151515151514"/>
      <point x="417.8363636363636" y="296.59999999999997"/>
      <point x="360.56363636363636" y="296.59999999999997" type="curve" smooth="yes"/>
      <point x="324.2212121212121" y="296.59999999999997"/>
      <point x="299.1545454545454" y="325.58787878787876"/>
      <point x="299.1545454545454" y="367.8454545454545" type="curve" smooth="yes"/>
      <point x="299.1545454545454" y="448.5939393939394"/>
      <point x="365.20909090909095" y="515.0"/>
      <point x="457.10606060606057" y="515.0" type="curve" smooth="yes"/>
      <point x="553.9" y="515.0"/>
      <point x="612.0484848484848" y="451.10303030303027"/>
      <point x="612.0484848484848" y="342.91515151515154" type="curve" smooth="yes"/>
      <point x="612.0484848484848" y="73.45151515151514"/>
      <point x="364.5848484848485" y="-247.0909090909091"/>
      <point x="115.83939393939394" y="-247.0909090909091" type="curve" smooth="yes"/>
      <point x="48.412121212121214" y="-247.0909090909091"/>
      <point x="8.83030303030303" y="-211.84242424242424"/>
      <point x="8.83030303030303" y="-154.76363636363638" type="curve" smooth="yes"/>
      <point x="8.83030303030303" y="-20.60909090909091"/>
      <point x="190.4787878787879" y="67.45454545454545"/>
      <point x="363.02727272727276" y="67.45454545454545" type="curve" smooth="yes"/>
      <point x="515.3939393939395" y="67.45454545454545"/>
      <point x="670.3303030303031" y="-3.215151515151515"/>
      <point x="670.3303030303031" y="-123.50303030303031" type="curve" smooth="yes"/>
      <point x="670.3303030303031" y="-206.96666666666667"/>
      <point x="614.4242424242424" y="-247.0909090909091"/>
      <point x="526.5636363636364" y="-247.0909090909091" type="curve" smooth="yes"/>
      <point x="337.93030303030304" y="-247.0909090909091"/>
      <point x="126.13939393939394" y="22.239393939393942"/>
      <point x="126.13939393939394" y="301.4424242424243" type="curve" smooth="yes"/>
      <point x="126.13939393939394" y="545.2636363636364"/>
      <point x="252.5757575757576" y="742.9"/>
      <point x="500.7878787878788" y="742.9" type="curve" smooth="yes"/>
      <point x="722.2090909090908" y="742.9"/>
      <point x="843.1787878787878" y="583.2969696969697"/>
      <point x="789.9303030303031" y="335.0575757575757" type="curve" smooth="yes"/>
      <point x="738.569696969697" y="96.0" type="line"/>
      <point x="780.1363636363636" y="96.0" type="line"/>
      <point x="831.8636363636364" y="336.25757575757575" type="line" smooth="yes"/>
      <point x="893.730303030303" y="622.4878787878789"/>
      <point x="764.0515151515152" y="805.8818181818182"/>
      <point x="510.1666666666667" y="805.8818181818182" type="curve" smooth="yes"/>
      <point x="235.77575757575758" y="805.8818181818182"/>
      <point x="80.43636363636364" y="583.6333333333333"/>
      <point x="80.43636363636364" y="306.56363636363636" type="curve" smooth="yes"/>
      <point x="80.43636363636364" y="3.9060606060606076"/>
      <point x="306.37878787878793" y="-288.3636363636364"/>
      <point x="534.9696969696969" y="-288.3636363636364" type="curve" smooth="yes"/>
      <point x="640.2484848484848" y="-288.3636363636364"/>
      <point x="717.5787878787879" y="-233.44848484848487"/>
      <point x="717.5787878787879" y="-122.77575757575758" type="curve" smooth="yes"/>
      <point x="717.5787878787879" y="24.8030303030303"/>
      <point x="547.3636363636364" y="107.72727272727273"/>
      <point x="365.75454545454545" y="107.72727272727273" type="curve" smooth="yes"/>
      <point x="167.29090909090908" y="107.72727272727273"/>
      <point x="-39.76363636363636" y="4.554545454545456"/>
      <point x="-39.76363636363636" y="-163.43939393939394" type="curve" smooth="yes"/>
      <point x="-39.76363636363636" y="-239.26363636363638"/>
      <point x="17.87878787878788" y="-288.3636363636364"/>
    </contour>
  </outline>
</glyph>
<glyph name="ii-tamil" format="2">
  <advance width="679.6515151515152"/>
  <unicode hex="0B88"/>
  <note>
uni0B88
</note>
  <anchor x="299.8454545454545" y="0.0" name="bottom"/>
  <anchor x="300.3333333333333" y="0.0" name="nukta"/>
  <anchor x="418.90303030303033" y="548.5454545454545" name="top"/>
  <anchor x="419.1030303030303" y="548.5454545454545" name="vedic"/>
  <outline>
    <contour>
      <point x="42.778787878787874" y="0.0" type="line"/>
      <point x="85.83636363636363" y="0.0" type="line"/>
      <point x="193.65454545454548" y="508.6363636363636" type="line"/>
      <point x="447.0818181818182" y="508.6363636363636" type="line"/>
      <point x="338.4636363636364" y="0.0" type="line"/>
      <point x="401.5393939393939" y="0.0" type="line"/>
      <point x="509.3575757575758" y="508.6363636363636" type="line"/>
      <point x="682.3545454545455" y="508.6363636363636" type="line"/>
      <point x="691.1727272727272" y="548.5454545454545" type="line"/>
      <point x="159.38181818181818" y="548.5454545454545" type="line"/>
    </contour>
    <contour>
      <point x="265.51818181818186" y="219.53939393939393" type="curve" smooth="yes"/>
      <point x="290.1515151515152" y="219.53939393939393"/>
      <point x="309.75757575757575" y="239.54848484848486"/>
      <point x="309.75757575757575" y="262.6363636363636" type="curve" smooth="yes"/>
      <point x="309.75757575757575" y="285.5575757575757"/>
      <point x="290.1515151515152" y="305.75454545454545"/>
      <point x="265.51818181818186" y="305.75454545454545" type="curve" smooth="yes"/>
      <point x="240.88484848484848" y="305.75454545454545"/>
      <point x="221.56666666666666" y="285.5575757575757"/>
      <point x="221.56666666666666" y="262.6363636363636" type="curve" smooth="yes"/>
      <point x="221.56666666666666" y="239.54848484848486"/>
      <point x="240.88484848484848" y="219.53939393939393"/>
    </contour>
    <contour>
      <point x="583.0151515151514" y="219.53939393939393" type="curve" smooth="yes"/>
      <point x="607.6484848484847" y="219.53939393939393"/>
      <point x="627.2545454545455" y="239.54848484848486"/>
      <point x="627.2545454545455" y="262.6363636363636" type="curve" smooth="yes"/>
      <point x="627.2545454545455" y="285.5575757575757"/>
      <point x="607.6484848484847" y="305.75454545454545"/>
      <point x="583.0151515151514" y="305.75454545454545" type="curve" smooth="yes"/>
      <point x="558.3818181818181" y="305.75454545454545"/>
      <point x="539.0636363636363" y="285.5575757575757"/>
      <point x="539.0636363636363" y="262.6363636363636" type="curve" smooth="yes"/>
      <point x="539.0636363636363" y="239.54848484848486"/>
      <point x="558.3818181818181" y="219.53939393939393"/>
    </contour>
  </outline>
</glyph>
<glyph name="u-tamil" format="2">
  <advance width="916.969696969697"/>
  <unicode hex="0B89"/>
  <note>
uni0B89
</note>
  <anchor x="424.8393939393939" y="0.0" name="bottom"/>
  <anchor x="425.0393939393939" y="0.0" name="nukta"/>
  <anchor x="543.8757575757575" y="548.5454545454545" name="top"/>
  <anchor x="544.309090909091" y="548.5454545454545" name="vedic"/>
  <outline>
    <contour>
      <point x="92.61818181818181" y="0.0" type="curve" smooth="yes"/>
      <point x="834.1545454545454" y="0.0" type="line"/>
      <point x="842.4848484848485" y="39.90909090909091" type="line"/>
      <point x="96.13030303030303" y="39.90909090909091" type="line" smooth="yes"/>
      <point x="66.85151515151514" y="39.90909090909091"/>
      <point x="48.57878787878788" y="59.04848484848485"/>
      <point x="48.57878787878788" y="86.33333333333333" type="curve" smooth="yes"/>
      <point x="48.57878787878788" y="120.79696969696968"/>
      <point x="75.71515151515152" y="140.0"/>
      <point x="110.7909090909091" y="140.0" type="curve" smooth="yes"/>
      <point x="323.5181818181818" y="140.0" type="line" smooth="yes"/>
      <point x="478.0454545454545" y="140.0"/>
      <point x="596.1030303030302" y="218.75151515151515"/>
      <point x="596.1030303030302" y="367.3515151515152" type="curve" smooth="yes"/>
      <point x="596.1030303030302" y="494.6121212121212"/>
      <point x="499.1393939393939" y="555.3636363636364"/>
      <point x="379.4727272727273" y="555.3636363636364" type="curve" smooth="yes"/>
      <point x="257.2969696969697" y="555.3636363636364"/>
      <point x="151.23636363636362" y="475.01818181818186"/>
      <point x="151.23636363636362" y="369.3545454545454" type="curve" smooth="yes"/>
      <point x="151.23636363636362" y="309.21818181818185"/>
      <point x="189.75757575757575" y="255.63636363636363"/>
      <point x="265.8515151515151" y="255.63636363636363" type="curve" smooth="yes"/>
      <point x="347.90000000000003" y="255.63636363636363"/>
      <point x="409.16969696969693" y="308.8212121212121"/>
      <point x="409.16969696969693" y="395.0757575757576" type="curve" smooth="yes"/>
      <point x="409.16969696969693" y="454.1909090909091"/>
      <point x="378.0060606060606" y="499.890909090909"/>
      <point x="336.8212121212121" y="526.2727272727273" type="curve"/>
      <point x="297.50909090909096" y="522.3636363636364" type="line"/>
      <point x="334.58484848484846" y="488.2242424242424"/>
      <point x="352.6424242424243" y="448.8878787878788"/>
      <point x="352.6424242424243" y="401.6515151515151" type="curve" smooth="yes"/>
      <point x="352.6424242424243" y="339.44545454545454"/>
      <point x="315.0818181818182" y="296.45454545454544"/>
      <point x="259.3575757575757" y="296.45454545454544" type="curve" smooth="yes"/>
      <point x="214.12121212121215" y="296.45454545454544"/>
      <point x="192.72121212121215" y="331.6515151515151"/>
      <point x="192.72121212121215" y="372.04242424242426" type="curve" smooth="yes"/>
      <point x="192.72121212121215" y="452.45454545454544"/>
      <point x="275.72121212121215" y="515.0"/>
      <point x="370.43939393939394" y="515.0" type="curve" smooth="yes"/>
      <point x="462.57272727272726" y="515.0"/>
      <point x="533.2272727272727" y="468.79999999999995"/>
      <point x="533.2272727272727" y="366.8515151515152" type="curve" smooth="yes"/>
      <point x="533.2272727272727" y="249.1272727272727"/>
      <point x="446.60606060606057" y="179.8181818181818"/>
      <point x="321.8848484848485" y="179.8181818181818" type="curve" smooth="yes"/>
      <point x="116.32727272727273" y="179.8181818181818" type="line" smooth="yes"/>
      <point x="50.412121212121214" y="179.8181818181818"/>
      <point x="6.003030303030304" y="141.9363636363636"/>
      <point x="6.003030303030304" y="81.17272727272727" type="curve" smooth="yes"/>
      <point x="6.003030303030304" y="36.88484848484849"/>
      <point x="38.412121212121214" y="0.0"/>
    </contour>
  </outline>
</glyph>
<glyph name="uu-tamil" format="2">
  <advance width="1497.7939393939396"/>
  <unicode hex="0B8A"/>
  <note>
uni0B8A
</note>
  <anchor x="724.5696969696969" y="0.0" name="bottom"/>
  <anchor x="725.369696969697" y="0.0" name="nukta"/>
  <anchor x="844.5515151515152" y="548.5454545454545" name="top"/>
  <anchor x="844.2060606060606" y="548.5454545454545" name="vedic"/>
  <outline>
    <contour>
      <point x="92.61818181818181" y="0.0" type="curve" smooth="yes"/>
      <point x="1419.2272727272727" y="0.0" type="line"/>
      <point x="1427.5575757575757" y="39.90909090909091" type="line"/>
      <point x="96.13030303030303" y="39.90909090909091" type="line" smooth="yes"/>
      <point x="66.85151515151514" y="39.90909090909091"/>
      <point x="48.57878787878788" y="59.04848484848485"/>
      <point x="48.57878787878788" y="86.33333333333333" type="curve" smooth="yes"/>
      <point x="48.57878787878788" y="120.79696969696968"/>
      <point x="75.71515151515152" y="140.0"/>
      <point x="110.7909090909091" y="140.0" type="curve" smooth="yes"/>
      <point x="323.5181818181818" y="140.0" type="line" smooth="yes"/>
      <point x="478.0454545454545" y="140.0"/>
      <point x="596.1030303030302" y="218.75151515151515"/>
      <point x="596.1030303030302" y="367.3515151515152" type="curve" smooth="yes"/>
      <point x="596.1030303030302" y="494.6121212121212"/>
      <point x="499.1393939393939" y="555.3636363636364"/>
      <point x="379.4727272727273" y="555.3636363636364" type="curve" smooth="yes"/>
      <point x="257.2969696969697" y="555.3636363636364"/>
      <point x="151.23636363636362" y="475.01818181818186"/>
      <point x="151.23636363636362" y="369.3545454545454" type="curve" smooth="yes"/>
      <point x="151.23636363636362" y="309.21818181818185"/>
      <point x="189.75757575757575" y="255.63636363636363"/>
      <point x="265.8515151515151" y="255.63636363636363" type="curve" smooth="yes"/>
      <point x="347.90000000000003" y="255.63636363636363"/>
      <point x="409.16969696969693" y="308.8212121212121"/>
      <point x="409.16969696969693" y="395.0757575757576" type="curve" smooth="yes"/>
      <point x="409.16969696969693" y="454.1909090909091"/>
      <point x="378.0060606060606" y="499.890909090909"/>
      <point x="336.8212121212121" y="526.2727272727273" type="curve"/>
      <point x="297.50909090909096" y="522.3636363636364" type="line"/>
      <point x="334.58484848484846" y="488.2242424242424"/>
      <point x="352.6424242424243" y="448.8878787878788"/>
      <point x="352.6424242424243" y="401.6515151515151" type="curve" smooth="yes"/>
      <point x="352.6424242424243" y="339.44545454545454"/>
      <point x="315.0818181818182" y="296.45454545454544"/>
      <point x="259.3575757575757" y="296.45454545454544" type="curve" smooth="yes"/>
      <point x="214.12121212121215" y="296.45454545454544"/>
      <point x="192.72121212121215" y="331.6515151515151"/>
      <point x="192.72121212121215" y="372.04242424242426" type="curve" smooth="yes"/>
      <point x="192.72121212121215" y="452.45454545454544"/>
      <point x="275.72121212121215" y="515.0"/>
      <point x="370.43939393939394" y="515.0" type="curve" smooth="yes"/>
      <point x="462.57272727272726" y="515.0"/>
      <point x="533.2272727272727" y="468.79999999999995"/>
      <point x="533.2272727272727" y="366.8515151515152" type="curve" smooth="yes"/>
      <point x="533.2272727272727" y="249.1272727272727"/>
      <point x="446.60606060606057" y="179.8181818181818"/>
      <point x="321.8848484848485" y="179.8181818181818" type="curve" smooth="yes"/>
      <point x="116.32727272727273" y="179.8181818181818" type="line" smooth="yes"/>
      <point x="50.412121212121214" y="179.8181818181818"/>
      <point x="6.003030303030304" y="141.9363636363636"/>
      <point x="6.003030303030304" y="81.17272727272727" type="curve" smooth="yes"/>
      <point x="6.003030303030304" y="36.88484848484849"/>
      <point x="38.412121212121214" y="0.0"/>
    </contour>
    <contour>
      <point x="803.2272727272727" y="103.45454545454545" type="curve" smooth="yes"/>
      <point x="889.0484848484848" y="103.45454545454545"/>
      <point x="957.6878787878788" y="164.12727272727273"/>
      <point x="957.6878787878788" y="263.25757575757575" type="curve" smooth="yes"/>
      <point x="957.6878787878788" y="337.19696969696975"/>
      <point x="910.530303030303" y="381.6515151515151"/>
      <point x="845.1333333333333" y="381.6515151515151" type="curve" smooth="yes"/>
      <point x="774.339393939394" y="381.6515151515151"/>
      <point x="718.7818181818182" y="322.3606060606061"/>
      <point x="690.1787878787878" y="245.83030303030304" type="curve"/>
      <point x="700.218181818182" y="215.47575757575757" type="line"/>
      <point x="726.7454545454545" y="283.4060606060606"/>
      <point x="769.769696969697" y="336.09090909090907"/>
      <point x="824.4484848484848" y="336.09090909090907" type="curve" smooth="yes"/>
      <point x="870.2363636363635" y="336.09090909090907"/>
      <point x="898.0909090909091" y="305.8181818181818"/>
      <point x="898.0909090909091" y="254.93636363636364" type="curve" smooth="yes"/>
      <point x="898.0909090909091" y="190.48484848484847"/>
      <point x="855.7606060606062" y="143.72727272727272"/>
      <point x="798.4606060606061" y="143.72727272727272" type="curve" smooth="yes"/>
      <point x="740.5060606060606" y="143.72727272727272"/>
      <point x="703.6121212121212" y="195.24242424242425"/>
      <point x="703.9000000000001" y="269.2060606060606" type="curve" smooth="yes"/>
      <point x="704.1878787878788" y="393.4606060606061"/>
      <point x="790.5909090909091" y="515.0"/>
      <point x="922.730303030303" y="515.0" type="curve" smooth="yes"/>
      <point x="1028.669696969697" y="515.0"/>
      <point x="1100.5575757575757" y="438.7969696969697"/>
      <point x="1073.6060606060605" y="311.4393939393939" type="curve"/>
      <point x="1106.769696969697" y="311.8939393939394" type="line"/>
      <point x="1138.0333333333333" y="466.28787878787875"/>
      <point x="1052.9969696969695" y="555.6515151515152"/>
      <point x="921.6424242424242" y="555.3636363636364" type="curve" smooth="yes"/>
      <point x="767.1939393939394" y="555.0757575757575"/>
      <point x="661.7818181818182" y="414.3"/>
      <point x="661.7818181818182" y="267.8636363636364" type="curve" smooth="yes"/>
      <point x="661.7818181818182" y="176.27272727272728"/>
      <point x="716.8151515151515" y="103.45454545454545"/>
    </contour>
    <contour>
      <point x="1030.0454545454545" y="107.0" type="line"/>
      <point x="1091.8121212121212" y="107.0" type="line"/>
      <point x="1177.4303030303029" y="509.72727272727275" type="line"/>
      <point x="1356.169696969697" y="509.72727272727275" type="line"/>
      <point x="1270.8060606060606" y="107.0" type="line"/>
      <point x="1332.4939393939394" y="107.0" type="line"/>
      <point x="1418.0242424242424" y="509.72727272727275" type="line"/>
      <point x="1527.7242424242424" y="509.72727272727275" type="line"/>
      <point x="1535.9969696969697" y="548.5454545454545" type="line"/>
      <point x="1127.830303030303" y="548.5454545454545" type="line"/>
      <point x="1095.0878787878787" y="394.95454545454544" type="line"/>
      <point x="1088.5757575757577" y="383.22727272727275" type="line"/>
    </contour>
  </outline>
</glyph>
<glyph name="e-tamil" format="2">
  <advance width="792.6030303030303"/>
  <unicode hex="0B8E"/>
  <note>
uni0B8E
</note>
  <anchor x="361.7909090909091" y="0.0" name="bottom"/>
  <anchor x="362.7909090909091" y="0.0" name="nukta"/>
  <anchor x="480.56969696969696" y="548.5454545454545" name="top"/>
  <anchor x="481.42727272727274" y="548.5454545454545" name="vedic"/>
  <outline>
    <contour>
      <point x="208.90303030303028" y="-4.545454545454546" type="curve" smooth="yes"/>
      <point x="296.9272727272728" y="-4.545454545454546"/>
      <point x="369.8878787878788" y="59.6090909090909"/>
      <point x="369.8878787878788" y="164.26666666666668" type="curve" smooth="yes"/>
      <point x="369.8878787878788" y="240.55454545454546"/>
      <point x="321.41515151515154" y="293.90909090909093"/>
      <point x="246.15454545454543" y="293.90909090909093" type="curve" smooth="yes"/>
      <point x="160.94242424242424" y="293.90909090909093"/>
      <point x="100.42727272727272" y="225.3878787878788"/>
      <point x="73.03333333333333" y="139.0787878787879" type="curve"/>
      <point x="90.7818181818182" y="112.12121212121211" type="line"/>
      <point x="118.28787878787881" y="191.95151515151517"/>
      <point x="162.88484848484848" y="246.0"/>
      <point x="226.5090909090909" y="246.0" type="curve" smooth="yes"/>
      <point x="279.6151515151515" y="246.0"/>
      <point x="307.2" y="210.1969696969697"/>
      <point x="307.2" y="155.64545454545453" type="curve" smooth="yes"/>
      <point x="307.2" y="85.60909090909091"/>
      <point x="264.3515151515151" y="36.27272727272727"/>
      <point x="203.6121212121212" y="36.27272727272727" type="curve" smooth="yes"/>
      <point x="134.06060606060603" y="36.27272727272727"/>
      <point x="85.73939393939395" y="94.72121212121212"/>
      <point x="85.73939393939395" y="201.47272727272727" type="curve" smooth="yes"/>
      <point x="85.73939393939395" y="364.390909090909"/>
      <point x="194.13333333333333" y="508.6363636363636"/>
      <point x="392.1757575757576" y="508.6363636363636" type="curve" smooth="yes"/>
      <point x="609.5454545454545" y="508.6363636363636" type="line"/>
      <point x="501.7272727272728" y="0.0" type="line"/>
      <point x="564.1818181818181" y="0.0" type="line"/>
      <point x="672.1666666666666" y="508.6363636363636" type="line"/>
      <point x="819.8939393939394" y="508.6363636363636" type="line"/>
      <point x="828.1666666666666" y="548.5454545454545" type="line"/>
      <point x="393.54848484848486" y="548.5454545454545" type="line" smooth="yes"/>
      <point x="167.13939393939395" y="548.5454545454545"/>
      <point x="43.396969696969705" y="383.7939393939394"/>
      <point x="43.396969696969705" y="198.80303030303028" type="curve" smooth="yes"/>
      <point x="43.396969696969705" y="71.39696969696969"/>
      <point x="111.41212121212119" y="-4.545454545454546"/>
    </contour>
  </outline>
</glyph>
<glyph name="ee-tamil" format="2">
  <advance width="795.9242424242425"/>
  <unicode hex="0B8F"/>
  <note>
uni0B8F
</note>
  <anchor x="362.2454545454546" y="0.0" name="bottom"/>
  <anchor x="323.91212121212124" y="-186.2" name="nukta"/>
  <anchor x="481.96060606060604" y="548.5454545454545" name="top"/>
  <anchor x="481.8818181818182" y="548.5454545454545" name="vedic"/>
  <outline>
    <contour>
      <point x="325.1878787878788" y="-216.08787878787882" type="line"/>
      <point x="565.8727272727273" y="8.806060606060607" type="line"/>
      <point x="672.4545454545455" y="508.6363636363636" type="line"/>
      <point x="823.2151515151514" y="508.6363636363636" type="line"/>
      <point x="831.8333333333333" y="548.5454545454545" type="line"/>
      <point x="393.54848484848486" y="548.5454545454545" type="line" smooth="yes"/>
      <point x="167.13939393939395" y="548.5454545454545"/>
      <point x="43.396969696969705" y="383.7939393939394"/>
      <point x="43.396969696969705" y="198.80303030303028" type="curve" smooth="yes"/>
      <point x="43.396969696969705" y="71.39696969696969"/>
      <point x="111.12424242424242" y="-4.545454545454546"/>
      <point x="208.61515151515152" y="-4.545454545454546" type="curve" smooth="yes"/>
      <point x="296.6393939393939" y="-4.545454545454546"/>
      <point x="369.8878787878788" y="59.6090909090909"/>
      <point x="369.8878787878788" y="164.26666666666668" type="curve" smooth="yes"/>
      <point x="369.8878787878788" y="240.26666666666665"/>
      <point x="321.41515151515154" y="293.90909090909093"/>
      <point x="246.15454545454543" y="293.90909090909093" type="curve" smooth="yes"/>
      <point x="160.94242424242424" y="293.90909090909093"/>
      <point x="100.42727272727272" y="225.3878787878788"/>
      <point x="73.03333333333333" y="139.0787878787879" type="curve"/>
      <point x="90.7818181818182" y="112.12121212121211" type="line"/>
      <point x="118.28787878787881" y="191.95151515151517"/>
      <point x="162.88484848484848" y="246.0"/>
      <point x="226.5090909090909" y="246.0" type="curve" smooth="yes"/>
      <point x="279.6151515151515" y="246.0"/>
      <point x="307.2" y="210.1969696969697"/>
      <point x="307.2" y="155.64545454545453" type="curve" smooth="yes"/>
      <point x="307.2" y="85.60909090909091"/>
      <point x="264.06363636363636" y="36.27272727272727"/>
      <point x="203.3242424242424" y="36.27272727272727" type="curve" smooth="yes"/>
      <point x="133.77272727272728" y="36.27272727272727"/>
      <point x="85.73939393939395" y="94.72121212121212"/>
      <point x="85.73939393939395" y="201.47272727272727" type="curve" smooth="yes"/>
      <point x="85.73939393939395" y="364.390909090909"/>
      <point x="194.13333333333333" y="508.6363636363636"/>
      <point x="392.1757575757576" y="508.6363636363636" type="curve" smooth="yes"/>
      <point x="609.7121212121212" y="508.6363636363636" type="line"/>
      <point x="503.52727272727276" y="7.375757575757576" type="line"/>
      <point x="297.54545454545456" y="-185.2969696969697" type="line"/>
    </contour>
  </outline>
</glyph>
<glyph name="ai-tamil" format="2">
  <advance width="866.3636363636364"/>
  <unicode hex="0B90"/>
  <note>
uni0B90
</note>
  <anchor x="380.25757575757575" y="0.0" name="bottom"/>
  <anchor x="315.0" y="-287.8181818181818" name="nukta"/>
  <anchor x="502.7212121212122" y="548.5454545454545" name="top"/>
  <anchor x="501.630303030303" y="548.5454545454545" name="vedic"/>
  <outline>
    <contour>
      <point x="147.7090909090909" y="-287.8181818181818" type="curve" smooth="yes"/>
      <point x="246.67272727272726" y="-287.8181818181818"/>
      <point x="318.469696969697" y="-235.4909090909091"/>
      <point x="358.0818181818182" y="-165.8090909090909" type="curve"/>
      <point x="366.8424242424243" y="-232.88484848484848"/>
      <point x="421.5030303030303" y="-287.8181818181818"/>
      <point x="516.8363636363637" y="-287.8181818181818" type="curve" smooth="yes"/>
      <point x="648.6090909090908" y="-287.8181818181818"/>
      <point x="736.5848484848485" y="-198.7030303030303"/>
      <point x="736.5848484848485" y="-62.15757575757576" type="curve" smooth="yes"/>
      <point x="736.5848484848485" y="-11.73939393939394"/>
      <point x="722.3515151515152" y="35.53939393939394"/>
      <point x="702.4818181818182" y="75.7181818181818" type="curve"/>
      <point x="663.4272727272728" y="55.21515151515151" type="line"/>
      <point x="680.3090909090909" y="22.224242424242423"/>
      <point x="692.8242424242425" y="-21.306060606060605"/>
      <point x="692.8242424242425" y="-62.93333333333334" type="curve" smooth="yes"/>
      <point x="692.8242424242425" y="-171.2969696969697"/>
      <point x="621.5454545454545" y="-243.63636363636363"/>
      <point x="518.9545454545455" y="-243.63636363636363" type="curve" smooth="yes"/>
      <point x="423.95757575757574" y="-243.63636363636363"/>
      <point x="389.17272727272723" y="-177.87575757575758"/>
      <point x="409.4030303030303" y="-78.30909090909091" type="curve" smooth="yes"/>
      <point x="420.1333333333333" y="-26.0" type="line"/>
      <point x="358.97575757575765" y="-26.0" type="line"/>
      <point x="346.8272727272727" y="-80.81212121212121" type="line" smooth="yes"/>
      <point x="327.08787878787876" y="-169.16060606060606"/>
      <point x="255.03939393939393" y="-246.9090909090909"/>
      <point x="156.75757575757575" y="-246.9090909090909" type="curve" smooth="yes"/>
      <point x="82.91212121212122" y="-246.9090909090909"/>
      <point x="40.14545454545455" y="-202.47575757575757"/>
      <point x="40.14545454545455" y="-124.09393939393941" type="curve" smooth="yes"/>
      <point x="40.14545454545455" y="42.5"/>
      <point x="191.98484848484847" y="64.9090909090909"/>
      <point x="414.37575757575763" y="87.34242424242424" type="curve" smooth="yes"/>
      <point x="643.4666666666667" y="110.96363636363635"/>
      <point x="823.5878787878788" y="177.9090909090909"/>
      <point x="823.5878787878788" y="389.1424242424242" type="curve" smooth="yes"/>
      <point x="823.5878787878788" y="500.75454545454545"/>
      <point x="749.9060606060606" y="555.3636363636364"/>
      <point x="661.760606060606" y="555.3636363636364" type="curve" smooth="yes"/>
      <point x="575.9393939393939" y="555.3636363636364"/>
      <point x="515.6848484848485" y="504.6545454545454"/>
      <point x="478.38787878787883" y="431.6121212121212" type="curve"/>
      <point x="461.73636363636365" y="507.1212121212121"/>
      <point x="397.71515151515155" y="555.3636363636364"/>
      <point x="303.6303030303031" y="555.3636363636364" type="curve" smooth="yes"/>
      <point x="164.10606060606062" y="555.3636363636364"/>
      <point x="63.61818181818181" y="446.54242424242426"/>
      <point x="63.61818181818181" y="307.9969696969697" type="curve" smooth="yes"/>
      <point x="63.61818181818181" y="228.26666666666665"/>
      <point x="107.33939393939393" y="159.63636363636363"/>
      <point x="186.24242424242422" y="159.63636363636363" type="curve" smooth="yes"/>
      <point x="260.5545454545454" y="159.63636363636363"/>
      <point x="325.5575757575757" y="213.1818181818182"/>
      <point x="325.5575757575757" y="300.6242424242424" type="curve" smooth="yes"/>
      <point x="325.5575757575757" y="364.78181818181815"/>
      <point x="285.59999999999997" y="405.6363636363636"/>
      <point x="226.33333333333334" y="405.6363636363636" type="curve" smooth="yes"/>
      <point x="165.23636363636365" y="405.6363636363636"/>
      <point x="114.12727272727274" y="359.80909090909097"/>
      <point x="84.89696969696969" y="273.88181818181823" type="curve"/>
      <point x="97.82424242424243" y="245.10909090909092" type="line"/>
      <point x="128.0121212121212" y="325.66969696969693"/>
      <point x="163.44848484848487" y="361.20000000000005"/>
      <point x="205.45757575757577" y="361.20000000000005" type="curve" smooth="yes"/>
      <point x="243.73030303030302" y="361.20000000000005"/>
      <point x="266.41515151515154" y="336.12121212121207"/>
      <point x="266.41515151515154" y="293.9636363636364" type="curve" smooth="yes"/>
      <point x="266.41515151515154" y="242.1121212121212"/>
      <point x="233.62121212121212" y="200.9090909090909"/>
      <point x="183.1878787878788" y="200.9090909090909" type="curve" smooth="yes"/>
      <point x="133.43030303030304" y="200.9090909090909"/>
      <point x="105.10303030303031" y="244.76060606060605"/>
      <point x="105.10303030303031" y="306.41515151515154" type="curve" smooth="yes"/>
      <point x="105.10303030303031" y="416.87878787878793"/>
      <point x="182.53333333333333" y="514.5454545454545"/>
      <point x="296.8181818181818" y="514.5454545454545" type="curve" smooth="yes"/>
      <point x="400.4393939393939" y="514.5454545454545"/>
      <point x="453.40909090909093" y="445.8757575757576"/>
      <point x="430.8545454545454" y="340.53333333333336" type="curve" smooth="yes"/>
      <point x="403.5575757575757" y="211.8181818181818" type="line"/>
      <point x="464.71515151515155" y="211.8181818181818" type="line"/>
      <point x="495.2151515151515" y="360.1121212121212" type="line" smooth="yes"/>
      <point x="510.9030303030303" y="436.0242424242424"/>
      <point x="562.9969696969697" y="515.0"/>
      <point x="650.4363636363636" y="515.0" type="curve" smooth="yes"/>
      <point x="721.2909090909092" y="515.0"/>
      <point x="760.2484848484848" y="467.93030303030304"/>
      <point x="760.2484848484848" y="389.2030303030303" type="curve" smooth="yes"/>
      <point x="760.2484848484848" y="192.29393939393938"/>
      <point x="609.1666666666666" y="141.26060606060605"/>
      <point x="383.27272727272725" y="118.68484848484847" type="curve" smooth="yes"/>
      <point x="146.54242424242423" y="95.28484848484848"/>
      <point x="-22.272727272727273" y="59.87272727272727"/>
      <point x="-22.272727272727273" y="-124.0030303030303" type="curve" smooth="yes"/>
      <point x="-22.272727272727273" y="-226.3969696969697"/>
      <point x="46.7030303030303" y="-287.8181818181818"/>
    </contour>
  </outline>
</glyph>
<glyph name="oo-tamil" format="2">
  <advance width="880.9757575757576"/>
  <unicode hex="0B93"/>
  <note>
uni0B93
</note>
  <anchor x="377.2939393939394" y="0.0" name="bottom"/>
  <anchor x="314.41212121212124" y="-286.06363636363636" name="nukta"/>
  <anchor x="484.2545454545455" y="548.5454545454545" name="top"/>
  <anchor x="486.0393939393939" y="548.5454545454545" name="vedic"/>
  <outline>
    <contour>
      <point x="203.6818181818182" y="-313.7545454545454" type="curve" smooth="yes"/>
      <point x="363.4636363636364" y="-313.7545454545454"/>
      <point x="434.6242424242424" y="-133.93636363636364"/>
      <point x="592.5030303030303" y="-133.93636363636364" type="curve" smooth="yes"/>
      <point x="611.6878787878788" y="-133.93636363636364" type="line"/>
      <point x="620.1606060606061" y="-93.91818181818181" type="line"/>
      <point x="594.3090909090909" y="-93.91818181818181" type="line" smooth="yes"/>
      <point x="426.7939393939394" y="-93.91818181818181"/>
      <point x="404.45454545454544" y="84.16363636363637"/>
      <point x="527.1727272727272" y="213.0151515151515" type="curve"/>
      <point x="531.8393939393939" y="209.89393939393938" type="line"/>
      <point x="471.06969696969696" y="106.76666666666667"/>
      <point x="492.05454545454546" y="-5.0"/>
      <point x="604.7909090909092" y="-5.0" type="curve" smooth="yes"/>
      <point x="726.2121212121212" y="-5.0"/>
      <point x="815.6" y="99.85757575757576"/>
      <point x="815.6" y="246.9939393939394" type="curve" smooth="yes"/>
      <point x="815.6" y="451.6545454545454"/>
      <point x="650.6545454545455" y="555.3636363636364"/>
      <point x="454.4454545454546" y="555.3636363636364" type="curve" smooth="yes"/>
      <point x="221.24848484848485" y="555.3636363636364"/>
      <point x="41.554545454545455" y="390.72727272727275"/>
      <point x="41.554545454545455" y="201.10606060606062" type="curve" smooth="yes"/>
      <point x="41.554545454545455" y="71.36666666666667"/>
      <point x="106.97878787878788" y="-4.545454545454546"/>
      <point x="204.06969696969696" y="-4.545454545454546" type="curve" smooth="yes"/>
      <point x="292.2939393939394" y="-4.545454545454546"/>
      <point x="366.8454545454545" y="59.03333333333333"/>
      <point x="366.8454545454545" y="164.26666666666668" type="curve" smooth="yes"/>
      <point x="366.8454545454545" y="240.55454545454546"/>
      <point x="318.9727272727273" y="293.90909090909093"/>
      <point x="243.71212121212122" y="293.90909090909093" type="curve" smooth="yes"/>
      <point x="158.5" y="293.90909090909093"/>
      <point x="98.58484848484848" y="225.3878787878788"/>
      <point x="71.19090909090909" y="139.0787878787879" type="curve"/>
      <point x="88.93939393939395" y="112.12121212121211" type="line"/>
      <point x="116.44545454545454" y="191.95151515151517"/>
      <point x="160.44242424242427" y="246.0"/>
      <point x="224.06666666666666" y="246.0" type="curve" smooth="yes"/>
      <point x="277.1727272727273" y="246.0"/>
      <point x="304.1575757575758" y="210.1969696969697"/>
      <point x="304.1575757575758" y="155.64545454545453" type="curve" smooth="yes"/>
      <point x="304.1575757575758" y="85.60909090909091"/>
      <point x="259.3181818181818" y="36.27272727272727"/>
      <point x="198.77878787878785" y="36.27272727272727" type="curve" smooth="yes"/>
      <point x="129.62727272727273" y="36.27272727272727"/>
      <point x="83.89696969696969" y="94.69090909090909"/>
      <point x="83.89696969696969" y="203.77575757575758" type="curve" smooth="yes"/>
      <point x="83.89696969696969" y="368.20909090909095"/>
      <point x="244.3181818181818" y="515.0"/>
      <point x="448.2939393939394" y="515.0" type="curve" smooth="yes"/>
      <point x="617.9969696969697" y="515.0"/>
      <point x="753.8151515151516" y="419.1515151515151"/>
      <point x="753.8151515151516" y="248.86363636363637" type="curve" smooth="yes"/>
      <point x="753.8151515151516" y="136.6030303030303"/>
      <point x="696.6030303030303" y="36.27272727272727"/>
      <point x="604.3212121212122" y="36.27272727272727" type="curve" smooth="yes"/>
      <point x="509.30909090909086" y="36.27272727272727"/>
      <point x="522.7969696969697" y="160.73636363636365"/>
      <point x="594.809090909091" y="253.9818181818182" type="curve"/>
      <point x="554.290909090909" y="285.1787878787879" type="line"/>
      <point x="392.3090909090909" y="152.56969696969696"/>
      <point x="353.9909090909091" y="-48.078787878787885"/>
      <point x="502.7545454545455" y="-109.93939393939392" type="curve"/>
      <point x="501.92121212121214" y="-114.48484848484847" type="line"/>
      <point x="374.1575757575757" y="-136.24545454545452"/>
      <point x="308.4909090909091" y="-266.19393939393944"/>
      <point x="197.63636363636363" y="-266.19393939393944" type="curve" smooth="yes"/>
      <point x="146.14545454545453" y="-266.19393939393944"/>
      <point x="119.11515151515152" y="-234.8"/>
      <point x="119.11515151515152" y="-192.89393939393938" type="curve" smooth="yes"/>
      <point x="119.11515151515152" y="-147.2909090909091"/>
      <point x="151.47878787878787" y="-117.04848484848486"/>
      <point x="192.65454545454548" y="-117.04848484848486" type="curve" smooth="yes"/>
      <point x="226.21212121212125" y="-117.04848484848486"/>
      <point x="248.9818181818182" y="-135.55757575757576"/>
      <point x="255.66666666666666" y="-163.5909090909091" type="curve"/>
      <point x="279.8545454545455" y="-154.0"/>
      <point x="301.20000000000005" y="-135.35454545454547"/>
      <point x="301.20000000000005" y="-108.2939393939394" type="curve" smooth="yes"/>
      <point x="301.20000000000005" y="-75.23030303030302"/>
      <point x="265.6878787878788" y="-56.72727272727273"/>
      <point x="222.86969696969697" y="-56.72727272727273" type="curve" smooth="yes"/>
      <point x="140.64242424242423" y="-56.72727272727273"/>
      <point x="77.47272727272727" y="-118.9939393939394"/>
      <point x="77.47272727272727" y="-198.18787878787882" type="curve" smooth="yes"/>
      <point x="77.47272727272727" y="-264.6272727272728"/>
      <point x="129.48484848484847" y="-313.7545454545454"/>
    </contour>
  </outline>
</glyph>
<glyph name="ja-tamil" format="2">
  <advance width="865.1969696969696"/>
  <unicode hex="0B9C"/>
  <note>
uni0B9C
</note>
  <anchor x="381.3484848484849" y="0.0" name="bottom"/>
  <anchor x="316.09090909090907" y="-287.8181818181818" name="nukta"/>
  <anchor x="497.76363636363635" y="548.5454545454545" name="top"/>
  <anchor x="496.04242424242426" y="548.5454545454545" name="vedic"/>
  <outline>
    <contour>
      <point x="126.32424242424243" y="-287.8181818181818" type="curve" smooth="yes"/>
      <point x="316.28181818181815" y="-287.8181818181818"/>
      <point x="398.30909090909097" y="-9.163636363636364"/>
      <point x="565.7484848484847" y="-9.163636363636364" type="curve" smooth="yes"/>
      <point x="630.190909090909" y="-9.163636363636364"/>
      <point x="663.6696969696969" y="-51.06666666666666"/>
      <point x="663.6696969696969" y="-111.46363636363635" type="curve" smooth="yes"/>
      <point x="663.6696969696969" y="-191.06666666666666"/>
      <point x="612.7454545454545" y="-249.1818181818182"/>
      <point x="535.0333333333334" y="-249.1818181818182" type="curve" smooth="yes"/>
      <point x="500.8969696969697" y="-249.1818181818182"/>
      <point x="471.02121212121216" y="-238.5"/>
      <point x="442.51818181818186" y="-218.92424242424244" type="curve"/>
      <point x="420.89696969696973" y="-250.74242424242425" type="line"/>
      <point x="454.1575757575758" y="-274.4212121212121"/>
      <point x="491.11212121212117" y="-287.8181818181818"/>
      <point x="542.1909090909091" y="-287.8181818181818" type="curve" smooth="yes"/>
      <point x="642.0575757575758" y="-287.8181818181818"/>
      <point x="727.2333333333333" y="-221.0090909090909"/>
      <point x="727.2333333333333" y="-110.68787878787879" type="curve" smooth="yes"/>
      <point x="727.2333333333333" y="-17.927272727272726"/>
      <point x="667.4151515151515" y="32.0"/>
      <point x="577.6969696969697" y="32.0" type="curve" smooth="yes"/>
      <point x="378.2454545454546" y="32.0"/>
      <point x="292.109090909091" y="-247.0"/>
      <point x="137.74848484848485" y="-247.0" type="curve" smooth="yes"/>
      <point x="70.42121212121212" y="-247.0"/>
      <point x="40.46363636363636" y="-200.38181818181818"/>
      <point x="40.46363636363636" y="-128.19696969696972" type="curve" smooth="yes"/>
      <point x="40.46363636363636" y="29.072727272727274"/>
      <point x="179.64848484848486" y="61.38787878787879"/>
      <point x="409.4393939393939" y="85.56666666666666" type="curve" smooth="yes"/>
      <point x="647.2212121212121" y="110.87878787878788"/>
      <point x="824.2787878787879" y="178.6"/>
      <point x="824.2787878787879" y="389.1424242424242" type="curve" smooth="yes"/>
      <point x="824.2787878787879" y="500.75454545454545"/>
      <point x="750.5969696969697" y="555.3636363636364"/>
      <point x="662.4515151515152" y="555.3636363636364" type="curve" smooth="yes"/>
      <point x="576.630303030303" y="555.3636363636364"/>
      <point x="516.3757575757576" y="504.6545454545454"/>
      <point x="479.07878787878786" y="431.6121212121212" type="curve"/>
      <point x="462.42727272727274" y="507.1212121212121"/>
      <point x="398.4060606060606" y="555.3636363636364"/>
      <point x="304.3212121212121" y="555.3636363636364" type="curve" smooth="yes"/>
      <point x="164.7969696969697" y="555.3636363636364"/>
      <point x="64.3090909090909" y="446.54242424242426"/>
      <point x="64.3090909090909" y="307.9969696969697" type="curve" smooth="yes"/>
      <point x="64.3090909090909" y="228.26666666666665"/>
      <point x="108.03030303030302" y="159.63636363636363"/>
      <point x="186.93333333333334" y="159.63636363636363" type="curve" smooth="yes"/>
      <point x="261.2454545454546" y="159.63636363636363"/>
      <point x="326.2484848484849" y="213.1818181818182"/>
      <point x="326.2484848484849" y="300.6242424242424" type="curve" smooth="yes"/>
      <point x="326.2484848484849" y="364.78181818181815"/>
      <point x="286.2909090909091" y="405.6363636363636"/>
      <point x="227.02424242424243" y="405.6363636363636" type="curve" smooth="yes"/>
      <point x="165.9272727272727" y="405.6363636363636"/>
      <point x="114.81818181818181" y="359.80909090909097"/>
      <point x="85.58787878787878" y="273.88181818181823" type="curve"/>
      <point x="98.51515151515152" y="245.10909090909092" type="line"/>
      <point x="128.7030303030303" y="325.66969696969693"/>
      <point x="164.13939393939395" y="361.20000000000005"/>
      <point x="206.14848484848486" y="361.20000000000005" type="curve" smooth="yes"/>
      <point x="244.4212121212121" y="361.20000000000005"/>
      <point x="267.10606060606057" y="336.12121212121207"/>
      <point x="267.10606060606057" y="293.9636363636364" type="curve" smooth="yes"/>
      <point x="267.10606060606057" y="242.1121212121212"/>
      <point x="234.3121212121212" y="200.9090909090909"/>
      <point x="183.87878787878788" y="200.9090909090909" type="curve" smooth="yes"/>
      <point x="134.12121212121215" y="200.9090909090909"/>
      <point x="105.7939393939394" y="244.76060606060605"/>
      <point x="105.7939393939394" y="306.41515151515154" type="curve" smooth="yes"/>
      <point x="105.7939393939394" y="416.87878787878793"/>
      <point x="183.22424242424245" y="514.5454545454545"/>
      <point x="297.50909090909096" y="514.5454545454545" type="curve" smooth="yes"/>
      <point x="401.1303030303031" y="514.5454545454545"/>
      <point x="454.1" y="445.8757575757576"/>
      <point x="431.54545454545456" y="340.53333333333336" type="curve" smooth="yes"/>
      <point x="404.2484848484849" y="211.8181818181818" type="line"/>
      <point x="465.4060606060606" y="211.8181818181818" type="line"/>
      <point x="495.9060606060606" y="360.1121212121212" type="line" smooth="yes"/>
      <point x="511.5939393939394" y="436.0242424242424"/>
      <point x="563.6878787878788" y="515.0"/>
      <point x="651.1272727272728" y="515.0" type="curve" smooth="yes"/>
      <point x="721.9818181818181" y="515.0"/>
      <point x="760.9393939393939" y="467.93030303030304"/>
      <point x="760.9393939393939" y="389.2030303030303" type="curve" smooth="yes"/>
      <point x="760.9393939393939" y="192.98484848484847"/>
      <point x="611.7212121212123" y="140.37575757575758"/>
      <point x="380.33636363636367" y="116.9090909090909" type="curve" smooth="yes"/>
      <point x="134.20606060606062" y="91.76363636363637"/>
      <point x="-21.754545454545454" y="46.18787878787878"/>
      <point x="-21.754545454545454" y="-128.9393939393939" type="curve" smooth="yes"/>
      <point x="-21.754545454545454" y="-225.22424242424245"/>
      <point x="30.86363636363636" y="-287.8181818181818"/>
    </contour>
  </outline>
</glyph>
<glyph name="nya-tamil" format="2">
  <advance width="1126.2363636363636"/>
  <unicode hex="0B9E"/>
  <note>
uni0B9E
</note>
  <anchor x="540.3727272727273" y="0.0" name="bottom"/>
  <anchor x="963.8636363636363" y="548.5454545454545" name="imatra"/>
  <anchor x="484.55454545454546" y="-313.3666666666667" name="nukta"/>
  <anchor x="669.1454545454545" y="548.5454545454545" name="top"/>
  <anchor x="630.9454545454546" y="548.5454545454545" name="vedic"/>
  <outline>
    <contour>
      <point x="483.5545454545455" y="-313.3666666666667" type="curve" smooth="yes"/>
      <point x="805.2848484848486" y="-313.3666666666667"/>
      <point x="1049.8727272727272" y="-101.18787878787879"/>
      <point x="1049.8727272727272" y="180.38484848484848" type="curve" smooth="yes"/>
      <point x="1049.8727272727272" y="278.50909090909096"/>
      <point x="1001.5969696969696" y="337.27272727272725"/>
      <point x="921.709090909091" y="337.27272727272725" type="curve" smooth="yes"/>
      <point x="841.3575757575758" y="337.27272727272725"/>
      <point x="790.739393939394" y="275.8030303030303"/>
      <point x="771.5393939393939" y="185.45757575757574" type="curve" smooth="yes"/>
      <point x="764.7212121212121" y="153.45757575757574" type="line"/>
      <point x="785.430303030303" y="153.45757575757574" type="line"/>
      <point x="792.2484848484847" y="185.92727272727274" type="line" smooth="yes"/>
      <point x="805.3212121212122" y="245.38484848484848"/>
      <point x="838.8151515151515" y="293.38181818181823"/>
      <point x="899.4" y="293.38181818181823" type="curve" smooth="yes"/>
      <point x="953.7515151515152" y="293.38181818181823"/>
      <point x="985.0393939393939" y="253.11515151515152"/>
      <point x="985.0393939393939" y="178.99696969696973" type="curve" smooth="yes"/>
      <point x="985.0393939393939" y="-73.16363636363636"/>
      <point x="772.5181818181819" y="-272.0939393939394"/>
      <point x="484.92727272727274" y="-272.0939393939394" type="curve" smooth="yes"/>
      <point x="248.8757575757576" y="-272.0939393939394"/>
      <point x="78.25757575757576" y="-112.36060606060607"/>
      <point x="78.25757575757576" y="136.11515151515152" type="curve" smooth="yes"/>
      <point x="78.25757575757576" y="336.03030303030306"/>
      <point x="171.65151515151516" y="489.3272727272727"/>
      <point x="330.98787878787874" y="626.2484848484848" type="curve"/>
      <point x="305.5969696969697" y="656.3848484848486" type="line"/>
      <point x="138.5181818181818" y="513.2545454545455"/>
      <point x="34.6969696969697" y="346.1333333333333"/>
      <point x="34.6969696969697" y="131.64545454545453" type="curve" smooth="yes"/>
      <point x="34.6969696969697" y="-132.12121212121212"/>
      <point x="221.60606060606062" y="-313.3666666666667"/>
    </contour>
    <component base="e-tamil" xOffset="191.77878787878785"/>
  </outline>
</glyph>
<glyph name="tta-tamil" format="2">
  <advance width="792.2515151515153"/>
  <unicode hex="0B9F"/>
  <note>
uni0B9F
</note>
  <anchor x="378.2969696969697" y="0.0" name="bottom"/>
  <anchor x="378.2969696969697" y="0.0" name="nukta"/>
  <anchor x="489.95151515151525" y="548.5454545454545" name="top"/>
  <anchor x="488.9727272727273" y="548.5454545454545" name="vedic"/>
  <outline>
    <contour>
      <point x="42.778787878787874" y="0.0" type="line"/>
      <point x="715.7575757575758" y="0.0" type="line"/>
      <point x="724.3757575757576" y="39.90909090909091" type="line"/>
      <point x="113.67272727272729" y="39.90909090909091" type="line"/>
      <point x="221.6909090909091" y="548.5454545454545" type="line"/>
      <point x="159.38181818181818" y="548.5454545454545" type="line"/>
    </contour>
  </outline>
</glyph>
<glyph name="na-tamil" format="2">
  <advance width="704.2484848484848"/>
  <unicode hex="0BA8"/>
  <note>
uni0BA8
</note>
  <anchor x="292.8333333333333" y="0.0" name="bottom"/>
  <anchor x="533.8848484848486" y="548.5454545454545" name="imatra"/>
  <anchor x="265.1545454545454" y="-173.12121212121212" name="nukta"/>
  <anchor x="420.31212121212127" y="548.5454545454545" name="top"/>
  <anchor x="422.05454545454546" y="548.5454545454545" name="vedic"/>
  <outline>
    <contour>
      <point x="44.81818181818182" y="-224.55757575757576" type="curve"/>
      <point x="56.43636363636364" y="-168.75757575757575"/>
      <point x="83.64848484848486" y="-132.42121212121214"/>
      <point x="153.60606060606062" y="-132.42121212121214" type="curve" smooth="yes"/>
      <point x="284.54545454545456" y="-132.42121212121214" type="line" smooth="yes"/>
      <point x="480.6575757575758" y="-132.42121212121214"/>
      <point x="632.1181818181818" y="-11.636363636363638"/>
      <point x="632.1181818181818" y="189.9909090909091" type="curve" smooth="yes"/>
      <point x="632.1181818181818" y="282.6424242424243"/>
      <point x="586.1393939393939" y="337.27272727272725"/>
      <point x="508.0848484848485" y="337.27272727272725" type="curve" smooth="yes"/>
      <point x="449.55151515151516" y="337.27272727272725"/>
      <point x="412.97272727272724" y="301.76969696969695"/>
      <point x="392.7848484848485" y="271.72727272727275" type="curve"/>
      <point x="443.3515151515151" y="508.6363636363636" type="line"/>
      <point x="580.5393939393939" y="508.6363636363636" type="line"/>
      <point x="589.3575757575758" y="548.5454545454545" type="line"/>
      <point x="159.33636363636361" y="548.5454545454545" type="line"/>
      <point x="43.24545454545455" y="0.0" type="line"/>
      <point x="86.30303030303031" y="0.0" type="line"/>
      <point x="194.12121212121212" y="508.6363636363636" type="line"/>
      <point x="381.4090909090909" y="508.6363636363636" type="line"/>
      <point x="272.93636363636364" y="0.0" type="line"/>
      <point x="335.3333333333333" y="0.0" type="line"/>
      <point x="374.69393939393944" y="186.0757575757576" type="line" smooth="yes"/>
      <point x="385.2939393939394" y="236.6757575757576"/>
      <point x="425.90606060606063" y="292.58181818181816"/>
      <point x="484.9636363636364" y="292.58181818181816" type="curve" smooth="yes"/>
      <point x="537.1272727272727" y="292.58181818181816"/>
      <point x="566.3424242424243" y="257.05757575757576"/>
      <point x="566.3424242424243" y="188.2030303030303" type="curve" smooth="yes"/>
      <point x="566.3424242424243" y="13.321212121212119"/>
      <point x="455.41818181818184" y="-95.13939393939393"/>
      <point x="279.5939393939394" y="-95.13939393939393" type="curve" smooth="yes"/>
      <point x="129.3121212121212" y="-95.13939393939393" type="line" smooth="yes"/>
      <point x="49.42424242424243" y="-95.13939393939393"/>
      <point x="-8.90909090909091" y="-120.45151515151515"/>
      <point x="-8.90909090909091" y="-175.65454545454548" type="curve" smooth="yes"/>
      <point x="-8.90909090909091" y="-207.41818181818184"/>
      <point x="10.460606060606061" y="-224.55757575757576"/>
    </contour>
  </outline>
</glyph>
<glyph name="nnna-tamil" format="2">
  <advance width="1138.8848484848484"/>
  <unicode hex="0BA9"/>
  <note>
uni0BA9
</note>
  <anchor x="519.718181818182" y="0.0" name="bottom"/>
  <anchor x="1070.0787878787878" y="548.5454545454545" name="imatra"/>
  <anchor x="520.4606060606061" y="0.0" name="nukta"/>
  <anchor x="650.7151515151515" y="548.5454545454545" name="top"/>
  <anchor x="646.6333333333333" y="548.5454545454545" name="vedic"/>
  <outline>
    <contour>
      <point x="207.06969696969696" y="-4.545454545454546" type="curve" smooth="yes"/>
      <point x="295.0939393939394" y="-4.545454545454546"/>
      <point x="368.05454545454546" y="59.03333333333333"/>
      <point x="368.05454545454546" y="164.26666666666668" type="curve" smooth="yes"/>
      <point x="368.05454545454546" y="240.55454545454546"/>
      <point x="319.5818181818182" y="293.90909090909093"/>
      <point x="244.3212121212121" y="293.90909090909093" type="curve" smooth="yes"/>
      <point x="159.10909090909092" y="293.90909090909093"/>
      <point x="98.5939393939394" y="225.3878787878788"/>
      <point x="71.2" y="139.0787878787879" type="curve"/>
      <point x="88.94848484848485" y="112.12121212121211" type="line"/>
      <point x="116.45454545454547" y="191.95151515151517"/>
      <point x="161.05151515151513" y="246.0"/>
      <point x="224.6757575757576" y="246.0" type="curve" smooth="yes"/>
      <point x="277.7818181818182" y="246.0"/>
      <point x="305.3666666666667" y="210.1969696969697"/>
      <point x="305.3666666666667" y="155.64545454545453" type="curve" smooth="yes"/>
      <point x="305.3666666666667" y="85.60909090909091"/>
      <point x="262.5181818181818" y="36.27272727272727"/>
      <point x="201.77878787878785" y="36.27272727272727" type="curve" smooth="yes"/>
      <point x="132.22727272727272" y="36.27272727272727"/>
      <point x="83.90606060606062" y="94.72121212121212"/>
      <point x="83.90606060606062" y="201.47272727272727" type="curve" smooth="yes"/>
      <point x="83.90606060606062" y="362.10606060606057"/>
      <point x="219.06363636363636" y="515.1666666666666"/>
      <point x="402.8181818181818" y="515.1666666666666" type="curve" smooth="yes"/>
      <point x="577.1606060606061" y="515.1666666666666"/>
      <point x="687.6545454545454" y="391.8787878787879"/>
      <point x="687.6545454545454" y="226.13030303030303" type="curve" smooth="yes"/>
      <point x="687.6545454545454" y="108.5030303030303"/>
      <point x="629.5969696969697" y="37.309090909090905"/>
      <point x="559.4424242424242" y="37.309090909090905" type="curve" smooth="yes"/>
      <point x="507.60606060606057" y="37.309090909090905"/>
      <point x="482.0939393939394" y="79.60909090909091"/>
      <point x="482.0939393939394" y="157.94242424242424" type="curve" smooth="yes"/>
      <point x="482.0939393939394" y="330.75454545454545"/>
      <point x="660.8666666666667" y="508.6363636363636"/>
      <point x="856.1636363636363" y="508.6363636363636" type="curve" smooth="yes"/>
      <point x="1166.1757575757576" y="508.6363636363636" type="line"/>
      <point x="1174.7939393939394" y="548.5454545454545" type="line"/>
      <point x="862.4151515151515" y="548.5454545454545" type="line" smooth="yes"/>
      <point x="636.2030303030302" y="548.5454545454545"/>
      <point x="440.2090909090909" y="354.2969696969697"/>
      <point x="440.2090909090909" y="151.7030303030303" type="curve" smooth="yes"/>
      <point x="440.2090909090909" y="58.16363636363636"/>
      <point x="480.4939393939394" y="-5.0"/>
      <point x="566.1363636363636" y="-5.0" type="curve" smooth="yes"/>
      <point x="666.030303030303" y="-5.0"/>
      <point x="750.9090909090909" y="81.87272727272727"/>
      <point x="750.9090909090909" y="226.4060606060606" type="curve" smooth="yes"/>
      <point x="750.9090909090909" y="428.1515151515152"/>
      <point x="606.4181818181819" y="555.530303030303"/>
      <point x="407.369696969697" y="555.530303030303" type="curve" smooth="yes"/>
      <point x="196.8060606060606" y="555.530303030303"/>
      <point x="41.56363636363637" y="384.6242424242424"/>
      <point x="41.56363636363637" y="198.80303030303028" type="curve" smooth="yes"/>
      <point x="41.56363636363637" y="71.39696969696969"/>
      <point x="109.57878787878786" y="-4.545454545454546"/>
    </contour>
    <contour>
      <point x="849.9484848484848" y="0.0" type="line"/>
      <point x="912.0818181818182" y="0.0" type="line"/>
      <point x="1024.7151515151515" y="528.5454545454545" type="line"/>
      <point x="962.4606060606061" y="528.5454545454545" type="line"/>
    </contour>
  </outline>
</glyph>
<glyph name="pa-tamil" format="2">
  <advance width="795.7484848484848"/>
  <unicode hex="0BAA"/>
  <note>
uni0BAA
</note>
  <anchor x="341.21212121212125" y="0.0" name="bottom"/>
  <anchor x="744.2151515151515" y="548.5454545454545" name="imatra"/>
  <anchor x="341.21212121212125" y="0.0" name="nukta"/>
  <anchor x="454.08484848484846" y="548.5454545454545" name="top"/>
  <anchor x="452.95454545454544" y="548.5454545454545" name="vedic"/>
  <outline>
    <contour>
      <point x="42.778787878787874" y="0.0" type="line"/>
      <point x="636.3666666666667" y="0.0" type="line"/>
      <point x="753.0030303030303" y="548.5454545454545" type="line"/>
      <point x="690.7484848484848" y="548.5454545454545" type="line"/>
      <point x="582.4424242424243" y="39.90909090909091" type="line"/>
      <point x="113.67272727272729" y="39.90909090909091" type="line"/>
      <point x="221.6909090909091" y="548.5454545454545" type="line"/>
      <point x="159.38181818181818" y="548.5454545454545" type="line"/>
    </contour>
  </outline>
</glyph>
<glyph name="ya-tamil" format="2">
  <advance width="854.0151515151515"/>
  <unicode hex="0BAF"/>
  <note>
uni0BAF
</note>
  <anchor x="380.530303030303" y="0.0" name="bottom"/>
  <anchor x="804.3363636363637" y="548.5454545454545" name="imatra"/>
  <anchor x="381.130303030303" y="0.0" name="nukta"/>
  <anchor x="493.1727272727273" y="548.5454545454545" name="top"/>
  <anchor x="487.56363636363636" y="548.5454545454545" name="vedic"/>
  <outline>
    <contour>
      <point x="170.87575757575758" y="-5.0" type="curve" smooth="yes"/>
      <point x="229.84545454545457" y="-5.0"/>
      <point x="268.2939393939394" y="29.909090909090907"/>
      <point x="289.00909090909096" y="60.07575757575757" type="curve"/>
      <point x="276.109090909091" y="0.0" type="line"/>
      <point x="694.6333333333333" y="0.0" type="line"/>
      <point x="811.0909090909091" y="548.5454545454545" type="line"/>
      <point x="748.1484848484848" y="548.5454545454545" type="line"/>
      <point x="640.0424242424242" y="39.90909090909091" type="line"/>
      <point x="342.50909090909096" y="39.90909090909091" type="line"/>
      <point x="450.32727272727277" y="548.5454545454545" type="line"/>
      <point x="388.5636363636364" y="548.5454545454545" type="line"/>
      <point x="303.00909090909096" y="144.76363636363638" type="line" smooth="yes"/>
      <point x="290.37575757575763" y="85.37575757575758"/>
      <point x="249.3212121212121" y="40.09090909090909"/>
      <point x="194.33030303030304" y="40.09090909090909" type="curve" smooth="yes"/>
      <point x="143.57575757575756" y="40.09090909090909"/>
      <point x="116.92424242424242" y="81.03939393939395"/>
      <point x="131.0" y="147.40606060606063" type="curve" smooth="yes"/>
      <point x="216.3878787878788" y="548.5454545454545" type="line"/>
      <point x="154.5909090909091" y="548.5454545454545" type="line"/>
      <point x="71.0060606060606" y="157.01818181818183" type="line" smooth="yes"/>
      <point x="49.56969696969698" y="57.20606060606061"/>
      <point x="94.81212121212121" y="-5.0"/>
    </contour>
  </outline>
</glyph>
<glyph name="ra-tamil" format="2">
  <advance width="596.1454545454545"/>
  <unicode hex="0BB0"/>
  <note>
uni0BB0
</note>
  <anchor x="251.67878787878792" y="0.0" name="bottom"/>
  <anchor x="574.8757575757575" y="548.5454545454545" name="imatra"/>
  <anchor x="211.3181818181818" y="-183.54545454545456" name="nukta"/>
  <anchor x="388.9969696969697" y="548.5454545454545" name="top"/>
  <anchor x="395.06666666666666" y="548.5454545454545" name="vedic"/>
  <outline>
    <contour>
      <point x="115.73636363636362" y="-215.74242424242422" type="line"/>
      <point x="356.4212121212121" y="9.15151515151515" type="line"/>
      <point x="461.9666666666667" y="508.6363636363636" type="line"/>
      <point x="623.4363636363636" y="508.6363636363636" type="line"/>
      <point x="631.7090909090908" y="548.5454545454545" type="line"/>
      <point x="159.38181818181818" y="548.5454545454545" type="line"/>
      <point x="42.778787878787874" y="0.0" type="line"/>
      <point x="86.23636363636365" y="0.0" type="line"/>
      <point x="194.05454545454546" y="508.6363636363636" type="line"/>
      <point x="399.8575757575757" y="508.6363636363636" type="line"/>
      <point x="293.32727272727277" y="7.721212121212122" type="line"/>
      <point x="88.0939393939394" y="-184.95151515151514" type="line"/>
    </contour>
  </outline>
</glyph>
<glyph name="rra-tamil" format="2">
  <advance width="763.2515151515152"/>
  <unicode hex="0BB1"/>
  <note>
uni0BB1
</note>
  <anchor x="321.2090909090909" y="0.0" name="bottom"/>
  <anchor x="286.3575757575758" y="-168.0909090909091" name="nukta"/>
  <anchor x="420.669696969697" y="548.5454545454545" name="top"/>
  <anchor x="440.6242424242424" y="548.5454545454545" name="vedic"/>
  <outline>
    <contour>
      <point x="49.02727272727273" y="-221.55757575757576" type="curve"/>
      <point x="60.64545454545455" y="-165.75757575757575"/>
      <point x="88.02424242424242" y="-130.23333333333335"/>
      <point x="157.98181818181817" y="-130.23333333333335" type="curve" smooth="yes"/>
      <point x="279.0636363636364" y="-130.23333333333335" type="line" smooth="yes"/>
      <point x="551.4181818181819" y="-130.23333333333335"/>
      <point x="705.8484848484848" y="53.9060606060606"/>
      <point x="705.8484848484848" y="340.3" type="curve" smooth="yes"/>
      <point x="705.8484848484848" y="476.1545454545455"/>
      <point x="641.3515151515152" y="555.3636363636364"/>
      <point x="535.8454545454545" y="555.3636363636364" type="curve" smooth="yes"/>
      <point x="455.93030303030304" y="555.3636363636364"/>
      <point x="407.89393939393943" y="504.1878787878788"/>
      <point x="385.1151515151515" y="466.8363636363636" type="curve"/>
      <point x="376.3121212121212" y="504.23030303030305"/>
      <point x="343.83030303030307" y="554.8181818181819"/>
      <point x="271.23939393939395" y="554.8181818181819" type="curve" smooth="yes"/>
      <point x="196.9060606060606" y="554.8181818181819"/>
      <point x="143.4" y="500.45151515151514"/>
      <point x="125.22121212121213" y="413.7818181818182" type="curve" smooth="yes"/>
      <point x="37.33030303030302" y="0.0" type="line"/>
      <point x="80.38787878787879" y="0.0" type="line"/>
      <point x="167.85454545454547" y="412.9909090909091" type="line" smooth="yes"/>
      <point x="180.9090909090909" y="475.5212121212121"/>
      <point x="214.9121212121212" y="514.4545454545455"/>
      <point x="268.71212121212125" y="514.4545454545455" type="curve" smooth="yes"/>
      <point x="328.6878787878788" y="514.4545454545455"/>
      <point x="353.23030303030305" y="462.3666666666667"/>
      <point x="339.56666666666666" y="397.3909090909091" type="curve" smooth="yes"/>
      <point x="254.99090909090907" y="0.0" type="line"/>
      <point x="317.4454545454546" y="0.0" type="line"/>
      <point x="402.6212121212121" y="398.99090909090904" type="line" smooth="yes"/>
      <point x="418.1090909090909" y="469.830303030303"/>
      <point x="468.1363636363636" y="515.0"/>
      <point x="530.0272727272727" y="515.0" type="curve" smooth="yes"/>
      <point x="597.0181818181819" y="515.0"/>
      <point x="643.6606060606061" y="463.93030303030304"/>
      <point x="643.6606060606061" y="348.23636363636365" type="curve" smooth="yes"/>
      <point x="643.6606060606061" y="84.85757575757576"/>
      <point x="513.9666666666666" y="-90.52727272727272"/>
      <point x="279.1848484848485" y="-90.52727272727272" type="curve" smooth="yes"/>
      <point x="133.52121212121213" y="-90.52727272727272" type="line" smooth="yes"/>
      <point x="53.63333333333333" y="-90.52727272727272"/>
      <point x="-4.699999999999999" y="-117.45151515151515"/>
      <point x="-4.699999999999999" y="-172.65454545454548" type="curve" smooth="yes"/>
      <point x="-4.699999999999999" y="-204.41818181818184"/>
      <point x="14.669696969696972" y="-221.55757575757576"/>
    </contour>
  </outline>
</glyph>
<glyph name="la-tamil" format="2">
  <advance width="920.660606060606"/>
  <unicode hex="0BB2"/>
  <note>
uni0BB2
</note>
  <anchor x="404.9909090909091" y="0.0" name="bottom"/>
  <anchor x="404.9909090909091" y="0.0" name="nukta"/>
  <anchor x="538.2242424242424" y="548.5454545454545" name="top"/>
  <anchor x="518.8333333333334" y="548.5454545454545" name="vedic"/>
  <outline>
    <contour>
      <point x="208.41515151515154" y="-4.545454545454546" type="curve" smooth="yes"/>
      <point x="296.43939393939394" y="-4.545454545454546"/>
      <point x="369.4" y="59.03333333333333"/>
      <point x="369.4" y="164.26666666666668" type="curve" smooth="yes"/>
      <point x="369.4" y="240.55454545454546"/>
      <point x="320.9272727272728" y="293.90909090909093"/>
      <point x="245.66666666666666" y="293.90909090909093" type="curve" smooth="yes"/>
      <point x="160.45454545454547" y="293.90909090909093"/>
      <point x="99.93939393939395" y="225.3878787878788"/>
      <point x="72.54545454545455" y="139.0787878787879" type="curve"/>
      <point x="90.29393939393938" y="112.12121212121211" type="line"/>
      <point x="117.8" y="191.95151515151517"/>
      <point x="162.3969696969697" y="246.0"/>
      <point x="226.02121212121213" y="246.0" type="curve" smooth="yes"/>
      <point x="279.1272727272728" y="246.0"/>
      <point x="306.71212121212125" y="210.1969696969697"/>
      <point x="306.71212121212125" y="155.64545454545453" type="curve" smooth="yes"/>
      <point x="306.71212121212125" y="85.60909090909091"/>
      <point x="263.8636363636364" y="36.27272727272727"/>
      <point x="203.12424242424242" y="36.27272727272727" type="curve" smooth="yes"/>
      <point x="133.5727272727273" y="36.27272727272727"/>
      <point x="85.25151515151515" y="94.72121212121212"/>
      <point x="85.25151515151515" y="201.47272727272727" type="curve" smooth="yes"/>
      <point x="85.25151515151515" y="360.10606060606057"/>
      <point x="196.0121212121212" y="515.0"/>
      <point x="366.92727272727274" y="515.0" type="curve" smooth="yes"/>
      <point x="488.0939393939394" y="515.0"/>
      <point x="543.4484848484848" y="432.04545454545456"/>
      <point x="516.8272727272728" y="311.8424242424243" type="curve" smooth="yes"/>
      <point x="485.8424242424242" y="172.2" type="line" smooth="yes"/>
      <point x="464.3393939393939" y="75.24848484848486"/>
      <point x="502.8484848484848" y="-1.8181818181818181"/>
      <point x="605.3545454545455" y="-1.8181818181818181" type="curve" smooth="yes"/>
      <point x="756.4090909090909" y="-1.8181818181818181"/>
      <point x="874.0090909090909" y="155.02121212121213"/>
      <point x="874.0090909090909" y="353.5545454545454" type="curve" smooth="yes"/>
      <point x="874.0090909090909" y="433.27272727272725"/>
      <point x="852.9878787878788" y="495.9939393939394"/>
      <point x="818.2969696969698" y="553.8909090909091" type="curve"/>
      <point x="780.3787878787878" y="530.830303030303" type="line"/>
      <point x="808.730303030303" y="483.02727272727276"/>
      <point x="832.230303030303" y="419.5939393939394"/>
      <point x="832.230303030303" y="350.62121212121207" type="curve" smooth="yes"/>
      <point x="832.230303030303" y="184.41818181818184"/>
      <point x="734.4909090909091" y="41.27272727272727"/>
      <point x="617.0909090909091" y="41.27272727272727" type="curve" smooth="yes"/>
      <point x="548.5696969696969" y="41.27272727272727"/>
      <point x="532.1666666666667" y="96.17272727272729"/>
      <point x="548.4636363636364" y="170.74545454545452" type="curve" smooth="yes"/>
      <point x="578.769696969697" y="310.1090909090909" type="line" smooth="yes"/>
      <point x="611.0848484848485" y="458.8060606060606"/>
      <point x="532.6484848484848" y="555.3636363636364"/>
      <point x="373.27878787878785" y="555.3636363636364" type="curve" smooth="yes"/>
      <point x="173.75454545454548" y="555.3636363636364"/>
      <point x="42.90909090909091" y="382.62424242424237"/>
      <point x="42.90909090909091" y="198.80303030303028" type="curve" smooth="yes"/>
      <point x="42.90909090909091" y="71.39696969696969"/>
      <point x="110.92424242424244" y="-4.545454545454546"/>
    </contour>
  </outline>
</glyph>
<glyph name="lla-tamil" format="2">
  <advance width="1090.5181818181818"/>
  <unicode hex="0BB3"/>
  <note>
uni0BB3
</note>
  <anchor x="513.5272727272727" y="0.0" name="bottom"/>
  <anchor x="1065.2090909090912" y="548.5454545454545" name="imatra"/>
  <anchor x="514.239393939394" y="0.0" name="nukta"/>
  <anchor x="653.9151515151515" y="548.5454545454545" name="top"/>
  <anchor x="624.7515151515152" y="548.5454545454545" name="vedic"/>
  <outline>
    <contour>
      <point x="208.9818181818182" y="-4.545454545454546" type="curve" smooth="yes"/>
      <point x="297.00606060606054" y="-4.545454545454546"/>
      <point x="369.9666666666667" y="59.03333333333333"/>
      <point x="369.9666666666667" y="164.26666666666668" type="curve" smooth="yes"/>
      <point x="369.9666666666667" y="240.55454545454546"/>
      <point x="321.4939393939394" y="293.90909090909093"/>
      <point x="246.23333333333335" y="293.90909090909093" type="curve" smooth="yes"/>
      <point x="161.02121212121213" y="293.90909090909093"/>
      <point x="100.50606060606061" y="225.3878787878788"/>
      <point x="73.11212121212122" y="139.0787878787879" type="curve"/>
      <point x="90.86060606060605" y="112.12121212121211" type="line"/>
      <point x="118.36666666666666" y="191.95151515151517"/>
      <point x="162.96363636363637" y="246.0"/>
      <point x="226.58787878787882" y="246.0" type="curve" smooth="yes"/>
      <point x="279.69393939393944" y="246.0"/>
      <point x="307.2787878787879" y="210.1969696969697"/>
      <point x="307.2787878787879" y="155.64545454545453" type="curve" smooth="yes"/>
      <point x="307.2787878787879" y="85.60909090909091"/>
      <point x="264.43030303030304" y="36.27272727272727"/>
      <point x="203.6909090909091" y="36.27272727272727" type="curve" smooth="yes"/>
      <point x="134.13939393939395" y="36.27272727272727"/>
      <point x="85.81818181818181" y="94.72121212121212"/>
      <point x="85.81818181818181" y="201.47272727272727" type="curve" smooth="yes"/>
      <point x="85.81818181818181" y="358.1333333333333"/>
      <point x="194.1757575757576" y="515.0"/>
      <point x="366.1333333333334" y="515.0" type="curve" smooth="yes"/>
      <point x="500.9090909090909" y="515.0"/>
      <point x="596.7030303030302" y="427.8030303030303"/>
      <point x="563.9" y="271.6939393939394" type="curve"/>
      <point x="604.3" y="274.530303030303" type="line"/>
      <point x="639.1575757575758" y="453.5636363636364"/>
      <point x="527.7757575757576" y="555.3636363636364"/>
      <point x="368.1" y="555.3636363636364" type="curve" smooth="yes"/>
      <point x="167.6969696969697" y="555.3636363636364"/>
      <point x="43.47575757575757" y="380.6515151515152"/>
      <point x="43.47575757575757" y="198.80303030303028" type="curve" smooth="yes"/>
      <point x="43.47575757575757" y="71.39696969696969"/>
      <point x="111.4909090909091" y="-4.545454545454546"/>
    </contour>
    <contour>
      <point x="505.7121212121212" y="0.0" type="line"/>
      <point x="567.9666666666667" y="0.0" type="line"/>
      <point x="676.2969696969698" y="508.6363636363636" type="line"/>
      <point x="894.7636363636364" y="508.6363636363636" type="line"/>
      <point x="786.4909090909091" y="0.0" type="line"/>
      <point x="848.8545454545455" y="0.0" type="line"/>
      <point x="956.8727272727273" y="508.6363636363636" type="line"/>
      <point x="1117.8090909090909" y="508.6363636363636" type="line"/>
      <point x="1126.2818181818184" y="548.5454545454545" type="line"/>
      <point x="627.6424242424242" y="548.5454545454545" type="line"/>
      <point x="591.7727272727273" y="379.8272727272727" type="line"/>
      <point x="583.4606060606061" y="365.28181818181815" type="line"/>
    </contour>
  </outline>
</glyph>
<glyph name="llla-tamil" format="2">
  <advance width="810.1454545454545"/>
  <unicode hex="0BB4"/>
  <note>
uni0BB4
</note>
  <anchor x="348.50606060606054" y="0.0" name="bottom"/>
  <anchor x="287.7181818181818" y="-294.7606060606061" name="nukta"/>
  <anchor x="494.1484848484848" y="548.5454545454545" name="top"/>
  <anchor x="484.82121212121217" y="548.5454545454545" name="vedic"/>
  <anchor x="775.5363636363636" y="548.5454545454545" name="imatra"/>
  <outline>
    <contour>
      <point x="183.13030303030305" y="-326.06666666666666" type="curve" smooth="yes"/>
      <point x="342.830303030303" y="-326.06666666666666"/>
      <point x="394.1636363636364" y="-153.77575757575758"/>
      <point x="546.5969696969697" y="-153.77575757575758" type="curve" smooth="yes"/>
      <point x="597.1090909090909" y="-153.77575757575758" type="line"/>
      <point x="605.9272727272728" y="-114.06666666666668" type="line"/>
      <point x="545.4696969696969" y="-114.06666666666668" type="line" smooth="yes"/>
      <point x="455.8727272727273" y="-114.06666666666668"/>
      <point x="389.56666666666666" y="-71.33636363636364"/>
      <point x="406.7636363636364" y="9.418181818181818" type="curve" smooth="yes"/>
      <point x="420.47272727272724" y="73.72727272727272" type="line"/>
      <point x="358.5393939393939" y="73.72727272727272" type="line"/>
      <point x="344.70909090909095" y="9.418181818181818" type="line" smooth="yes"/>
      <point x="328.7030303030303" y="-63.903030303030306"/>
      <point x="387.04545454545456" y="-120.60000000000001"/>
      <point x="463.26060606060605" y="-130.6121212121212" type="curve"/>
      <point x="462.26060606060605" y="-135.4121212121212" type="line"/>
      <point x="329.5787878787879" y="-152.27878787878788"/>
      <point x="288.8424242424243" y="-282.3363636363636"/>
      <point x="174.62424242424245" y="-282.3363636363636" type="curve" smooth="yes"/>
      <point x="122.16060606060606" y="-282.3363636363636"/>
      <point x="89.8" y="-246.66060606060609"/>
      <point x="89.8" y="-199.0939393939394" type="curve" smooth="yes"/>
      <point x="89.8" y="-147.66363636363636"/>
      <point x="123.81818181818183" y="-109.7939393939394"/>
      <point x="177.3848484848485" y="-109.7939393939394" type="curve" smooth="yes"/>
      <point x="210.19090909090912" y="-109.7939393939394"/>
      <point x="238.73939393939392" y="-124.85757575757576"/>
      <point x="262.24848484848485" y="-149.63333333333335" type="curve"/>
      <point x="291.7" y="-119.4121212121212" type="line"/>
      <point x="260.06363636363636" y="-85.10909090909091"/>
      <point x="220.28181818181818" y="-70.03030303030302"/>
      <point x="177.33939393939394" y="-70.03030303030302" type="curve" smooth="yes"/>
      <point x="101.48181818181818" y="-70.03030303030302"/>
      <point x="46.56969696969698" y="-129.06060606060603"/>
      <point x="46.56969696969698" y="-205.53030303030303" type="curve" smooth="yes"/>
      <point x="46.56969696969698" y="-273.8454545454545"/>
      <point x="101.74545454545454" y="-326.06666666666666"/>
    </contour>
    <component base="ma-tamil"/>
  </outline>
</glyph>
<glyph name="va-tamil" format="2">
  <advance width="1020.1242424242423"/>
  <unicode hex="0BB5"/>
  <note>
uni0BB5
</note>
  <anchor x="476.3757575757576" y="0.0" name="bottom"/>
  <anchor x="925.5060606060606" y="548.5454545454545" name="imatra"/>
  <anchor x="476.3757575757576" y="0.0" name="nukta"/>
  <anchor x="561.730303030303" y="548.5454545454545" name="top"/>
  <anchor x="551.7787878787879" y="548.5454545454545" name="vedic"/>
  <outline>
    <contour>
      <point x="206.94848484848484" y="-4.545454545454546" type="curve" smooth="yes"/>
      <point x="294.9727272727273" y="-4.545454545454546"/>
      <point x="367.93333333333334" y="59.03333333333333"/>
      <point x="367.93333333333334" y="164.26666666666668" type="curve" smooth="yes"/>
      <point x="367.93333333333334" y="240.55454545454546"/>
      <point x="319.46060606060604" y="293.90909090909093"/>
      <point x="244.2" y="293.90909090909093" type="curve" smooth="yes"/>
      <point x="158.9878787878788" y="293.90909090909093"/>
      <point x="98.47272727272728" y="225.3878787878788"/>
      <point x="71.07878787878788" y="139.0787878787879" type="curve"/>
      <point x="88.82727272727273" y="112.12121212121211" type="line"/>
      <point x="116.33333333333334" y="191.95151515151517"/>
      <point x="160.93030303030304" y="246.0"/>
      <point x="224.55454545454546" y="246.0" type="curve" smooth="yes"/>
      <point x="277.6606060606061" y="246.0"/>
      <point x="305.24545454545455" y="210.1969696969697"/>
      <point x="305.24545454545455" y="155.64545454545453" type="curve" smooth="yes"/>
      <point x="305.24545454545455" y="85.60909090909091"/>
      <point x="262.3969696969697" y="36.27272727272727"/>
      <point x="201.65757575757576" y="36.27272727272727" type="curve" smooth="yes"/>
      <point x="132.1060606060606" y="36.27272727272727"/>
      <point x="83.78484848484848" y="94.72121212121212"/>
      <point x="83.78484848484848" y="201.47272727272727" type="curve" smooth="yes"/>
      <point x="83.78484848484848" y="356.6515151515151"/>
      <point x="217.56969696969696" y="515.1666666666666"/>
      <point x="386.7060606060606" y="515.1666666666666" type="curve" smooth="yes"/>
      <point x="514.3363636363636" y="515.1666666666666"/>
      <point x="596.4757575757576" y="439.8333333333333"/>
      <point x="596.4757575757576" y="310.75151515151515" type="curve" smooth="yes"/>
      <point x="596.4757575757576" y="199.14545454545456"/>
      <point x="539.7484848484847" y="110.96969696969697"/>
      <point x="464.9" y="31.490909090909092" type="curve"/>
      <point x="472.9909090909091" y="0.0" type="line"/>
      <point x="860.7424242424241" y="0.0" type="line"/>
      <point x="977.5454545454545" y="548.5454545454545" type="line"/>
      <point x="914.9242424242425" y="548.5454545454545" type="line"/>
      <point x="806.4727272727273" y="39.90909090909091" type="line"/>
      <point x="526.5060606060606" y="39.90909090909091" type="line"/>
      <point x="597.1333333333333" y="108.45454545454545"/>
      <point x="660.1" y="196.97878787878787"/>
      <point x="660.1" y="319.27272727272725" type="curve" smooth="yes"/>
      <point x="660.1" y="473.76363636363635"/>
      <point x="547.0575757575757" y="555.530303030303"/>
      <point x="394.0393939393939" y="555.530303030303" type="curve" smooth="yes"/>
      <point x="193.53030303030303" y="555.530303030303"/>
      <point x="41.442424242424245" y="377.44242424242424"/>
      <point x="41.442424242424245" y="198.80303030303028" type="curve" smooth="yes"/>
      <point x="41.442424242424245" y="71.39696969696969"/>
      <point x="109.45757575757575" y="-4.545454545454546"/>
    </contour>
  </outline>
</glyph>
<glyph name="sha-tamil" format="2">
  <advance width="1000.1818181818182"/>
  <unicode hex="0BB6"/>
  <note>
uni0BB6
</note>
  <anchor x="453.6242424242424" y="0.0" name="bottom"/>
  <anchor x="833.4242424242425" y="548.5454545454545" name="imatra"/>
  <anchor x="453.6242424242424" y="0.0" name="nukta"/>
  <anchor x="572.1484848484848" y="548.5454545454545" name="top"/>
  <anchor x="576.7787878787879" y="548.5454545454545" name="vedic"/>
  <outline>
    <contour>
      <point x="224.55757575757576" y="-6.818181818181818" type="curve" smooth="yes"/>
      <point x="316.7060606060606" y="-6.818181818181818"/>
      <point x="392.26363636363635" y="39.2939393939394"/>
      <point x="421.3424242424243" y="176.27878787878785" type="curve" smooth="yes"/>
      <point x="491.9545454545455" y="508.6363636363636" type="line"/>
      <point x="631.4636363636364" y="508.6363636363636" type="line"/>
      <point x="558.0424242424242" y="164.14848484848486" type="line" smooth="yes"/>
      <point x="536.5787878787878" y="62.26666666666667"/>
      <point x="572.6454545454545" y="-6.818181818181818"/>
      <point x="668.0787878787878" y="-6.818181818181818" type="curve" smooth="yes"/>
      <point x="839.8939393939394" y="-6.818181818181818"/>
      <point x="963.1666666666666" y="229.0818181818182"/>
      <point x="963.1666666666666" y="417.42424242424244" type="curve" smooth="yes"/>
      <point x="963.1666666666666" y="506.8181818181818"/>
      <point x="922.0060606060606" y="548.5454545454545"/>
      <point x="839.369696969697" y="548.5454545454545" type="curve" smooth="yes"/>
      <point x="457.71818181818185" y="548.5454545454545" type="line"/>
      <point x="379.3" y="179.84545454545452" type="line" smooth="yes"/>
      <point x="355.6575757575758" y="68.08484848484848"/>
      <point x="297.41212121212124" y="36.27272727272727"/>
      <point x="234.4848484848485" y="36.27272727272727" type="curve" smooth="yes"/>
      <point x="151.63636363636363" y="36.27272727272727"/>
      <point x="123.12727272727273" y="103.18484848484847"/>
      <point x="141.9878787878788" y="194.43636363636364" type="curve" smooth="yes"/>
      <point x="217.61212121212122" y="548.5454545454545" type="line"/>
      <point x="154.75757575757575" y="548.5454545454545" type="line"/>
      <point x="80.2030303030303" y="196.85454545454544" type="line" smooth="yes"/>
      <point x="54.945454545454545" y="82.5"/>
      <point x="108.51818181818182" y="-6.818181818181818"/>
    </contour>
    <contour>
      <point x="680.3878787878789" y="36.27272727272727" type="curve" smooth="yes"/>
      <point x="615.4545454545455" y="36.27272727272727"/>
      <point x="604.4939393939395" y="90.11515151515151"/>
      <point x="620.4090909090909" y="162.68484848484846" type="curve" smooth="yes"/>
      <point x="693.9757575757576" y="508.6363636363636" type="line"/>
      <point x="828.6060606060605" y="508.6363636363636" type="line" smooth="yes"/>
      <point x="892.2363636363636" y="508.6363636363636"/>
      <point x="919.5333333333334" y="480.3575757575757"/>
      <point x="919.5333333333334" y="414.69696969696975" type="curve" smooth="yes"/>
      <point x="919.5333333333334" y="262.2272727272727"/>
      <point x="812.530303030303" y="36.27272727272727"/>
    </contour>
  </outline>
</glyph>
<glyph name="ssa-tamil" format="2">
  <advance width="1251.087878787879"/>
  <unicode hex="0BB7"/>
  <note>
uni0BB7
</note>
  <anchor x="580.8090909090909" y="0.0" name="bottom"/>
  <anchor x="527.9303030303031" y="0.0" name="nukta"/>
  <anchor x="712.0151515151515" y="548.5454545454545" name="top"/>
  <anchor x="684.2878787878788" y="548.5454545454545" name="vedic"/>
  <outline>
    <contour>
      <point x="207.23636363636362" y="-4.545454545454546" type="curve" smooth="yes"/>
      <point x="295.2606060606061" y="-4.545454545454546"/>
      <point x="368.2212121212121" y="59.03333333333333"/>
      <point x="368.2212121212121" y="164.26666666666668" type="curve" smooth="yes"/>
      <point x="368.2212121212121" y="240.55454545454546"/>
      <point x="319.7484848484849" y="293.90909090909093"/>
      <point x="244.48787878787877" y="293.90909090909093" type="curve" smooth="yes"/>
      <point x="159.27575757575758" y="293.90909090909093"/>
      <point x="98.76060606060607" y="225.3878787878788"/>
      <point x="71.36666666666666" y="139.0787878787879" type="curve"/>
      <point x="89.11515151515152" y="112.12121212121211" type="line"/>
      <point x="116.62121212121214" y="191.95151515151517"/>
      <point x="161.21818181818182" y="246.0"/>
      <point x="224.84242424242424" y="246.0" type="curve" smooth="yes"/>
      <point x="277.9484848484849" y="246.0"/>
      <point x="305.53333333333336" y="210.1969696969697"/>
      <point x="305.53333333333336" y="155.64545454545453" type="curve" smooth="yes"/>
      <point x="305.53333333333336" y="85.60909090909091"/>
      <point x="262.6848484848485" y="36.27272727272727"/>
      <point x="201.9454545454545" y="36.27272727272727" type="curve" smooth="yes"/>
      <point x="132.39393939393938" y="36.27272727272727"/>
      <point x="84.07272727272729" y="94.72121212121212"/>
      <point x="84.07272727272729" y="201.47272727272727" type="curve" smooth="yes"/>
      <point x="84.07272727272729" y="356.6515151515151"/>
      <point x="214.9787878787879" y="515.1666666666666"/>
      <point x="384.1151515151515" y="515.1666666666666" type="curve" smooth="yes"/>
      <point x="508.2909090909091" y="515.1666666666666"/>
      <point x="596.7636363636365" y="436.4363636363636"/>
      <point x="596.7636363636365" y="307.3545454545455" type="curve" smooth="yes"/>
      <point x="596.7636363636365" y="195.74848484848485"/>
      <point x="540.0363636363636" y="110.96969696969697"/>
      <point x="465.18787878787884" y="31.490909090909092" type="curve"/>
      <point x="473.27878787878785" y="0.0" type="line"/>
      <point x="1131.5969696969696" y="0.0" type="line"/>
      <point x="1201.6969696969697" y="328.71515151515155" type="line"/>
      <point x="1131.6212121212122" y="297.2606060606061" type="line"/>
      <point x="1077.0696969696971" y="39.90909090909091" type="line"/>
      <point x="526.7939393939395" y="39.90909090909091" type="line"/>
      <point x="597.4212121212122" y="108.45454545454545"/>
      <point x="660.3878787878788" y="193.5818181818182"/>
      <point x="660.3878787878788" y="315.8757575757576" type="curve" smooth="yes"/>
      <point x="660.3878787878788" y="470.3666666666667"/>
      <point x="546.8848484848486" y="555.530303030303"/>
      <point x="390.06666666666666" y="555.530303030303" type="curve" smooth="yes"/>
      <point x="189.55757575757576" y="555.530303030303"/>
      <point x="41.730303030303034" y="378.4787878787879"/>
      <point x="41.730303030303034" y="198.80303030303028" type="curve" smooth="yes"/>
      <point x="41.730303030303034" y="71.39696969696969"/>
      <point x="109.74545454545454" y="-4.545454545454546"/>
    </contour>
    <contour>
      <point x="799.5575757575758" y="-269.25151515151515" type="line"/>
      <point x="861.8121212121213" y="-269.25151515151515" type="line"/>
      <point x="1008.9848484848484" y="423.22121212121215" type="line" smooth="yes"/>
      <point x="1025.939393939394" y="502.5969696969697"/>
      <point x="990.6333333333333" y="555.3636363636364"/>
      <point x="913.218181818182" y="555.3636363636364" type="curve" smooth="yes"/>
      <point x="825.0909090909091" y="555.3636363636364"/>
      <point x="759.690909090909" y="473.8"/>
      <point x="759.690909090909" y="379.3181818181818" type="curve" smooth="yes"/>
      <point x="759.690909090909" y="283.1272727272728"/>
      <point x="826.8909090909092" y="219.76363636363635"/>
      <point x="931.9636363636363" y="219.76363636363635" type="curve" smooth="yes"/>
      <point x="1021.369696969697" y="219.76363636363635"/>
      <point x="1101.7515151515152" y="248.63333333333333"/>
      <point x="1200.6969696969697" y="323.6818181818182" type="curve"/>
      <point x="1202.6969696969697" y="334.3484848484849" type="line"/>
      <point x="1182.3333333333333" y="355.68787878787873" type="line"/>
      <point x="1096.387878787879" y="291.8787878787879"/>
      <point x="1022.251515151515" y="259.3818181818182"/>
      <point x="935.7666666666667" y="259.3818181818182" type="curve" smooth="yes"/>
      <point x="849.6363636363636" y="259.3818181818182"/>
      <point x="800.5727272727273" y="303.24545454545455"/>
      <point x="800.5727272727273" y="382.6424242424242" type="curve" smooth="yes"/>
      <point x="800.5727272727273" y="446.91818181818184"/>
      <point x="839.1484848484848" y="513.8"/>
      <point x="899.0545454545455" y="513.8" type="curve" smooth="yes"/>
      <point x="941.7212121212121" y="513.8"/>
      <point x="959.4484848484849" y="481.9969696969697"/>
      <point x="948.4212121212122" y="430.6333333333333" type="curve" smooth="yes"/>
    </contour>
  </outline>
</glyph>
<glyph name="sa-tamil" format="2">
  <advance width="1168.7151515151515"/>
  <unicode hex="0BB8"/>
  <note>
uni0BB8
</note>
  <anchor x="536.8181818181819" y="0.0" name="bottom"/>
  <anchor x="536.8181818181819" y="0.0" name="nukta"/>
  <anchor x="641.2545454545456" y="548.5454545454545" name="top"/>
  <anchor x="643.8060606060606" y="548.5454545454545" name="vedic"/>
  <outline>
    <contour>
      <point x="464.89090909090913" y="0.0" type="line"/>
      <point x="527.0575757575758" y="0.0" type="line"/>
      <point x="616.169696969697" y="418.07272727272726" type="line" smooth="yes"/>
      <point x="629.1212121212122" y="477.6515151515152"/>
      <point x="661.6212121212122" y="514.4545454545455"/>
      <point x="714.8454545454545" y="514.4545454545455" type="curve" smooth="yes"/>
      <point x="769.130303030303" y="514.4545454545455"/>
      <point x="798.4909090909091" y="473.43939393939394"/>
      <point x="784.7454545454545" y="409.6333333333333" type="curve" smooth="yes"/>
      <point x="733.8969696969698" y="172.03333333333333" type="line" smooth="yes"/>
      <point x="712.9060606060606" y="75.08181818181819"/>
      <point x="750.9030303030303" y="-1.8181818181818181"/>
      <point x="853.4090909090909" y="-1.8181818181818181" type="curve" smooth="yes"/>
      <point x="1004.4636363636363" y="-1.8181818181818181"/>
      <point x="1122.063636363636" y="155.02121212121213"/>
      <point x="1122.063636363636" y="353.5545454545454" type="curve" smooth="yes"/>
      <point x="1122.063636363636" y="433.27272727272725"/>
      <point x="1102.769696969697" y="495.3030303030303"/>
      <point x="1068.769696969697" y="553.5454545454545" type="curve"/>
      <point x="1030.160606060606" y="531.1757575757575" type="line"/>
      <point x="1058.1666666666667" y="483.02727272727276"/>
      <point x="1080.2848484848485" y="419.5939393939394"/>
      <point x="1080.2848484848485" y="350.62121212121207" type="curve" smooth="yes"/>
      <point x="1080.2848484848485" y="184.41818181818184"/>
      <point x="982.5454545454545" y="41.27272727272727"/>
      <point x="865.1454545454545" y="41.27272727272727" type="curve" smooth="yes"/>
      <point x="796.6242424242425" y="41.27272727272727"/>
      <point x="780.2212121212121" y="95.82727272727271"/>
      <point x="796.5181818181819" y="170.74545454545452" type="curve" smooth="yes"/>
      <point x="845.0757575757575" y="399.16666666666663" type="line" smooth="yes"/>
      <point x="864.6151515151516" y="490.5939393939394"/>
      <point x="816.4818181818183" y="555.3636363636364"/>
      <point x="726.6060606060606" y="555.3636363636364" type="curve" smooth="yes"/>
      <point x="644.7090909090908" y="555.3636363636364"/>
      <point x="594.0787878787879" y="496.09090909090907"/>
      <point x="578.5787878787879" y="424.27272727272725" type="curve" smooth="yes"/>
      <point x="563.8242424242425" y="355.67272727272723" type="line"/>
      <point x="540.160606060606" y="355.67272727272723" type="line"/>
    </contour>
    <contour>
      <point x="208.42727272727274" y="-4.545454545454546" type="curve" smooth="yes"/>
      <point x="296.45151515151514" y="-4.545454545454546"/>
      <point x="369.74545454545455" y="59.03333333333333"/>
      <point x="369.74545454545455" y="164.26666666666668" type="curve" smooth="yes"/>
      <point x="369.74545454545455" y="240.55454545454546"/>
      <point x="321.27272727272725" y="293.90909090909093"/>
      <point x="246.01212121212123" y="293.90909090909093" type="curve" smooth="yes"/>
      <point x="160.79999999999998" y="293.90909090909093"/>
      <point x="100.28484848484847" y="225.3878787878788"/>
      <point x="72.89090909090909" y="139.0787878787879" type="curve"/>
      <point x="90.63939393939395" y="112.12121212121211" type="line"/>
      <point x="118.14545454545454" y="191.95151515151517"/>
      <point x="162.74242424242425" y="246.0"/>
      <point x="226.36666666666665" y="246.0" type="curve" smooth="yes"/>
      <point x="279.47272727272724" y="246.0"/>
      <point x="307.0575757575757" y="210.1969696969697"/>
      <point x="307.0575757575757" y="155.64545454545453" type="curve" smooth="yes"/>
      <point x="307.0575757575757" y="85.60909090909091"/>
      <point x="263.8757575757576" y="36.27272727272727"/>
      <point x="203.13636363636363" y="36.27272727272727" type="curve" smooth="yes"/>
      <point x="133.5848484848485" y="36.27272727272727"/>
      <point x="85.5969696969697" y="94.72121212121212"/>
      <point x="85.5969696969697" y="201.47272727272727" type="curve" smooth="yes"/>
      <point x="85.5969696969697" y="359.24242424242425"/>
      <point x="192.03939393939396" y="515.0"/>
      <point x="363.53030303030306" y="515.0" type="curve" smooth="yes"/>
      <point x="477.8787878787878" y="515.0"/>
      <point x="559.3" y="444.62424242424237"/>
      <point x="530.4878787878788" y="309.61818181818177" type="curve"/>
      <point x="573.3" y="311.60303030303027" type="line"/>
      <point x="605.0636363636364" y="469.169696969697"/>
      <point x="507.7242424242425" y="555.3636363636364"/>
      <point x="369.8818181818182" y="555.3636363636364" type="curve" smooth="yes"/>
      <point x="169.78181818181818" y="555.3636363636364"/>
      <point x="43.25454545454546" y="381.76060606060605"/>
      <point x="43.25454545454546" y="198.80303030303028" type="curve" smooth="yes"/>
      <point x="43.25454545454546" y="71.39696969696969"/>
      <point x="110.93636363636362" y="-4.545454545454546"/>
    </contour>
  </outline>
</glyph>
<glyph name="ha-tamil" format="2">
  <advance width="1440.760606060606"/>
  <unicode hex="0BB9"/>
  <note>
uni0BB9
</note>
  <anchor x="675.7393939393938" y="0.0" name="bottom"/>
  <anchor x="644.4696969696969" y="-146.0909090909091" name="nukta"/>
  <anchor x="797.5666666666667" y="548.5454545454545" name="top"/>
  <anchor x="785.8515151515153" y="548.5454545454545" name="vedic"/>
  <outline>
    <contour>
      <point x="73.7939393939394" y="-228.02727272727273" type="curve"/>
      <point x="85.4121212121212" y="-172.22727272727272"/>
      <point x="112.7909090909091" y="-137.1030303030303"/>
      <point x="182.74848484848485" y="-137.1030303030303" type="curve" smooth="yes"/>
      <point x="907.3303030303031" y="-137.1030303030303" type="line" smooth="yes"/>
      <point x="1201.587878787879" y="-137.1030303030303"/>
      <point x="1385.290909090909" y="50.45151515151515"/>
      <point x="1385.290909090909" y="340.3" type="curve" smooth="yes"/>
      <point x="1385.290909090909" y="476.1545454545455"/>
      <point x="1320.7939393939396" y="555.3636363636364"/>
      <point x="1215.2878787878788" y="555.3636363636364" type="curve" smooth="yes"/>
      <point x="1135.3727272727272" y="555.3636363636364"/>
      <point x="1087.3363636363638" y="504.1878787878788"/>
      <point x="1064.5575757575757" y="466.8363636363636" type="curve"/>
      <point x="1055.7545454545455" y="504.23030303030305"/>
      <point x="1022.7727272727273" y="554.8181818181819"/>
      <point x="950.6818181818182" y="554.8181818181819" type="curve" smooth="yes"/>
      <point x="876.3484848484848" y="554.8181818181819"/>
      <point x="823.1878787878788" y="500.45151515151514"/>
      <point x="804.6636363636364" y="413.7818181818182" type="curve" smooth="yes"/>
      <point x="724.7" y="39.90909090909091" type="line"/>
      <point x="526.7939393939395" y="39.90909090909091" type="line"/>
      <point x="597.4212121212122" y="108.45454545454545"/>
      <point x="660.3878787878788" y="193.5818181818182"/>
      <point x="660.3878787878788" y="315.8757575757576" type="curve" smooth="yes"/>
      <point x="660.3878787878788" y="470.3666666666667"/>
      <point x="546.8848484848486" y="555.530303030303"/>
      <point x="390.06666666666666" y="555.530303030303" type="curve" smooth="yes"/>
      <point x="189.55757575757576" y="555.530303030303"/>
      <point x="41.730303030303034" y="378.4787878787879"/>
      <point x="41.730303030303034" y="198.80303030303028" type="curve" smooth="yes"/>
      <point x="41.730303030303034" y="71.39696969696969"/>
      <point x="109.74545454545454" y="-4.545454545454546"/>
      <point x="207.23636363636362" y="-4.545454545454546" type="curve" smooth="yes"/>
      <point x="295.2606060606061" y="-4.545454545454546"/>
      <point x="368.2212121212121" y="59.03333333333333"/>
      <point x="368.2212121212121" y="164.26666666666668" type="curve" smooth="yes"/>
      <point x="368.2212121212121" y="240.55454545454546"/>
      <point x="319.7484848484849" y="293.90909090909093"/>
      <point x="244.48787878787877" y="293.90909090909093" type="curve" smooth="yes"/>
      <point x="159.27575757575758" y="293.90909090909093"/>
      <point x="98.76060606060607" y="225.3878787878788"/>
      <point x="71.36666666666666" y="139.0787878787879" type="curve"/>
      <point x="89.11515151515152" y="112.12121212121211" type="line"/>
      <point x="116.62121212121214" y="191.95151515151517"/>
      <point x="161.21818181818182" y="246.0"/>
      <point x="224.84242424242424" y="246.0" type="curve" smooth="yes"/>
      <point x="277.9484848484849" y="246.0"/>
      <point x="305.53333333333336" y="210.1969696969697"/>
      <point x="305.53333333333336" y="155.64545454545453" type="curve" smooth="yes"/>
      <point x="305.53333333333336" y="85.60909090909091"/>
      <point x="262.6848484848485" y="36.27272727272727"/>
      <point x="201.9454545454545" y="36.27272727272727" type="curve" smooth="yes"/>
      <point x="132.39393939393938" y="36.27272727272727"/>
      <point x="84.07272727272729" y="94.72121212121212"/>
      <point x="84.07272727272729" y="201.47272727272727" type="curve" smooth="yes"/>
      <point x="84.07272727272729" y="356.6515151515151"/>
      <point x="214.9787878787879" y="515.1666666666666"/>
      <point x="384.1151515151515" y="515.1666666666666" type="curve" smooth="yes"/>
      <point x="508.2909090909091" y="515.1666666666666"/>
      <point x="596.7636363636365" y="436.4363636363636"/>
      <point x="596.7636363636365" y="307.3545454545455" type="curve" smooth="yes"/>
      <point x="596.7636363636365" y="195.74848484848485"/>
      <point x="540.0363636363636" y="110.96969696969697"/>
      <point x="465.18787878787884" y="31.490909090909092" type="curve"/>
      <point x="473.27878787878785" y="0.0" type="line"/>
      <point x="759.5424242424242" y="0.0" type="line"/>
      <point x="847.2969696969698" y="412.9909090909091" type="line" smooth="yes"/>
      <point x="860.3515151515152" y="475.5212121212121"/>
      <point x="894.3545454545455" y="514.4545454545455"/>
      <point x="948.1545454545455" y="514.4545454545455" type="curve" smooth="yes"/>
      <point x="1008.1303030303029" y="514.4545454545455"/>
      <point x="1032.6727272727271" y="462.3666666666667"/>
      <point x="1019.009090909091" y="397.3909090909091" type="curve" smooth="yes"/>
      <point x="934.4333333333334" y="0.0" type="line"/>
      <point x="996.8878787878788" y="0.0" type="line"/>
      <point x="1082.0636363636363" y="398.99090909090904" type="line" smooth="yes"/>
      <point x="1097.551515151515" y="469.830303030303"/>
      <point x="1147.5787878787878" y="515.0"/>
      <point x="1209.469696969697" y="515.0" type="curve" smooth="yes"/>
      <point x="1276.460606060606" y="515.0"/>
      <point x="1323.1030303030304" y="463.93030303030304"/>
      <point x="1323.1030303030304" y="348.23636363636365" type="curve" smooth="yes"/>
      <point x="1323.1030303030304" y="81.4030303030303"/>
      <point x="1164.1363636363637" y="-96.5969696969697"/>
      <point x="907.4515151515152" y="-96.5969696969697" type="curve" smooth="yes"/>
      <point x="158.28787878787878" y="-96.5969696969697" type="line" smooth="yes"/>
      <point x="78.4" y="-96.5969696969697"/>
      <point x="20.066666666666666" y="-123.92121212121214"/>
      <point x="20.066666666666666" y="-179.12424242424242" type="curve" smooth="yes"/>
      <point x="20.066666666666666" y="-210.8878787878788"/>
      <point x="39.436363636363645" y="-228.02727272727273"/>
    </contour>
  </outline>
</glyph>
<glyph name="aaMatra-tamil" format="2">
  <advance width="614.2454545454545"/>
  <unicode hex="0BBE"/>
  <note>
uni0BBE
</note>
  <anchor x="276.3181818181818" y="0.0" name="bottom"/>
  <anchor x="275.4848484848485" y="0.0" name="nukta"/>
  <anchor x="386.1212121212121" y="548.5454545454545" name="top"/>
  <anchor x="386.1212121212121" y="548.5454545454545" name="vedic"/>
  <outline>
    <contour>
      <point x="42.778787878787874" y="0.0" type="line"/>
      <point x="86.23636363636365" y="0.0" type="line"/>
      <point x="194.05454545454546" y="508.6363636363636" type="line"/>
      <point x="414.5030303030303" y="508.6363636363636" type="line"/>
      <point x="306.05151515151516" y="0.0" type="line"/>
      <point x="368.7939393939394" y="0.0" type="line"/>
      <point x="476.77878787878785" y="508.6363636363636" type="line"/>
      <point x="641.5363636363636" y="508.6363636363636" type="line"/>
      <point x="650.1545454545454" y="548.5454545454545" type="line"/>
      <point x="159.38181818181818" y="548.5454545454545" type="line"/>
    </contour>
  </outline>
</glyph>
<glyph name="iMatra-tamil" format="2">
  <advance width="208.14242424242425"/>
  <unicode hex="0BBF"/>
  <note>
uni0BBF
</note>
  <anchor x="-18.17878787878788" y="811.5787878787878" name="top"/>
  <outline>
    <contour>
      <point x="14.675757575757572" y="0.0" type="line"/>
      <point x="58.884848484848476" y="0.0" type="line"/>
      <point x="176.2878787878788" y="550.4242424242425" type="line" smooth="yes"/>
      <point x="209.42121212121214" y="706.2939393939395"/>
      <point x="132.0818181818182" y="811.5787878787878"/>
      <point x="-18.17878787878788" y="811.5787878787878" type="curve" smooth="yes"/>
      <point x="-140.1878787878788" y="811.5787878787878"/>
      <point x="-222.3060606060606" y="729.9242424242424"/>
      <point x="-222.3060606060606" y="631.5272727272727" type="curve" smooth="yes"/>
      <point x="-222.3060606060606" y="559.1666666666666"/>
      <point x="-172.1939393939394" y="508.6363636363636"/>
      <point x="-112.14848484848486" y="508.6363636363636" type="curve" smooth="yes"/>
      <point x="-106.11818181818182" y="508.6363636363636" type="line"/>
      <point x="-97.93333333333334" y="548.5454545454545" type="line"/>
      <point x="-102.47878787878788" y="548.5454545454545" type="line" smooth="yes"/>
      <point x="-145.64848484848486" y="548.5454545454545"/>
      <point x="-176.66969696969696" y="580.4272727272727"/>
      <point x="-176.66969696969696" y="627.0090909090908" type="curve" smooth="yes"/>
      <point x="-176.66969696969696" y="696.4121212121212"/>
      <point x="-113.19090909090909" y="749.9757575757575"/>
      <point x="-23.56969696969697" y="749.9757575757575" type="curve" smooth="yes"/>
      <point x="95.97272727272727" y="749.9757575757575"/>
      <point x="157.23030303030305" y="670.0151515151515"/>
      <point x="129.05454545454546" y="537.8030303030303" type="curve" smooth="yes"/>
    </contour>
  </outline>
</glyph>
<glyph name="iiMatra-tamil" format="2">
  <unicode hex="0BC0"/>
  <note>
uni0BC0
</note>
  <anchor x="57.63636363636363" y="548.5454545454545" name="_imatra"/>
  <anchor x="116.93030303030302" y="877.4545454545455" name="top"/>
  <outline>
    <contour>
      <point x="36.38484848484849" y="512.2727272727273" type="curve" smooth="yes"/>
      <point x="50.36363636363637" y="512.2727272727273" type="line"/>
      <point x="57.63636363636363" y="548.5454545454545" type="line"/>
      <point x="45.04545454545455" y="548.5454545454545" type="line" smooth="yes"/>
      <point x="-19.506060606060608" y="548.5454545454545"/>
      <point x="-58.87272727272727" y="592.0242424242424"/>
      <point x="-58.87272727272727" y="667.6121212121211" type="curve" smooth="yes"/>
      <point x="-58.87272727272727" y="756.0484848484848"/>
      <point x="6.345454545454545" y="838.0"/>
      <point x="112.34545454545454" y="838.0" type="curve" smooth="yes"/>
      <point x="174.5727272727273" y="838.0"/>
      <point x="219.1757575757576" y="804.6151515151514"/>
      <point x="219.1757575757576" y="744.9515151515152" type="curve" smooth="yes"/>
      <point x="219.1757575757576" y="691.0666666666666"/>
      <point x="185.27878787878788" y="651.0"/>
      <point x="132.83333333333334" y="651.0" type="curve" smooth="yes"/>
      <point x="47.38484848484848" y="651.0"/>
      <point x="49.39393939393939" y="763.2757575757576"/>
      <point x="111.57878787878788" y="852.8181818181819" type="curve"/>
      <point x="80.15757575757576" y="856.8181818181819" type="line"/>
      <point x="-4.445454545454546" y="742.5818181818181"/>
      <point x="12.275757575757575" y="611.0909090909091"/>
      <point x="136.22121212121212" y="611.0909090909091" type="curve" smooth="yes"/>
      <point x="215.38181818181818" y="611.0909090909091"/>
      <point x="275.3969696969697" y="664.9969696969697"/>
      <point x="275.3969696969697" y="746.2060606060606" type="curve" smooth="yes"/>
      <point x="275.3969696969697" y="829.7242424242424"/>
      <point x="207.84545454545452" y="877.4545454545455"/>
      <point x="116.93030303030302" y="877.4545454545455" type="curve" smooth="yes"/>
      <point x="-12.92121212121212" y="877.4545454545455"/>
      <point x="-103.17878787878789" y="776.8060606060606"/>
      <point x="-103.17878787878789" y="664.0848484848485" type="curve" smooth="yes"/>
      <point x="-103.17878787878789" y="569.8121212121212"/>
      <point x="-45.693939393939395" y="512.2727272727273"/>
    </contour>
  </outline>
</glyph>
<glyph name="eMatra-tamil" format="2">
  <advance width="750.3212121212122"/>
  <unicode hex="0BC6"/>
  <note>
uni0BC6
</note>
  <outline>
    <contour>
      <point x="248.61212121212125" y="-4.545454545454546" type="curve" smooth="yes"/>
      <point x="340.3333333333333" y="-4.545454545454546"/>
      <point x="414.92727272727274" y="60.63333333333333"/>
      <point x="414.92727272727274" y="165.29090909090908" type="curve" smooth="yes"/>
      <point x="414.92727272727274" y="242.96060606060607"/>
      <point x="365.2787878787879" y="299.8181818181818"/>
      <point x="286.2030303030303" y="299.8181818181818" type="curve" smooth="yes"/>
      <point x="200.32424242424244" y="299.8181818181818"/>
      <point x="139.4636363636364" y="228.36363636363637"/>
      <point x="110.73636363636363" y="139.22121212121215" type="curve"/>
      <point x="128.12727272727273" y="112.26363636363637" type="line"/>
      <point x="156.96666666666667" y="194.92727272727274"/>
      <point x="203.16666666666669" y="251.9090909090909"/>
      <point x="266.79090909090905" y="251.9090909090909" type="curve" smooth="yes"/>
      <point x="322.6242424242424" y="251.9090909090909"/>
      <point x="352.2393939393939" y="212.02121212121213"/>
      <point x="352.2393939393939" y="156.66969696969696" type="curve" smooth="yes"/>
      <point x="352.2393939393939" y="86.63333333333334"/>
      <point x="306.7575757575757" y="36.27272727272727"/>
      <point x="242.9212121212121" y="36.27272727272727" type="curve" smooth="yes"/>
      <point x="171.83939393939394" y="36.27272727272727"/>
      <point x="111.48787878787878" y="103.37878787878789"/>
      <point x="111.48787878787878" y="252.50303030303033" type="curve" smooth="yes"/>
      <point x="111.48787878787878" y="496.53333333333336"/>
      <point x="251.1060606060606" y="750.2909090909092"/>
      <point x="474.8" y="750.2909090909092" type="curve" smooth="yes"/>
      <point x="621.6848484848485" y="750.2909090909092"/>
      <point x="697.1393939393939" y="655.8606060606061"/>
      <point x="660.8606060606061" y="486.0" type="curve" smooth="yes"/>
      <point x="557.0545454545455" y="0.0" type="line"/>
      <point x="600.9757575757576" y="0.0" type="line"/>
      <point x="706.3121212121212" y="494.82424242424236" type="line" smooth="yes"/>
      <point x="746.709090909091" y="685.0545454545454"/>
      <point x="657.2151515151515" y="813.0181818181819"/>
      <point x="483.130303030303" y="813.0181818181819" type="curve" smooth="yes"/>
      <point x="222.65151515151516" y="813.0181818181819"/>
      <point x="69.54545454545455" y="523.9606060606061"/>
      <point x="69.54545454545455" y="250.29999999999998" type="curve" smooth="yes"/>
      <point x="69.54545454545455" y="81.9030303030303"/>
      <point x="149.3909090909091" y="-4.545454545454546"/>
    </contour>
  </outline>
</glyph>
